<svg width="654" height="864" viewBox="0 0 654 864" fill="none" xmlns="http://www.w3.org/2000/svg">
<g clip-path="url(#clip0)">
<rect width="654" height="864" fill="white"/>
<g opacity="0.2">
<path d="M538.738 166.657C534.958 157.301 530.517 148.119 525.54 139.367C520.634 130.741 515.088 122.323 509.055 114.346C503.098 106.47 496.525 98.8356 489.516 91.6536C482.584 84.5502 475.061 77.7204 467.157 71.354C459.324 65.0448 450.931 59.0418 442.213 53.512C433.554 48.0199 424.37 42.8661 414.918 38.1938C396.074 28.8791 375.654 21.2091 354.225 15.3969C332.787 9.5823 310.162 5.57928 286.981 3.49905C263.57 1.39835 239.385 1.24095 215.098 3.03125C202.824 3.93605 190.347 5.35478 178.015 7.24805C165.542 9.16291 152.917 11.6093 140.49 14.5192C127.9 17.4673 115.206 20.9633 102.763 24.9097C90.1355 28.9143 77.4543 33.4816 65.0711 38.4847C52.688 43.4878 40.3931 49.0115 28.5282 54.9023C16.8355 60.7077 5.27617 67.0105 -5.82867 73.6359C-16.7893 80.1751 -27.5704 87.1855 -37.8728 94.4724C-48.059 101.677 -58.0194 109.324 -67.4771 117.199C-86.1916 132.783 -103.479 149.696 -118.86 167.47C-134.091 185.069 -147.585 203.665 -158.967 222.74C-170.344 241.807 -179.705 261.509 -186.79 281.299C-190.343 291.227 -193.369 301.313 -195.783 311.279C-198.213 321.313 -200.08 331.461 -201.332 341.441C-202.596 351.512 -203.262 361.65 -203.315 371.575C-203.367 381.61 -202.793 391.669 -201.606 401.471C-200.405 411.401 -198.547 421.309 -196.084 430.922C-193.584 440.675 -190.4 450.364 -186.62 459.721C-182.459 470.019 -178.331 478.872 -173.998 486.786C-169.684 494.668 -165.296 501.384 -160.583 507.318C-155.957 513.142 -151.148 518.05 -145.88 522.321C-140.781 526.455 -135.371 529.894 -129.341 532.835C-123.607 535.632 -117.4 537.932 -110.365 539.867C-103.888 541.649 -96.6961 543.121 -88.3787 544.366C-72.571 546.731 -54.3827 548.025 -33.3226 549.523C-20.1487 550.46 -5.21704 551.522 10.8293 552.984L10.9138 552.991L10.9969 553.008C24.1432 555.726 41.007 560.338 60.5337 565.678C100.773 576.683 150.852 590.38 197.278 595.272C205.83 596.173 213.995 597.55 221.892 598.882C231.077 600.432 239.753 601.895 248.117 602.458C252.568 602.758 256.566 602.779 260.34 602.523C264.522 602.239 268.354 601.622 272.054 600.638C272.887 600.416 274.018 599.679 275.415 598.446C276.782 597.239 278.25 595.7 279.67 594.212C282.334 591.418 284.851 588.78 287.046 587.893C299.43 582.89 311.724 577.366 323.589 571.475C335.282 565.67 346.842 559.367 357.946 552.742C368.907 546.203 379.688 539.192 389.99 531.905C400.177 524.7 410.137 517.054 419.595 509.179C438.309 493.595 455.597 476.682 470.978 458.908C486.208 441.308 499.702 422.713 511.084 403.638C522.462 384.571 531.823 364.869 538.907 345.078C542.461 335.151 545.487 325.064 547.901 315.099C550.331 305.064 552.198 294.916 553.45 284.936C554.713 274.866 555.38 264.728 555.432 254.802C555.485 244.767 554.91 234.709 553.724 224.906C552.523 214.977 550.664 205.068 548.201 195.456C545.702 185.703 542.518 176.013 538.738 166.657ZM540.129 166.095C601.736 318.578 488.679 508.046 287.608 589.284C283.526 590.933 276.917 600.897 272.44 602.088C249.955 608.069 225.477 599.752 197.121 596.764C128.149 589.496 50.9843 562.806 10.6932 554.478C-106.212 543.829 -149.568 555.432 -188.011 460.283C-249.618 307.8 -136.561 118.331 64.5092 37.0938C265.579 -44.1439 478.522 13.6119 540.129 166.095Z" fill="#707070"/>
</g>
<path opacity="0.2" d="M-132.523 867.863C274.066 867.863 603.671 692.398 603.671 475.951C603.671 259.504 274.066 84.0391 -132.523 84.0391C-539.112 84.0391 -868.718 259.504 -868.718 475.951C-868.718 692.398 -539.112 867.863 -132.523 867.863Z" stroke="#707070" stroke-width="1.50014"/>
<path d="M574.049 283.053C574.049 301.646 569.645 316.951 562.006 330.062C559.484 334.38 556.622 338.49 553.446 342.353C525.364 376.701 473.153 395.5 425.964 425.951C286.673 515.835 271.585 371.806 277.876 283.053C280.414 247.242 294.36 214.438 316.516 189.322C321.169 184.039 326.196 179.097 331.557 174.535C356.709 153.113 389.207 140.148 425.965 140.148C489.03 140.148 542.884 178.186 564.237 231.787C570.729 248.098 574.058 265.495 574.049 283.051V283.053Z" fill="#253163"/>
<path d="M457.518 172.357L316.518 189.321C321.172 184.039 326.199 179.097 331.561 174.534L457.518 172.357Z" fill="#D0CDE1"/>
<path d="M562.006 337.431C559.485 341.75 556.623 345.86 553.447 349.722L432.668 335.193L562.006 337.431Z" fill="#D0CDE1"/>
<path d="M569.163 249.753L364.469 223.201L564.235 235.011C566.154 239.829 567.799 244.75 569.163 249.753Z" fill="#D0CDE1"/>
<path d="M291.763 178.215C291.763 178.58 291.753 178.94 291.721 179.294C291.561 181.489 290.913 183.621 289.825 185.535C288.737 187.448 287.235 189.095 285.43 190.355C283.625 191.614 281.562 192.456 279.39 192.817C277.219 193.179 274.994 193.052 272.878 192.445C270.762 191.838 268.808 190.767 267.159 189.309C265.509 187.851 264.205 186.044 263.343 184.019C262.48 181.994 262.079 179.802 262.171 177.603C262.262 175.403 262.843 173.252 263.871 171.305C264.189 170.695 264.553 170.11 264.96 169.555C266.73 167.1 269.211 165.247 272.067 164.245C274.924 163.244 278.019 163.143 280.934 163.955C283.85 164.768 286.447 166.455 288.374 168.789C290.301 171.124 291.465 173.993 291.711 177.01C291.747 177.406 291.763 177.811 291.763 178.215Z" fill="#253163"/>
<path d="M291.763 178.215C291.763 178.58 291.752 178.94 291.721 179.294L269.559 176.626L291.71 177.006C291.747 177.407 291.763 177.809 291.763 178.215Z" fill="#D0CDE1"/>
<path d="M286.477 185.675L265.976 188.144C265.394 187.495 264.87 186.796 264.411 186.056L286.477 185.675Z" fill="#D0CDE1"/>
<path d="M280.661 169.287L263.87 171.306C264.189 170.696 264.553 170.111 264.959 169.556L280.661 169.287Z" fill="#D0CDE1"/>
<path d="M494.628 456.235C494.457 456.558 494.279 456.87 494.085 457.168C492.915 459.032 491.343 460.612 489.485 461.792C487.626 462.972 485.528 463.723 483.343 463.989C481.158 464.256 478.941 464.032 476.853 463.333C474.766 462.635 472.86 461.48 471.276 459.952C469.691 458.424 468.468 456.561 467.694 454.501C466.92 452.44 466.615 450.232 466.803 448.039C466.99 445.846 467.664 443.722 468.776 441.822C469.887 439.922 471.409 438.294 473.229 437.056C473.796 436.667 474.392 436.321 475.012 436.021C477.726 434.682 480.787 434.207 483.78 434.662C486.773 435.116 489.554 436.478 491.749 438.563C493.944 440.648 495.447 443.356 496.054 446.322C496.662 449.287 496.345 452.368 495.146 455.148C494.993 455.513 494.819 455.875 494.628 456.235Z" fill="#253163"/>
<path d="M494.628 456.177C494.457 456.499 494.279 456.811 494.085 457.11L475.759 444.367L495.146 455.087C494.992 455.454 494.819 455.817 494.628 456.177Z" fill="#D0CDE1"/>
<path d="M486.461 460.445L467.194 453.015C466.984 452.169 466.849 451.307 466.791 450.437L486.461 460.445Z" fill="#D0CDE1"/>
<path d="M489.007 442.614L473.229 436.527C473.796 436.137 474.392 435.791 475.011 435.492L489.007 442.614Z" fill="#D0CDE1"/>
<path d="M599.466 189.556C599.721 189.817 599.964 190.081 600.189 190.358C601.607 192.041 602.632 194.02 603.189 196.15C603.746 198.279 603.821 200.506 603.408 202.669C602.995 204.831 602.106 206.874 600.804 208.649C599.502 210.424 597.82 211.886 595.881 212.929C593.943 213.972 591.796 214.569 589.597 214.677C587.399 214.786 585.204 214.402 583.172 213.555C581.14 212.708 579.323 211.418 577.853 209.779C576.383 208.141 575.296 206.195 574.673 204.084C574.475 203.425 574.328 202.752 574.232 202.071C573.785 199.077 574.267 196.018 575.612 193.307C576.958 190.596 579.103 188.363 581.758 186.909C584.412 185.455 587.449 184.85 590.458 185.175C593.467 185.501 596.304 186.742 598.586 188.73C598.89 188.985 599.186 189.264 599.466 189.556Z" fill="#253163"/>
<path d="M599.466 189.556C599.721 189.817 599.964 190.081 600.19 190.357L582.465 203.922L598.592 188.729C598.892 188.988 599.187 189.264 599.466 189.556Z" fill="#D0CDE1"/>
<path d="M600.894 198.587L587.941 214.668C587.071 214.61 586.208 214.476 585.363 214.266L600.894 198.587Z" fill="#D0CDE1"/>
<path d="M585.288 190.915L574.677 204.084C574.479 203.425 574.331 202.752 574.235 202.07L585.288 190.915Z" fill="#D0CDE1"/>
<path d="M321.764 474.955C321.764 474.955 354.248 476.305 354.248 484.429C354.248 492.553 317.704 484.429 317.704 484.429L321.764 474.955Z" fill="#A0616A"/>
<path d="M273.037 603.838L212.131 599.777L209.424 567.293L195.889 595.717L136.333 587.596C137.684 536.162 159.343 486.083 160.697 479.315C162.05 472.547 165.285 444.587 165.285 444.587C171.2 432.04 202.194 430.861 226.491 431.999C236.561 432.46 245.494 433.326 251.002 433.95C254.643 434.355 256.795 434.653 256.795 434.653C266.499 444.655 272.753 458.285 276.597 473.512C290.457 528.367 273.037 603.838 273.037 603.838Z" fill="#2F2E41"/>
<path d="M205.361 272.856C224.049 272.856 239.198 257.706 239.198 239.018C239.198 220.331 224.049 205.181 205.361 205.181C186.673 205.181 171.524 220.331 171.524 239.018C171.524 257.706 186.673 272.856 205.361 272.856Z" fill="#A0616A"/>
<path d="M182.352 251.829C182.352 251.829 172.877 293.787 157.988 305.969C143.099 318.151 216.188 305.969 216.188 305.969C216.188 305.969 199.946 278.899 212.128 266.718C224.309 254.536 182.352 251.829 182.352 251.829Z" fill="#A0616A"/>
<path d="M251.38 428.572L228.926 431.062L166.11 438.044C166.11 438.044 165.81 437.246 165.285 435.794C160.724 423.356 138.756 362.827 136.332 344.649C133.624 324.352 162.051 299.989 162.051 299.989C162.051 299.989 189.121 294.575 197.242 294.575C205.363 294.575 237.847 306.756 237.847 306.756L249.961 415.726L251.004 425.16L251.38 428.572Z" fill="#D0CDE1"/>
<path opacity="0.15" d="M276.597 466.876L231.078 440.199C231.078 440.199 230.279 437.6 228.926 433.215C228.251 431.022 227.426 428.369 226.49 425.365C221.239 408.5 212.427 380.672 205.362 360.342C194.534 329.214 247.32 415.836 247.32 415.836L249.959 417.88L251.001 427.314C254.642 427.72 256.794 428.018 256.794 428.018C266.499 438.02 272.753 451.649 276.597 466.876Z" fill="black"/>
<path d="M216.189 311.225C216.189 311.225 202.654 328.82 213.482 359.951C224.31 391.082 239.199 439.808 239.199 439.808L317.701 485.827L328.529 472.292L255.441 415.446C255.441 415.446 252.734 312.579 239.199 308.519C225.664 304.459 216.189 311.225 216.189 311.225Z" fill="#D0CDE1"/>
<path d="M149.191 431.119C149.191 431.119 168.14 470.371 176.261 466.31C184.382 462.25 155.958 421.645 155.958 421.645L149.191 431.119Z" fill="#A0616A"/>
<path d="M147.162 320.87L75.4255 380.425C75.4255 380.425 48.3555 399.374 98.4347 412.909C148.514 426.444 152.575 434.565 152.575 434.565C152.575 434.565 157.989 416.97 164.756 419.677L106.556 391.249L153.928 362.826L147.162 320.87Z" fill="#D0CDE1"/>
<path d="M118.33 266.792C122.094 264.927 130.406 261.166 137.49 256.631C136.994 241.882 138.809 228.494 144.126 221.397C147.11 214.621 153.377 207.838 158.284 202.495C170.336 189.376 196.988 182.053 201.713 188.608C237.465 189.314 241.228 217.336 241.228 217.336C241.042 229.057 228.859 229.429 218.188 229.001C219.144 237.003 216.597 245.318 209.222 249.005C195.121 256.056 190.889 265.223 197.941 271.57C204.992 277.916 217.685 294.839 200.761 299.07C183.837 303.3 181.723 311.762 186.659 315.288C191.596 318.813 175.378 308.941 175.378 308.941C175.378 308.941 172.557 325.864 157.751 321.634C156.198 321.084 154.828 320.113 153.794 318.83C149.794 323.224 146.227 325.822 143.538 325.837C128.137 325.918 129.985 308.861 129.985 308.861C129.985 308.861 111.706 313.995 117.409 311.93C123.113 309.866 123.357 301.147 108.201 292.51C93.0454 283.873 109.829 271.001 118.33 266.792Z" fill="#2F2E41"/>
<path d="M307.279 317.082L307.034 317.05L307.634 319.326C308.2 322.502 309.022 325.628 310.092 328.671L327.658 395.446C328.218 397.576 329.389 399.497 331.025 400.973C332.661 402.448 334.693 403.414 336.87 403.751L372.692 409.293C375.009 409.651 377.379 409.281 379.476 408.235C381.573 407.188 383.294 405.516 384.4 403.45L418.443 339.864C419.506 338.102 420.478 336.287 421.355 334.425L422.51 332.266L422.33 332.242C425.939 323.706 427.527 314.451 426.971 305.2C426.415 295.949 423.73 286.951 419.126 278.907C414.521 270.864 408.122 263.993 400.425 258.83C392.729 253.666 383.944 250.35 374.756 249.139C365.567 247.928 356.223 248.856 347.452 251.849C338.681 254.843 330.72 259.822 324.189 266.398C317.658 272.974 312.734 280.969 309.801 289.76C306.867 298.552 306.004 307.902 307.278 317.082H307.279Z" fill="#3F3D56"/>
<path d="M374.892 413.585C374.261 413.585 373.631 413.536 373.008 413.44L335.564 407.646C333.186 407.279 330.967 406.225 329.179 404.614C327.392 403.003 326.114 400.905 325.502 398.577L307.141 328.78C306.018 325.585 305.156 322.304 304.562 318.97L304.097 315.917C302.849 306.162 303.885 296.25 307.123 286.965C310.362 277.679 315.714 269.273 322.758 262.41C329.802 255.547 338.344 250.415 347.711 247.42C357.078 244.424 367.013 243.647 376.732 245.149L376.57 246.194C366.957 244.712 357.131 245.498 347.875 248.488C338.62 251.479 330.191 256.591 323.262 263.416C316.332 270.242 311.094 278.593 307.965 287.802C304.836 297.012 303.902 306.825 305.238 316.46L305.595 318.744C306.185 322.049 307.04 325.303 308.152 328.471L326.529 398.31C327.088 400.438 328.257 402.357 329.892 403.83C331.527 405.303 333.556 406.267 335.731 406.603L373.175 412.396C375.488 412.751 377.854 412.381 379.948 411.337C382.042 410.292 383.76 408.624 384.867 406.562L385.799 407.061C384.74 409.032 383.167 410.68 381.246 411.829C379.326 412.978 377.13 413.584 374.892 413.585Z" fill="#D0CDE1"/>
<path d="M384.391 334.404L361.607 396.613L362.891 397.083L385.675 334.875L384.391 334.404Z" fill="#D0CDE1"/>
<path d="M347.192 328.466L345.826 328.526L348.734 394.711L350.1 394.651L347.192 328.466Z" fill="#D0CDE1"/>
<path d="M371.727 450.453L323.747 443.027C323.401 442.959 323.095 442.759 322.892 442.47C322.69 442.181 322.607 441.825 322.661 441.477C322.715 441.128 322.901 440.814 323.182 440.599C323.462 440.385 323.814 440.288 324.165 440.327L372.145 447.753C372.328 447.773 372.505 447.831 372.665 447.921C372.826 448.012 372.966 448.134 373.078 448.281C373.19 448.427 373.271 448.595 373.317 448.774C373.362 448.952 373.371 449.138 373.343 449.321C373.315 449.503 373.25 449.677 373.153 449.834C373.056 449.99 372.927 450.126 372.776 450.231C372.625 450.337 372.455 450.411 372.274 450.449C372.094 450.487 371.908 450.489 371.727 450.453Z" fill="#3F3D56"/>
<path d="M372.957 439.867L324.977 432.441C324.794 432.421 324.617 432.363 324.457 432.272C324.296 432.181 324.156 432.059 324.044 431.912C323.933 431.766 323.852 431.598 323.806 431.42C323.761 431.241 323.752 431.055 323.78 430.873C323.808 430.691 323.873 430.517 323.97 430.36C324.068 430.204 324.196 430.069 324.347 429.963C324.497 429.857 324.668 429.783 324.848 429.745C325.029 429.707 325.215 429.705 325.395 429.741L373.375 437.167C373.722 437.235 374.028 437.435 374.231 437.724C374.433 438.013 374.516 438.369 374.462 438.718C374.408 439.067 374.221 439.381 373.941 439.595C373.66 439.81 373.307 439.907 372.957 439.867Z" fill="#3F3D56"/>
<path d="M374.187 429.283L326.207 421.857C326.024 421.836 325.847 421.779 325.687 421.688C325.527 421.597 325.386 421.474 325.275 421.328C325.163 421.181 325.082 421.014 325.036 420.835C324.991 420.657 324.982 420.471 325.01 420.289C325.039 420.107 325.103 419.932 325.201 419.776C325.298 419.619 325.426 419.484 325.577 419.378C325.728 419.273 325.898 419.199 326.079 419.16C326.259 419.122 326.445 419.121 326.626 419.157L374.605 426.582C374.952 426.651 375.258 426.85 375.461 427.139C375.664 427.428 375.747 427.785 375.693 428.133C375.638 428.482 375.452 428.797 375.171 429.011C374.89 429.225 374.538 429.322 374.187 429.283Z" fill="#3F3D56"/>
<path d="M346.245 456.564C355.762 458.037 364.298 453.926 365.311 447.383L330.847 442.051C329.834 448.594 336.728 455.092 346.245 456.564Z" fill="#3F3D56"/>
<path d="M363.492 319.481C361.445 319.165 359.751 317.547 358.823 316.462C358.518 316.107 358.223 315.738 357.923 315.368C356.841 314.021 355.822 312.75 354.397 312.088C351.259 310.624 347.56 312.669 344.358 314.863L343.585 313.738C347.105 311.324 351.21 309.095 354.976 310.851C356.686 311.649 357.856 313.106 358.988 314.514C359.276 314.873 359.564 315.23 359.859 315.575C360.824 316.701 362.75 318.53 364.813 318.108C365.682 317.855 366.491 317.427 367.19 316.851C367.722 316.454 368.284 316.099 368.871 315.789C370.063 315.218 371.396 315.012 372.704 315.197C374.012 315.382 375.236 315.949 376.222 316.828C376.574 317.161 376.907 317.514 377.22 317.883C377.717 318.581 378.39 319.134 379.17 319.487C380.287 319.844 381.469 319.206 382.721 318.531C384.012 317.834 385.346 317.113 386.86 317.291C386.909 317.297 386.959 317.304 387.01 317.311C389.704 317.728 390.946 320.707 391.649 322.931L390.344 323.342C389.39 320.32 388.227 318.817 386.703 318.649C385.618 318.522 384.528 319.111 383.373 319.734C381.926 320.515 380.428 321.323 378.757 320.79C377.731 320.375 376.843 319.68 376.192 318.785C375.912 318.453 375.614 318.137 375.299 317.837C374.514 317.149 373.545 316.704 372.511 316.558C371.477 316.411 370.423 316.569 369.477 317.012C368.954 317.29 368.452 317.609 367.977 317.964C367.129 318.656 366.143 319.161 365.086 319.446C364.561 319.552 364.021 319.564 363.492 319.481Z" fill="#D0CDE1"/>
<path d="M374.677 734.738L349.036 757.826L372.123 783.467L397.764 760.379L374.677 734.738Z" fill="#253163"/>
<path d="M502.411 700.597C515.668 700.597 526.414 689.851 526.414 676.595C526.414 663.339 515.668 652.593 502.411 652.593C489.155 652.593 478.409 663.339 478.409 676.595C478.409 689.851 489.155 700.597 502.411 700.597Z" fill="#253163"/>
</g>
<defs>
<clipPath id="clip0">
<rect width="654" height="864" fill="white"/>
</clipPath>
</defs>
</svg>
