<svg width="194" height="179" viewBox="0 0 194 179" fill="none" xmlns="http://www.w3.org/2000/svg">
<path d="M141.995 42.4132H141.014V15.549C141.014 13.507 140.612 11.4851 139.831 9.59854C139.049 7.712 137.904 5.99785 136.46 4.55398C135.016 3.1101 133.302 1.96477 131.416 1.1834C129.529 0.402024 127.507 -9.84818e-05 125.465 1.80913e-08H68.5483C66.5064 1.57157e-08 64.4845 0.402191 62.598 1.18361C60.7116 1.96503 58.9975 3.11037 57.5537 4.55424C56.1099 5.99811 54.9647 7.71222 54.1834 9.59871C53.402 11.4852 52.9999 13.5071 53 15.549V162.931C53 167.055 54.6382 171.01 57.5542 173.926C60.4702 176.842 64.4252 178.48 68.5491 178.48H125.466C127.508 178.481 129.53 178.078 131.416 177.297C133.303 176.516 135.017 175.371 136.461 173.927C137.904 172.483 139.05 170.769 139.831 168.882C140.613 166.996 141.015 164.974 141.015 162.932V61.536H141.996L141.995 42.4132Z" fill="#080101"/>
<path d="M126.092 4.04602H118.662C119.004 4.88365 119.134 5.79239 119.042 6.69222C118.949 7.59206 118.637 8.45537 118.133 9.20614C117.628 9.9569 116.947 10.5721 116.148 10.9975C115.35 11.4229 114.459 11.6456 113.555 11.6458H80.9479C80.0434 11.6456 79.1528 11.4229 78.3545 10.9975C77.5562 10.5721 76.8748 9.9569 76.3702 9.20614C75.8657 8.45537 75.5534 7.59206 75.4611 6.69222C75.3687 5.79239 75.499 4.88365 75.8405 4.04602H68.9015C65.822 4.04602 62.8685 5.26937 60.6909 7.44695C58.5134 9.62453 57.29 12.578 57.29 15.6575V162.824C57.29 165.904 58.5134 168.857 60.6909 171.035C62.8685 173.212 65.822 174.436 68.9015 174.436H126.093C129.172 174.436 132.126 173.212 134.303 171.035C136.481 168.857 137.704 165.904 137.704 162.824V15.6575C137.704 12.578 136.481 9.62453 134.303 7.44695C132.126 5.26937 129.172 4.04602 126.093 4.04602H126.092Z" fill="white"/>
<path d="M132.985 119.633H64.4113C64.075 119.631 63.7529 119.497 63.515 119.259C63.2772 119.021 63.143 118.699 63.1416 118.363V101.353C63.143 101.016 63.2772 100.694 63.515 100.456C63.7529 100.219 64.075 100.084 64.4113 100.083H132.985C133.322 100.084 133.644 100.219 133.882 100.456C134.12 100.694 134.254 101.016 134.255 101.353V118.363C134.254 118.699 134.12 119.021 133.882 119.259C133.644 119.497 133.322 119.631 132.985 119.633V119.633ZM64.4113 100.591C64.2093 100.591 64.0156 100.671 63.8728 100.814C63.7299 100.957 63.6496 101.151 63.6494 101.353V118.363C63.6496 118.565 63.7299 118.759 63.8728 118.901C64.0156 119.044 64.2093 119.125 64.4113 119.125H132.985C133.187 119.125 133.381 119.044 133.524 118.901C133.667 118.759 133.747 118.565 133.747 118.363V101.353C133.747 101.151 133.667 100.957 133.524 100.814C133.381 100.671 133.187 100.591 132.985 100.591H64.4113Z" fill="#E6E6E6"/>
<path d="M73.3005 115.191C76.2462 115.191 78.6342 112.803 78.6342 109.858C78.6342 106.912 76.2462 104.524 73.3005 104.524C70.3548 104.524 67.9668 106.912 67.9668 109.858C67.9668 112.803 70.3548 115.191 73.3005 115.191Z" fill="#E6E6E6"/>
<path d="M85.6173 106.302C85.3816 106.302 85.1555 106.396 84.9888 106.562C84.8221 106.729 84.7285 106.955 84.7285 107.191C84.7285 107.427 84.8221 107.653 84.9888 107.819C85.1555 107.986 85.3816 108.08 85.6173 108.08H127.524C127.759 108.083 127.987 107.994 128.156 107.83C128.326 107.666 128.423 107.441 128.427 107.205C128.431 106.97 128.341 106.742 128.177 106.573C128.013 106.403 127.788 106.306 127.553 106.302H85.6173Z" fill="#E6E6E6"/>
<path d="M85.6176 111.636C85.3818 111.636 85.1556 111.73 84.9889 111.897C84.8221 112.063 84.7285 112.29 84.7285 112.525C84.7285 112.761 84.8221 112.987 84.9889 113.154C85.1556 113.321 85.3818 113.414 85.6176 113.414H127.524C127.76 113.418 127.987 113.328 128.157 113.164C128.326 113.001 128.423 112.776 128.427 112.54C128.431 112.305 128.341 112.077 128.177 111.908C128.013 111.738 127.789 111.641 127.553 111.637H85.6176V111.636Z" fill="#E6E6E6"/>
<path d="M132.985 148.078H64.4113C64.075 148.076 63.7529 147.942 63.515 147.704C63.2772 147.467 63.143 147.144 63.1416 146.808V129.801C63.143 129.465 63.2772 129.143 63.515 128.905C63.7529 128.667 64.075 128.533 64.4113 128.531H132.985C133.322 128.533 133.644 128.667 133.882 128.905C134.12 129.143 134.254 129.465 134.255 129.801V146.811C134.253 147.147 134.118 147.468 133.881 147.706C133.643 147.943 133.321 148.077 132.985 148.078V148.078ZM64.4113 129.036C64.2093 129.036 64.0156 129.117 63.8728 129.259C63.7299 129.402 63.6496 129.596 63.6494 129.798V146.808C63.6496 147.01 63.7299 147.204 63.8728 147.347C64.0156 147.49 64.2093 147.57 64.4113 147.57H132.985C133.187 147.57 133.381 147.49 133.524 147.347C133.667 147.204 133.747 147.01 133.747 146.808V129.801C133.747 129.599 133.667 129.405 133.524 129.262C133.381 129.12 133.187 129.039 132.985 129.039L64.4113 129.036Z" fill="#E6E6E6"/>
<path d="M73.3005 143.637C76.2462 143.637 78.6342 141.249 78.6342 138.303C78.6342 135.358 76.2462 132.97 73.3005 132.97C70.3548 132.97 67.9668 135.358 67.9668 138.303C67.9668 141.249 70.3548 143.637 73.3005 143.637Z" fill="#E6E6E6"/>
<path d="M85.6173 134.747C85.3816 134.747 85.1555 134.841 84.9888 135.008C84.8221 135.174 84.7285 135.4 84.7285 135.636C84.7285 135.872 84.8221 136.098 84.9888 136.265C85.1555 136.431 85.3816 136.525 85.6173 136.525H127.524C127.759 136.529 127.987 136.439 128.156 136.275C128.326 136.111 128.423 135.886 128.427 135.651C128.431 135.415 128.341 135.187 128.177 135.018C128.013 134.849 127.788 134.751 127.553 134.747H85.6173Z" fill="#E6E6E6"/>
<path d="M85.6176 140.081C85.3818 140.081 85.1556 140.174 84.9889 140.341C84.8221 140.508 84.7285 140.734 84.7285 140.97C84.7285 141.206 84.8221 141.432 84.9889 141.598C85.1556 141.765 85.3818 141.859 85.6176 141.859H127.524C127.76 141.863 127.987 141.773 128.157 141.609C128.326 141.445 128.423 141.22 128.427 140.985C128.431 140.749 128.341 140.521 128.177 140.352C128.013 140.183 127.789 140.085 127.553 140.081H85.6176V140.081Z" fill="#E6E6E6"/>
<path d="M75.4578 69.0698L75.1113 68.7226L84.2943 59.5396L90.3693 65.6146L102.386 53.5981L106.31 57.5221L117.016 46.8158L117.363 47.1623L106.309 58.2158L102.385 54.2918L90.3723 66.3121L84.2973 60.2371L75.4578 69.0698Z" fill="#6C63FF"/>
<path d="M97.2545 84.3346C90.8582 84.3372 84.7229 81.7989 80.1981 77.2779C75.6733 72.7569 73.1297 66.6237 73.127 60.2274V60.2093C73.127 60.1591 73.127 60.1059 73.127 60.0549C73.1575 55.2896 74.5984 50.64 77.2681 46.6927C79.9377 42.7453 83.7165 39.6768 88.1279 37.8744C92.5392 36.0719 97.3855 35.6161 102.056 36.5644C106.726 37.5127 111.01 39.8228 114.369 43.2031C117.728 46.5835 120.011 50.8828 120.929 55.5588C121.848 60.2349 121.361 65.0782 119.53 69.4779C117.7 73.8776 114.607 77.6368 110.643 80.2812C106.679 82.9256 102.02 84.3368 97.2545 84.3369V84.3369V84.3346ZM97.2545 36.5865C91.0186 36.6004 85.0399 39.0745 80.6178 43.4714C76.1957 47.8682 73.6873 53.8326 73.6377 60.0684C73.6377 60.1224 73.6377 60.1666 73.6377 60.2064C73.6367 64.8792 75.0214 69.4474 77.6167 73.3332C80.212 77.219 83.9014 80.2479 88.2182 82.0368C92.535 83.8257 97.2854 84.2943 101.869 83.3833C106.452 82.4724 110.662 80.2227 113.966 76.9189C117.271 73.6151 119.521 69.4055 120.433 64.8226C121.345 60.2396 120.878 55.4891 119.09 51.1719C117.302 46.8547 114.274 43.1646 110.389 40.5685C106.503 37.9723 101.936 36.5865 97.2628 36.5865H97.2545Z" fill="#E6E6E6"/>
</svg>
