<svg width="179" height="180" viewBox="0 0 179 180" fill="none" xmlns="http://www.w3.org/2000/svg">
<path d="M76.1609 101.813C76.2639 101.858 76.3571 101.922 76.4353 102.002C76.5135 102.082 76.575 102.177 76.6165 102.282C76.6579 102.386 76.6785 102.497 76.6769 102.609C76.6753 102.721 76.6516 102.832 76.6072 102.935L75.4484 105.626L75.5797 105.693L74.7899 107.519L74.6632 107.45L70.5127 117.09C70.3705 117.42 70.1132 117.687 69.7887 117.841C69.4643 117.995 69.0949 118.026 68.7494 117.928L62.2993 116.094C62.1422 116.049 61.9967 115.971 61.8731 115.864C61.7495 115.757 61.6507 115.625 61.5837 115.476C61.5168 115.327 61.4832 115.165 61.4855 115.002C61.4877 114.838 61.5256 114.677 61.5966 114.53L68.1014 101.042C68.2376 100.758 68.4664 100.529 68.7501 100.393C69.0338 100.256 69.3555 100.221 69.6621 100.292L76.0124 101.762C76.0634 101.775 76.1131 101.792 76.1609 101.813V101.813Z" fill="#3F3D56"/>
<path d="M70.7898 101.333L74.1281 102.107C74.1881 102.121 74.2511 102.114 74.3072 102.089C74.3633 102.063 74.4095 102.02 74.4386 101.966V101.966C74.4715 101.904 74.5237 101.855 74.5873 101.826C74.6509 101.797 74.7223 101.79 74.7903 101.806L75.4938 101.969C75.5896 101.991 75.6792 102.034 75.7565 102.095C75.8337 102.156 75.8968 102.233 75.9413 102.321C75.9857 102.408 76.0104 102.505 76.0137 102.603C76.017 102.701 75.9988 102.799 75.9603 102.89L69.9535 116.87C69.8789 117.044 69.7431 117.183 69.572 117.263C69.4009 117.343 69.2065 117.357 69.0258 117.302L62.6177 115.369C62.5356 115.344 62.4599 115.302 62.3956 115.245C62.3313 115.189 62.2801 115.119 62.2454 115.04C62.2108 114.962 62.1935 114.877 62.1949 114.791C62.1962 114.706 62.2162 114.621 62.2533 114.544L68.602 101.142C68.6953 100.944 68.8534 100.784 69.0502 100.688C69.2469 100.593 69.4704 100.567 69.6835 100.617L70.4246 100.788C70.4063 100.908 70.4339 101.03 70.5018 101.13C70.5697 101.23 70.6728 101.3 70.7906 101.328L70.7898 101.333Z" fill="#6C63FF"/>
<path d="M96.8081 29.1436C93.9261 29.1436 91.1088 28.2889 88.7124 26.6878C86.3161 25.0866 84.4484 22.8108 83.3455 20.1482C82.2426 17.4855 81.9541 14.5556 82.5163 11.729C83.0786 8.90232 84.4664 6.30587 86.5043 4.26798C88.5422 2.23008 91.1386 0.842255 93.9653 0.279999C96.7919 -0.282256 99.7218 0.00631349 102.384 1.10922C105.047 2.21212 107.323 4.07981 108.924 6.47613C110.525 8.87245 111.38 11.6897 111.38 14.5718C111.38 18.4364 109.845 22.1428 107.112 24.8756C104.379 27.6083 100.673 29.1436 96.8081 29.1436V29.1436ZM96.8081 0.69375C94.0639 0.69375 91.3813 1.50751 89.0995 3.03211C86.8178 4.55672 85.0394 6.72371 83.9892 9.25904C82.9391 11.7944 82.6643 14.5842 83.1997 17.2757C83.7351 19.9672 85.0565 22.4395 86.997 24.3799C88.9374 26.3204 91.4097 27.6418 94.1012 28.1772C96.7927 28.7126 99.5825 28.4378 102.118 27.3876C104.653 26.3375 106.82 24.5591 108.345 22.2773C109.869 19.9956 110.683 17.313 110.683 14.5688C110.683 10.8889 109.221 7.35973 106.619 4.75766C104.017 2.15559 100.488 0.69375 96.8081 0.69375V0.69375Z" fill="#CCCCCC"/>
<path d="M153.014 42.6746C150.132 42.6746 147.315 41.8199 144.919 40.2188C142.522 38.6176 140.654 36.3418 139.552 33.6791C138.449 31.0165 138.16 28.0866 138.722 25.26C139.285 22.4333 140.672 19.8369 142.71 17.799C144.748 15.7611 147.345 14.3733 150.171 13.811C152.998 13.2487 155.928 13.5373 158.591 14.6402C161.253 15.7431 163.529 17.6108 165.13 20.0071C166.731 22.4034 167.586 25.2208 167.586 28.1028C167.586 31.9674 166.051 35.6738 163.318 38.4066C160.585 41.1393 156.879 42.6746 153.014 42.6746V42.6746ZM153.014 14.2248C150.27 14.2248 147.587 15.0385 145.306 16.5631C143.024 18.0877 141.245 20.2547 140.195 22.79C139.145 25.3254 138.87 28.1152 139.406 30.8067C139.941 33.4982 141.263 35.9704 143.203 37.9109C145.144 39.8514 147.616 41.1728 150.307 41.7082C152.999 42.2436 155.789 41.9688 158.324 40.9186C160.859 39.8685 163.026 38.0901 164.551 35.8083C166.076 33.5266 166.889 30.844 166.889 28.0998C166.889 24.4199 165.427 20.8907 162.825 18.2887C160.223 15.6866 156.694 14.2248 153.014 14.2248V14.2248Z" fill="#CCCCCC"/>
<path d="M126.993 88.8181C124.111 88.8181 121.293 87.9635 118.897 86.3623C116.501 84.7612 114.633 82.4854 113.53 79.8228C112.427 77.1602 112.139 74.2303 112.701 71.4037C113.263 68.577 114.651 65.9806 116.689 63.9427C118.727 61.9049 121.323 60.5171 124.15 59.9548C126.977 59.3926 129.906 59.6811 132.569 60.784C135.232 61.8869 137.507 63.7546 139.109 66.1509C140.71 68.5472 141.564 71.3645 141.564 74.2465C141.564 78.1111 140.029 81.8174 137.296 84.5502C134.564 87.2829 130.857 88.8181 126.993 88.8181V88.8181ZM126.993 60.3685C124.248 60.3685 121.566 61.1823 119.284 62.7069C117.002 64.2315 115.224 66.3984 114.174 68.9338C113.124 71.4691 112.849 74.2588 113.384 76.9503C113.92 79.6418 115.241 82.1141 117.182 84.0545C119.122 85.9949 121.594 87.3164 124.286 87.8518C126.977 88.3871 129.767 88.1124 132.302 87.0622C134.838 86.012 137.005 84.2337 138.529 81.9519C140.054 79.6702 140.868 76.9877 140.868 74.2435C140.868 70.5636 139.406 67.0345 136.804 64.4324C134.202 61.8304 130.673 60.3685 126.993 60.3685V60.3685Z" fill="#CCCCCC"/>
<path d="M161.34 24.1119L163.075 23.7646C162.541 24.3857 161.961 24.9656 161.34 25.4994V25.4994C161.314 25.8459 161.314 26.1939 161.34 26.5404C158.01 40.8347 145.728 34.5204 145.728 34.5204C150.203 34.6246 150.585 32.7857 150.585 32.7857C147.983 32.4039 147.462 30.7036 147.462 30.7036C147.696 30.8268 147.966 30.8594 148.222 30.7953C148.478 30.7313 148.702 30.575 148.85 30.3564C148.086 30.1833 147.414 29.7321 146.965 29.0906C146.516 28.4492 146.322 27.6636 146.421 26.8869C146.922 27.2486 147.508 27.4756 148.122 27.5462C147.81 27.1644 145.173 24.0076 146.772 22.3764C146.772 22.3764 148.714 25.8459 153.815 26.1579L154.162 26.0882C154.103 25.8382 154.079 25.5812 154.092 25.3246C154.092 24.3585 154.476 23.432 155.159 22.7488C155.842 22.0657 156.769 21.6819 157.735 21.6819C160.164 21.6819 160.684 23.0694 160.684 23.0694L162.419 22.0284C162.38 22.0306 162.207 23.7654 161.34 24.1119Z" fill="#3F3D56"/>
<path d="M133.47 66.2658H120.611C120.446 66.2578 120.281 66.2826 120.125 66.3386C119.969 66.3947 119.826 66.4809 119.704 66.5924C119.582 66.7039 119.482 66.8384 119.412 66.9883C119.342 67.1382 119.302 67.3004 119.295 67.4658V80.3531C119.304 80.6997 119.445 81.0298 119.69 81.2753C119.935 81.5209 120.265 81.6632 120.611 81.6731H133.466C133.804 81.6598 134.124 81.5137 134.355 81.2665C134.587 81.0193 134.711 80.6908 134.702 80.3523V67.465C134.705 67.304 134.675 67.144 134.613 66.9951C134.552 66.8461 134.461 66.7113 134.345 66.5989C134.23 66.4865 134.093 66.3989 133.942 66.3415C133.792 66.2841 133.631 66.258 133.47 66.265V66.2658ZM124.072 79.1096H121.864V72.2463H124.072V79.1096ZM123.043 71.203H123.028C122.71 71.201 122.406 71.0731 122.183 70.8474C121.959 70.6218 121.835 70.3167 121.836 69.9991C121.837 69.6816 121.963 69.3773 122.188 69.1531C122.413 68.9289 122.718 68.8031 123.036 68.8031C123.353 68.8031 123.658 68.9289 123.883 69.1531C124.108 69.3773 124.235 69.6816 124.236 69.9991C124.237 70.3167 124.112 70.6218 123.888 70.8474C123.665 71.0731 123.361 71.201 123.043 71.203V71.203ZM132.139 79.1088H129.931V75.3588C129.931 74.4588 129.61 73.8453 128.812 73.8453C128.562 73.8473 128.319 73.9267 128.116 74.0726C127.914 74.2184 127.761 74.4236 127.68 74.6598C127.622 74.8344 127.596 75.0182 127.605 75.2021V79.1111H125.398V72.2478H127.605V73.2026C127.806 72.8549 128.097 72.5678 128.447 72.3714C128.797 72.175 129.194 72.0766 129.595 72.0865C131.044 72.0865 132.14 73.0413 132.141 75.1008L132.139 79.1088Z" fill="#3F3D56"/>
<path fill-rule="evenodd" clip-rule="evenodd" d="M106.335 14.6289C106.334 12.8088 105.812 11.0269 104.831 9.49425C103.849 7.96156 102.449 6.74221 100.796 5.98055C99.1426 5.21889 97.3058 4.94681 95.5029 5.19651C93.7 5.44622 92.0064 6.20724 90.6225 7.38952C89.2387 8.57179 88.2226 10.1258 87.6944 11.8676C87.1663 13.6094 87.1483 15.466 87.6426 17.2177C88.1368 18.9694 89.1226 20.5429 90.4832 21.7518C91.8439 22.9607 93.5225 23.7544 95.3202 24.039V17.3844H92.9007V14.6296H95.3202V12.5297C95.3202 10.1424 96.7452 8.82321 98.9202 8.82321C99.6348 8.83307 100.348 8.89524 101.053 9.00921V11.3537H99.8532C99.6484 11.3265 99.4401 11.3458 99.2438 11.41C99.0475 11.4743 98.8681 11.5819 98.719 11.7249C98.5699 11.8678 98.4549 12.0425 98.3825 12.236C98.3101 12.4294 98.2821 12.6367 98.3007 12.8424V14.6296H100.942L100.521 17.3844H98.3007V24.0405C100.542 23.6862 102.583 22.5435 104.057 20.8181C105.53 19.0927 106.339 16.8979 106.338 14.6289H106.335Z" fill="#3F3D56"/>
<path d="M54.898 174.674H58.864L60.7502 159.374H54.8965L54.898 174.674Z" fill="#FFB8B8"/>
<path d="M66.5137 178.356L54.0479 178.357L54.0475 173.54L61.6967 173.539C62.9742 173.539 64.1993 174.046 65.1027 174.95C66.006 175.853 66.5136 177.078 66.5137 178.356V178.356Z" fill="#2F2E41"/>
<path d="M33.5186 174.674H37.4838L39.3701 159.374H33.5171L33.5186 174.674Z" fill="#FFB8B8"/>
<path d="M45.1348 178.356L32.669 178.357L32.6686 173.54L40.3178 173.539C41.5953 173.539 42.8204 174.046 43.7237 174.95C44.6271 175.853 45.1347 177.078 45.1348 178.356V178.356Z" fill="#2F2E41"/>
<path d="M45.1348 65.9146C49.8411 65.9146 53.6562 62.0994 53.6562 57.3931C53.6562 52.6868 49.8411 48.8716 45.1348 48.8716C40.4285 48.8716 36.6133 52.6868 36.6133 57.3931C36.6133 62.0994 40.4285 65.9146 45.1348 65.9146Z" fill="#FFB8B8"/>
<path d="M74.2734 112.967C74.214 112.495 74.0518 112.042 73.7983 111.639C73.5448 111.237 73.2061 110.895 72.8061 110.637C72.4061 110.38 71.9545 110.213 71.4831 110.149C71.0118 110.085 70.5321 110.125 70.0779 110.267L65.3154 104.558L61.1401 106.605L67.9787 114.573C68.2668 115.32 68.819 115.935 69.5306 116.302C70.2422 116.67 71.0638 116.763 71.8396 116.565C72.6155 116.367 73.2917 115.891 73.7401 115.227C74.1886 114.564 74.3781 113.759 74.2727 112.965L74.2734 112.967Z" fill="#FFB8B8"/>
<path d="M33.2863 118.74C33.4892 118.31 33.5953 117.841 33.5972 117.365C33.5991 116.889 33.4967 116.419 33.2972 115.987C33.0977 115.556 32.8059 115.173 32.4425 114.866C32.0791 114.559 31.6529 114.336 31.1938 114.212L30.2375 106.839L25.6152 106.328L27.1152 116.72C26.9573 117.506 27.0929 118.321 27.4964 119.013C27.8999 119.705 28.5433 120.225 29.3045 120.474C30.0657 120.723 30.8918 120.684 31.6263 120.365C32.3608 120.045 32.9525 119.468 33.2893 118.741L33.2863 118.74Z" fill="#FFB8B8"/>
<path d="M26.8173 114.232C26.4421 114.232 26.0792 114.097 25.7952 113.852C25.5112 113.607 25.3251 113.267 25.2708 112.896L22.9961 97.5752C22.7101 95.6467 22.9412 93.6768 23.6658 91.8669L30.6506 74.4362C30.9359 73.7226 31.4046 73.097 32.0092 72.6226C32.6138 72.1481 33.3329 71.8417 34.0938 71.7343C34.8548 71.6268 35.6306 71.7222 36.3429 72.0106C37.0553 72.2991 37.6788 72.7705 38.1506 73.3771V73.3771C38.6383 74.0018 38.9464 74.7476 39.0418 75.5343C39.1373 76.321 39.0163 77.1188 38.6921 77.8419L35.3996 85.2069C31.7069 93.4694 30.3136 102.576 31.3668 111.564C31.4094 111.927 31.3234 112.293 31.1239 112.599C30.9244 112.905 30.6239 113.131 30.2748 113.238L27.2748 114.158C27.1261 114.204 26.9714 114.227 26.8158 114.227L26.8173 114.232Z" fill="#CCCCCC"/>
<path d="M43.0591 65.9142C41.7767 65.9417 40.5031 65.6976 39.3218 65.1978C38.1405 64.6981 37.0783 63.954 36.205 63.0146C35.3318 62.0751 34.6672 60.9615 34.2549 59.7469C33.8426 58.5323 33.692 57.2442 33.813 55.9673C33.9339 54.6903 34.3237 53.4534 34.9567 52.3379C35.5897 51.2223 36.4516 50.2533 37.4858 49.4945C38.5199 48.7357 39.7029 48.2044 40.957 47.9353C42.2111 47.6663 43.5079 47.6657 44.7623 47.9335C46.6082 46.7191 48.7915 46.1209 50.9986 46.225C52.0962 46.294 53.1549 46.6579 54.0631 47.2783C54.9712 47.8986 55.6952 48.7526 56.1586 49.75C56.9753 51.7848 56.0978 54.4668 54.0676 55.2933C52.7656 55.8236 51.2926 55.5663 49.9066 55.3526C48.5206 55.1388 47.0018 54.9993 45.7928 55.7163C44.5838 56.4333 44.0401 58.3548 45.1231 59.2511C45.697 59.745 46.1069 60.402 46.2981 61.1346C46.4893 61.8673 46.4528 62.6408 46.1933 63.3521C45.6496 64.7599 44.1638 65.8902 43.0591 65.9142Z" fill="#2F2E41"/>
<path d="M32.3633 171.592C32.1547 171.592 31.9483 171.55 31.7561 171.469C31.5639 171.388 31.3899 171.269 31.2443 171.12C31.0988 170.97 30.9846 170.793 30.9086 170.599C30.8326 170.405 30.7963 170.197 30.8018 169.989L32.3176 112.46H32.4826L57.5408 111.914L61.8676 167.854C61.8914 168.195 61.8032 168.534 61.6165 168.82C61.4297 169.105 61.1548 169.322 60.8334 169.438L60.7861 169.447L55.8683 169.747C55.6608 169.818 55.4407 169.843 55.2225 169.823C55.0043 169.803 54.7928 169.737 54.6018 169.629C54.4108 169.522 54.2445 169.375 54.1139 169.199C53.9832 169.023 53.891 168.822 53.8433 168.608L45.8266 132.734C45.8 132.617 45.7331 132.512 45.6375 132.438C45.542 132.364 45.4236 132.325 45.3028 132.329C45.182 132.333 45.0663 132.378 44.9755 132.458C44.8846 132.538 44.8244 132.647 44.8051 132.766L38.8801 170.025C38.8225 170.378 38.6461 170.7 38.3802 170.939C38.1142 171.178 37.7746 171.319 37.4176 171.339L32.4383 171.593L32.3633 171.592Z" fill="#2F2E41"/>
<path d="M39.7384 117.222C36.6199 117.222 33.8967 116.751 32.3929 115.407C31.9136 114.973 31.5494 114.427 31.3326 113.817C31.1159 113.208 31.0535 112.555 31.1509 111.915C31.6857 106.454 30.7594 94.4822 29.8887 85.4011C29.6892 83.2713 29.9152 81.1231 30.5537 79.0815C31.1923 77.0399 32.2305 75.1456 33.6079 73.509C34.933 71.9229 36.5645 70.6205 38.4048 69.6797C40.2451 68.739 42.2563 68.1792 44.3179 68.034C47.1867 67.83 53.9044 67.353 55.9924 72.7013C59.1289 80.7354 57.5952 84.4194 56.1117 87.9827C54.8509 91.0097 53.5474 94.1395 55.1457 100.018C56.0282 103.269 57.0969 106.466 58.3467 109.593C59.2122 111.812 59.6464 112.926 59.2467 113.652C58.9302 114.226 58.1412 114.477 56.7964 114.736C56.3569 114.822 55.7764 114.945 55.0849 115.092C51.5674 115.842 45.0747 117.222 39.7384 117.222Z" fill="#CCCCCC"/>
<path d="M65.3405 112.188H65.3045C65.0798 112.183 64.8589 112.13 64.6568 112.031C64.4547 111.933 64.2763 111.792 64.1337 111.618L55.2973 100.852C53.4107 98.5526 52.1684 95.7936 51.6973 92.8569L48.9778 75.8595C48.8915 75.2886 48.9192 74.7063 49.0595 74.1462C49.1998 73.5861 49.4498 73.0594 49.795 72.5966C50.1402 72.1338 50.5738 71.744 51.0706 71.4499C51.5675 71.1558 52.1177 70.9632 52.6895 70.8832C53.2613 70.8032 53.8433 70.8374 54.4018 70.9838C54.9603 71.1303 55.4842 71.3861 55.9432 71.7364C56.4022 72.0867 56.7871 72.5246 57.0757 73.0247C57.3643 73.5247 57.5508 74.0771 57.6245 74.6498L58.7052 83.6656C59.705 91.9931 62.9347 99.8963 68.0532 106.541L68.6712 107.342C68.8946 107.632 69.0094 107.99 68.9957 108.355C68.982 108.72 68.8406 109.069 68.5962 109.34L66.4962 111.671C66.3505 111.833 66.1723 111.963 65.9732 112.052C65.7742 112.141 65.5586 112.188 65.3405 112.188V112.188Z" fill="#CCCCCC"/>
<path d="M107.696 32.5549C110.905 32.5549 113.506 29.9251 113.506 26.6811C113.506 23.4371 110.905 20.8074 107.696 20.8074C104.487 20.8074 101.886 23.4371 101.886 26.6811C101.886 29.9251 104.487 32.5549 107.696 32.5549Z" fill="#3F3D56"/>
<path d="M108.857 29.8147H107.674V25.3068C107.238 25.7177 106.716 26.0271 106.146 26.2128V25.1275C106.512 24.9926 106.852 24.796 107.151 24.5462C107.491 24.2921 107.75 23.9454 107.897 23.5479H108.857V29.8147Z" fill="#3F3D56"/>
<path d="M107.696 32.5549C110.905 32.5549 113.506 29.9251 113.506 26.6811C113.506 23.4371 110.905 20.8074 107.696 20.8074C104.487 20.8074 101.886 23.4371 101.886 26.6811C101.886 29.9251 104.487 32.5549 107.696 32.5549Z" fill="#6C63FF"/>
<path d="M108.857 29.8147H107.674V25.3068C107.238 25.7177 106.716 26.0271 106.146 26.2128V25.1275C106.512 24.9926 106.852 24.796 107.151 24.5462C107.491 24.2921 107.75 23.9454 107.897 23.5479H108.857V29.8147Z" fill="white"/>
<path d="M163.634 47.2456C166.878 47.2456 169.507 44.6161 169.507 41.3724C169.507 38.1288 166.878 35.4993 163.634 35.4993C160.39 35.4993 157.761 38.1288 157.761 41.3724C157.761 44.6161 160.39 47.2456 163.634 47.2456Z" fill="#3F3D56"/>
<path d="M162.936 42.3328C162.916 42.648 163.005 42.9605 163.188 43.2179C163.254 43.3111 163.34 43.3879 163.44 43.4421C163.54 43.4963 163.651 43.5263 163.765 43.5299C163.865 43.5307 163.964 43.5081 164.055 43.4636C164.145 43.4192 164.224 43.3543 164.284 43.2741C164.444 43.0258 164.517 42.7314 164.492 42.437C164.517 42.1279 164.438 41.8193 164.267 41.5602C164.203 41.4749 164.119 41.4055 164.024 41.3573C163.928 41.3091 163.823 41.2834 163.716 41.2822C163.609 41.2809 163.503 41.3042 163.407 41.3502C163.31 41.3962 163.226 41.4637 163.159 41.5475C162.995 41.7748 162.916 42.053 162.936 42.3328ZM165.487 39.7676L164.398 39.8936C164.39 39.702 164.317 39.519 164.191 39.3745C164.133 39.3185 164.065 39.2748 163.99 39.246C163.915 39.2172 163.835 39.2041 163.755 39.2073C163.635 39.2093 163.517 39.2409 163.413 39.2993C163.308 39.3576 163.219 39.4409 163.155 39.5418C162.938 39.9738 162.831 40.4529 162.844 40.9362C162.965 40.7738 163.123 40.6421 163.304 40.5518C163.486 40.4615 163.686 40.4151 163.888 40.4164C164.118 40.4154 164.345 40.4652 164.554 40.5622C164.762 40.6592 164.947 40.801 165.094 40.9774C165.439 41.379 165.618 41.8964 165.596 42.425C165.624 42.9776 165.435 43.5193 165.071 43.9357C164.886 44.1282 164.661 44.2785 164.412 44.3765C164.163 44.4746 163.896 44.5179 163.629 44.5037C163.362 44.4895 163.101 44.418 162.864 44.2941C162.627 44.1702 162.419 43.9968 162.255 43.7857C161.813 43.0798 161.612 42.2492 161.683 41.4192C161.61 40.5652 161.82 39.711 162.279 38.9875C162.46 38.7499 162.695 38.5585 162.964 38.429C163.233 38.2996 163.529 38.2357 163.828 38.2427C164.232 38.2284 164.628 38.3683 164.933 38.6342C165.246 38.9364 165.443 39.3383 165.491 39.7706L165.487 39.7676Z" fill="#3F3D56"/>
<path d="M163.634 47.2456C166.878 47.2456 169.507 44.6161 169.507 41.3724C169.507 38.1288 166.878 35.4993 163.634 35.4993C160.39 35.4993 157.761 38.1288 157.761 41.3724C157.761 44.6161 160.39 47.2456 163.634 47.2456Z" fill="#6C63FF"/>
<path d="M162.936 42.3328C162.916 42.648 163.005 42.9605 163.188 43.2179C163.254 43.3111 163.34 43.3879 163.44 43.4421C163.54 43.4963 163.651 43.5263 163.765 43.5299C163.865 43.5307 163.964 43.5081 164.055 43.4636C164.145 43.4192 164.224 43.3543 164.284 43.2741C164.444 43.0258 164.517 42.7314 164.492 42.437C164.517 42.1279 164.438 41.8193 164.267 41.5602C164.203 41.4749 164.119 41.4055 164.024 41.3573C163.928 41.3091 163.823 41.2834 163.716 41.2822C163.609 41.2809 163.503 41.3042 163.407 41.3502C163.31 41.3962 163.226 41.4637 163.159 41.5475C162.995 41.7748 162.916 42.053 162.936 42.3328ZM165.487 39.7676L164.398 39.8936C164.39 39.702 164.317 39.519 164.191 39.3745C164.133 39.3185 164.065 39.2748 163.99 39.246C163.915 39.2172 163.835 39.2041 163.755 39.2073C163.635 39.2093 163.517 39.2409 163.413 39.2993C163.308 39.3576 163.219 39.4409 163.155 39.5418C162.938 39.9738 162.831 40.4529 162.844 40.9362C162.965 40.7738 163.123 40.6421 163.304 40.5518C163.486 40.4615 163.686 40.4151 163.888 40.4164C164.118 40.4154 164.345 40.4652 164.554 40.5622C164.762 40.6592 164.947 40.801 165.094 40.9774C165.439 41.379 165.618 41.8964 165.596 42.425C165.624 42.9776 165.435 43.5193 165.071 43.9357C164.886 44.1282 164.661 44.2785 164.412 44.3765C164.163 44.4746 163.896 44.5179 163.629 44.5037C163.362 44.4895 163.101 44.418 162.864 44.2941C162.627 44.1702 162.419 43.9968 162.255 43.7857C161.813 43.0798 161.612 42.2492 161.683 41.4192C161.61 40.5652 161.82 39.711 162.279 38.9875C162.46 38.7499 162.695 38.5585 162.964 38.429C163.233 38.2996 163.529 38.2357 163.828 38.2427C164.232 38.2284 164.628 38.3683 164.933 38.6342C165.246 38.9364 165.443 39.3383 165.491 39.7706L165.487 39.7676Z" fill="white"/>
<path d="M138.916 92.6245C142.16 92.6245 144.789 89.995 144.789 86.7512C144.789 83.5075 142.16 80.8779 138.916 80.8779C135.672 80.8779 133.043 83.5075 133.043 86.7512C133.043 89.995 135.672 92.6245 138.916 92.6245Z" fill="#3F3D56"/>
<path d="M138.189 85.2844C138.184 85.3839 138.198 85.4836 138.231 85.5776C138.264 85.6716 138.315 85.7581 138.382 85.832C138.45 85.8984 138.53 85.9502 138.619 85.984C138.707 86.0178 138.801 86.033 138.896 86.0285C138.992 86.033 139.087 86.0176 139.177 85.9834C139.266 85.9492 139.348 85.8969 139.416 85.8297C139.483 85.7557 139.535 85.669 139.569 85.5746C139.602 85.4801 139.617 85.3799 139.611 85.2799C139.615 85.1833 139.601 85.0867 139.568 84.9957C139.535 84.9048 139.484 84.8214 139.418 84.7504C139.351 84.6836 139.272 84.6315 139.184 84.5973C139.096 84.5631 139.002 84.5475 138.908 84.5516C138.811 84.5468 138.715 84.5622 138.624 84.5968C138.534 84.6314 138.452 84.6845 138.383 84.7526C138.317 84.8239 138.266 84.9077 138.233 84.999C138.199 85.0903 138.185 85.1873 138.189 85.2844V85.2844ZM138.084 87.9096C138.067 88.1832 138.153 88.4531 138.325 88.6664C138.399 88.7531 138.491 88.8225 138.595 88.8695C138.699 88.9166 138.811 88.9402 138.925 88.9387C139.036 88.941 139.146 88.9187 139.247 88.8735C139.348 88.8282 139.438 88.7611 139.51 88.677C139.678 88.4626 139.76 88.1939 139.742 87.9224C139.754 87.6703 139.67 87.423 139.507 87.2308C139.432 87.1456 139.34 87.078 139.236 87.0327C139.132 86.9875 139.02 86.9657 138.906 86.969C138.786 86.9614 138.665 86.985 138.556 87.0376C138.446 87.0901 138.353 87.1698 138.283 87.2691C138.15 87.4574 138.078 87.6826 138.078 87.9134L138.084 87.9096ZM137.954 86.4665C137.688 86.3631 137.462 86.1776 137.31 85.937C137.176 85.7142 137.106 85.4588 137.109 85.1989C137.102 84.9878 137.14 84.7778 137.22 84.5824C137.301 84.387 137.421 84.2107 137.574 84.0648C137.953 83.7753 138.417 83.6184 138.894 83.6184C139.371 83.6184 139.835 83.7753 140.214 84.0648C140.367 84.2101 140.489 84.3863 140.569 84.5817C140.65 84.7772 140.689 84.9875 140.683 85.1989C140.688 85.4679 140.613 85.7325 140.467 85.9583C140.321 86.1842 140.11 86.3609 139.862 86.4658C140.167 86.5793 140.429 86.7856 140.61 87.0556C140.792 87.3257 140.884 87.6459 140.874 87.9711C140.888 88.2271 140.848 88.4831 140.756 88.7224C140.664 88.9617 140.522 89.1788 140.34 89.3594C140.159 89.5401 139.941 89.6801 139.701 89.7704C139.461 89.8606 139.204 89.899 138.948 89.8831C138.461 89.9 137.983 89.7446 137.598 89.4443C137.388 89.273 137.221 89.0549 137.11 88.8074C137 88.56 136.948 88.29 136.961 88.0192C136.958 87.6989 137.041 87.3838 137.201 87.1063C137.376 86.8155 137.642 86.59 137.957 86.4643L137.954 86.4665Z" fill="#3F3D56"/>
<path d="M138.916 92.6245C142.16 92.6245 144.789 89.995 144.789 86.7512C144.789 83.5075 142.16 80.8779 138.916 80.8779C135.672 80.8779 133.043 83.5075 133.043 86.7512C133.043 89.995 135.672 92.6245 138.916 92.6245Z" fill="#6C63FF"/>
<path d="M138.189 85.2844C138.184 85.3839 138.198 85.4836 138.231 85.5776C138.264 85.6716 138.315 85.7581 138.382 85.832C138.45 85.8984 138.53 85.9502 138.619 85.984C138.707 86.0178 138.801 86.033 138.896 86.0285C138.992 86.033 139.087 86.0176 139.177 85.9834C139.266 85.9492 139.348 85.8969 139.416 85.8297C139.483 85.7557 139.535 85.669 139.569 85.5746C139.602 85.4801 139.617 85.3799 139.611 85.2799C139.615 85.1833 139.601 85.0867 139.568 84.9957C139.535 84.9048 139.484 84.8214 139.418 84.7504C139.351 84.6836 139.272 84.6315 139.184 84.5973C139.096 84.5631 139.002 84.5475 138.908 84.5516C138.811 84.5468 138.715 84.5622 138.624 84.5968C138.534 84.6314 138.452 84.6845 138.383 84.7526C138.317 84.8239 138.266 84.9077 138.233 84.999C138.199 85.0903 138.185 85.1873 138.189 85.2844V85.2844ZM138.084 87.9096C138.067 88.1832 138.153 88.4531 138.325 88.6664C138.399 88.7531 138.491 88.8225 138.595 88.8695C138.699 88.9166 138.811 88.9402 138.925 88.9387C139.036 88.941 139.146 88.9187 139.247 88.8735C139.348 88.8282 139.438 88.7611 139.51 88.677C139.678 88.4626 139.76 88.1939 139.742 87.9224C139.754 87.6703 139.67 87.423 139.507 87.2308C139.432 87.1456 139.34 87.078 139.236 87.0327C139.132 86.9875 139.02 86.9657 138.906 86.969C138.786 86.9614 138.665 86.985 138.556 87.0376C138.446 87.0901 138.353 87.1698 138.283 87.2691C138.15 87.4574 138.078 87.6826 138.078 87.9134L138.084 87.9096ZM137.954 86.4665C137.688 86.3631 137.462 86.1776 137.31 85.937C137.176 85.7142 137.106 85.4588 137.109 85.1989C137.102 84.9878 137.14 84.7778 137.22 84.5824C137.301 84.387 137.421 84.2107 137.574 84.0648C137.953 83.7753 138.417 83.6184 138.894 83.6184C139.371 83.6184 139.835 83.7753 140.214 84.0648C140.367 84.2101 140.489 84.3863 140.569 84.5817C140.65 84.7772 140.689 84.9875 140.683 85.1989C140.688 85.4679 140.613 85.7325 140.467 85.9583C140.321 86.1842 140.11 86.3609 139.862 86.4658C140.167 86.5793 140.429 86.7856 140.61 87.0556C140.792 87.3257 140.884 87.6459 140.874 87.9711C140.888 88.2271 140.848 88.4831 140.756 88.7224C140.664 88.9617 140.522 89.1788 140.34 89.3594C140.159 89.5401 139.941 89.6801 139.701 89.7704C139.461 89.8606 139.204 89.899 138.948 89.8831C138.461 89.9 137.983 89.7446 137.598 89.4443C137.388 89.273 137.221 89.0549 137.11 88.8074C137 88.56 136.948 88.29 136.961 88.0192C136.958 87.6989 137.041 87.3838 137.201 87.1063C137.376 86.8155 137.642 86.59 137.957 86.4643L137.954 86.4665Z" fill="white"/>
<path d="M89.4753 179.014H9.3311C9.24189 179.01 9.15772 178.971 9.09606 178.907C9.0344 178.842 9 178.756 9 178.667C9 178.578 9.0344 178.492 9.09606 178.427C9.15772 178.363 9.24189 178.324 9.3311 178.32H89.4753C89.5645 178.324 89.6487 178.363 89.7104 178.427C89.772 178.492 89.8065 178.578 89.8065 178.667C89.8065 178.756 89.772 178.842 89.7104 178.907C89.6487 178.971 89.5645 179.01 89.4753 179.014V179.014Z" fill="#CCCCCC"/>
</svg>
