<svg width="194" height="179" viewBox="0 0 194 179" fill="none" xmlns="http://www.w3.org/2000/svg">
<path d="M172.085 28.8183H42.3203C42.3165 28.6001 42.2273 28.3921 42.0717 28.239C41.9162 28.086 41.7067 28.0002 41.4885 28H36.3758C36.1575 28.0002 35.9481 28.086 35.7925 28.239C35.637 28.3921 35.5477 28.6001 35.544 28.8183H34.2922C34.2885 28.6001 34.1993 28.3921 34.0437 28.239C33.8881 28.086 33.6787 28.0002 33.4605 28H28.3507C28.1325 28.0002 27.9231 28.086 27.7675 28.239C27.612 28.3921 27.5227 28.6001 27.519 28.8183H22.965C20.3222 28.8212 17.7884 29.8724 15.9197 31.7412C14.0509 33.6099 12.9997 36.1437 12.9967 38.7865V38.8847C12.981 38.8847 12.966 38.8802 12.9502 38.8802H12.8332C12.6123 38.8802 12.4003 38.968 12.244 39.1243C12.0878 39.2806 12 39.4925 12 39.7135V49.4635C12 49.6845 12.0878 49.8964 12.244 50.0527C12.4003 50.209 12.6123 50.2967 12.8332 50.2967H12.9502C12.966 50.2967 12.981 50.293 12.9967 50.2922V141.711C12.9997 144.354 14.0509 146.888 15.9197 148.757C17.7884 150.625 20.3222 151.676 22.965 151.679H172.085C174.728 151.676 177.262 150.625 179.131 148.757C180.999 146.888 182.051 144.354 182.054 141.711V38.7865C182.051 36.1437 180.999 33.6099 179.131 31.7412C177.262 29.8724 174.728 28.8212 172.085 28.8183V28.8183ZM179.053 141.711C179.051 143.558 178.316 145.33 177.01 146.636C175.704 147.942 173.933 148.677 172.085 148.679H22.965C21.1176 148.677 19.3463 147.942 18.0399 146.636C16.7335 145.33 15.9987 143.559 15.9967 141.711V38.7865C15.9987 36.9391 16.7335 35.1679 18.0399 33.8617C19.3463 32.5554 21.1176 31.8208 22.965 31.819H172.085C173.933 31.821 175.704 32.5557 177.01 33.8619C178.316 35.1682 179.051 36.9392 179.053 38.7865V141.711Z" fill="#CCCCCC"/>
<path d="M172.086 150.346H22.9648C20.6755 150.343 18.4808 149.433 16.862 147.814C15.2432 146.195 14.3327 144 14.3301 141.711V38.7866C14.3327 36.4973 15.2432 34.3025 16.862 32.6838C18.4808 31.065 20.6755 30.1544 22.9648 30.1519H172.086C174.375 30.1544 176.57 31.065 178.189 32.6838C179.807 34.3025 180.718 36.4973 180.721 38.7866V141.711C180.718 144 179.807 146.195 178.189 147.814C176.57 149.433 174.375 150.343 172.086 150.346V150.346Z" fill="#E6E6E6"/>
<path d="M172.132 143.39H22.92C22.4162 143.39 21.9331 143.189 21.5768 142.833C21.2206 142.477 21.0201 141.994 21.0195 141.49V39.0093C21.0201 38.5054 21.2206 38.0224 21.5768 37.6661C21.9331 37.3098 22.4162 37.1094 22.92 37.1088H172.132C172.636 37.1094 173.119 37.3098 173.475 37.6661C173.831 38.0224 174.032 38.5054 174.032 39.0093V141.49C174.032 141.994 173.831 142.477 173.475 142.833C173.119 143.189 172.636 143.39 172.132 143.39V143.39Z" fill="white"/>
<path d="M17.7075 90.7842C18.1014 90.7842 18.4208 90.4648 18.4208 90.0709C18.4208 89.6769 18.1014 89.3575 17.7075 89.3575C17.3135 89.3575 16.9941 89.6769 16.9941 90.0709C16.9941 90.4648 17.3135 90.7842 17.7075 90.7842Z" fill="white"/>
<path d="M77.1163 50.6686H45.4176C42.9306 50.6714 40.5464 51.6607 38.7881 53.4194C37.0297 55.1782 36.041 57.5626 36.0388 60.0496V62.9146C35.9738 62.8967 35.9054 62.8941 35.8392 62.9071C35.773 62.9202 35.7108 62.9485 35.6574 62.9897C35.6039 63.031 35.5609 63.084 35.5315 63.1448C35.5022 63.2056 35.4874 63.2723 35.4883 63.3398V65.5433C35.4876 65.6107 35.5024 65.6774 35.5318 65.7381C35.5612 65.7988 35.6043 65.8518 35.6576 65.893C35.711 65.9343 35.7732 65.9625 35.8394 65.9756C35.9055 65.9888 35.9738 65.9863 36.0388 65.9686V69.3046C35.9738 69.2867 35.9054 69.2841 35.8392 69.2971C35.773 69.3102 35.7108 69.3384 35.6574 69.3797C35.6039 69.4209 35.5609 69.4741 35.5315 69.5348C35.5022 69.5956 35.4874 69.6623 35.4883 69.7298V75.2378C35.4874 75.3053 35.5022 75.3721 35.5315 75.4328C35.5609 75.4936 35.6039 75.5467 35.6574 75.588C35.7108 75.6292 35.773 75.6575 35.8392 75.6705C35.9054 75.6835 35.9738 75.681 36.0388 75.6631V77.6746C35.9738 77.6567 35.9054 77.6541 35.8392 77.6671C35.773 77.6802 35.7108 77.7084 35.6574 77.7497C35.6039 77.7909 35.5609 77.8441 35.5315 77.9048C35.5022 77.9656 35.4874 78.0323 35.4883 78.0998V83.6078C35.4874 83.6753 35.5022 83.7421 35.5315 83.8028C35.5609 83.8636 35.6039 83.9167 35.6574 83.958C35.7108 83.9992 35.773 84.0275 35.8392 84.0405C35.9054 84.0535 35.9738 84.051 36.0388 84.0331V142.201C36.0416 144.687 37.0306 147.071 38.7888 148.83C40.5471 150.588 42.931 151.577 45.4176 151.58H77.1156C79.6015 151.576 81.9844 150.586 83.7419 148.828C85.4993 147.07 86.4878 144.687 86.4906 142.201V60.0496C86.4884 57.5634 85.5003 55.1796 83.7429 53.421C81.9856 51.6624 79.6025 50.6725 77.1163 50.6686V50.6686ZM84.5121 142.202C84.5105 144.163 83.7309 146.043 82.3443 147.43C80.9577 148.817 79.0775 149.597 77.1163 149.6H45.4176C43.4568 149.597 41.5769 148.817 40.1904 147.431C38.8039 146.044 38.024 144.165 38.0218 142.204V60.0496C38.024 58.0888 38.8039 56.2089 40.1904 54.8224C41.5769 53.4359 43.4568 52.656 45.4176 52.6538H77.1156C79.0764 52.656 80.9563 53.4359 82.3428 54.8224C83.7293 56.2089 84.5092 58.0888 84.5113 60.0496L84.5121 142.202Z" fill="#CCCCCC"/>
<path d="M77.1162 150.698H45.4174C43.1645 150.696 41.0047 149.8 39.4116 148.207C37.8186 146.614 36.9225 144.454 36.9199 142.201V60.0474C36.9225 57.7945 37.8186 55.6347 39.4116 54.0416C41.0047 52.4486 43.1645 51.5525 45.4174 51.5499H77.1155C79.3683 51.5525 81.5282 52.4486 83.1213 54.0416C84.7143 55.6347 85.6104 57.7945 85.613 60.0474V142.201C85.6104 144.454 84.7144 146.613 83.1215 148.206C81.5287 149.799 79.369 150.696 77.1162 150.698V150.698Z" fill="#E6E6E6"/>
<path d="M77.8995 149.376H44.6348C43.1152 149.375 41.6583 148.77 40.5838 147.696C39.5092 146.621 38.9049 145.164 38.9033 143.645V58.6028C38.9049 57.0832 39.5092 55.6263 40.5838 54.5518C41.6583 53.4773 43.1152 52.8729 44.6348 52.8713H48.9728C49.224 52.8715 49.4648 52.9714 49.6424 53.149C49.82 53.3266 49.9198 53.5674 49.92 53.8186C49.9208 54.5605 50.2159 55.2718 50.7405 55.7964C51.2651 56.321 51.9764 56.616 52.7183 56.6168H69.375C70.1169 56.616 70.8282 56.321 71.3528 55.7964C71.8774 55.2718 72.1725 54.5605 72.1732 53.8186C72.1736 53.5675 72.2736 53.3268 72.4511 53.1492C72.6287 52.9716 72.8694 52.8717 73.1205 52.8713H77.8995C79.4191 52.8729 80.876 53.4773 81.9505 54.5518C83.025 55.6263 83.6294 57.0832 83.631 58.6028V143.645C83.6292 145.165 83.0247 146.622 81.9502 147.696C80.8757 148.77 79.419 149.375 77.8995 149.376V149.376Z" fill="white"/>
<path d="M62.6995 54.7998H58.7331C58.6737 54.8022 58.6145 54.7927 58.5589 54.7716C58.5033 54.7506 58.4525 54.7185 58.4096 54.6773C58.3667 54.6362 58.3326 54.5868 58.3093 54.5321C58.286 54.4774 58.2739 54.4186 58.2739 54.3591C58.2739 54.2997 58.286 54.2409 58.3093 54.1862C58.3326 54.1315 58.3667 54.0821 58.4096 54.0409C58.4525 53.9997 58.5033 53.9677 58.5589 53.9466C58.6145 53.9256 58.6737 53.916 58.7331 53.9185H62.6995C62.7589 53.916 62.8182 53.9256 62.8738 53.9466C62.9294 53.9677 62.9801 53.9997 63.023 54.0409C63.0659 54.0821 63.1001 54.1315 63.1234 54.1862C63.1467 54.2409 63.1587 54.2997 63.1587 54.3591C63.1587 54.4186 63.1467 54.4774 63.1234 54.5321C63.1001 54.5868 63.0659 54.6362 63.023 54.6773C62.9801 54.7185 62.9294 54.7506 62.8738 54.7716C62.8182 54.7927 62.7589 54.8022 62.6995 54.7998V54.7998Z" fill="white"/>
<path d="M65.4529 54.6902C65.5747 54.6902 65.6735 54.5915 65.6735 54.4697C65.6735 54.3479 65.5747 54.2491 65.4529 54.2491C65.3312 54.2491 65.2324 54.3479 65.2324 54.4697C65.2324 54.5915 65.3312 54.6902 65.4529 54.6902Z" fill="white"/>
<path d="M65.6768 75.5086L65.7225 76.5338C71.674 76.3555 77.6279 76.791 83.4901 77.8335V76.794C77.6117 75.759 71.6428 75.3282 65.6768 75.5086V75.5086Z" fill="#CCCCCC"/>
<path d="M59.1602 95.5862C59.1197 95.9787 59.0865 96.3735 59.0605 96.7705C59.0065 97.5515 58.9795 98.3385 58.9795 99.1315C58.9842 106.516 61.372 113.702 65.788 119.62C70.2039 125.539 76.4121 129.874 83.4894 131.981V66.2717C76.9896 68.204 71.2088 72.0205 66.8781 77.2385C62.5475 82.4565 59.8616 88.8416 59.1602 95.5862V95.5862Z" fill="#6C63FF"/>
<path d="M42.0576 75.7203C42.4309 75.7203 42.7335 75.4177 42.7335 75.0445C42.7335 74.6712 42.4309 74.3687 42.0576 74.3687C41.6844 74.3687 41.3818 74.6712 41.3818 75.0445C41.3818 75.4177 41.6844 75.7203 42.0576 75.7203Z" fill="#CCCCCC"/>
<path d="M40.6178 102.823C41.3552 102.823 41.9529 102.225 41.9529 101.488C41.9529 100.751 41.3552 100.153 40.6178 100.153C39.8805 100.153 39.2827 100.751 39.2827 101.488C39.2827 102.225 39.8805 102.823 40.6178 102.823Z" fill="#CCCCCC"/>
<path d="M65.751 67.5002C66.285 67.5002 66.7178 67.0673 66.7178 66.5334C66.7178 65.9994 66.285 65.5665 65.751 65.5665C65.217 65.5665 64.7842 65.9994 64.7842 66.5334C64.7842 67.0673 65.217 67.5002 65.751 67.5002Z" fill="#CCCCCC"/>
<path d="M43.7584 121.109C44.1842 121.109 44.5294 120.764 44.5294 120.338C44.5294 119.912 44.1842 119.567 43.7584 119.567C43.3325 119.567 42.9873 119.912 42.9873 120.338C42.9873 120.764 43.3325 121.109 43.7584 121.109Z" fill="#CCCCCC"/>
<path d="M59.337 131.908C59.7985 131.908 60.1726 131.534 60.1726 131.073C60.1726 130.611 59.7985 130.237 59.337 130.237C58.8756 130.237 58.5015 130.611 58.5015 131.073C58.5015 131.534 58.8756 131.908 59.337 131.908Z" fill="#CCCCCC"/>
<path d="M83.6163 46.9786H81.9661V45.3285H81.0818V46.9786H79.4316V47.8637H81.0818V49.5139H81.9661V47.8637H83.6163V46.9786Z" fill="#CCCCCC"/>
<path opacity="0.1" d="M71.6425 96.252C73.2332 96.252 74.5227 94.9624 74.5227 93.3717C74.5227 91.781 73.2332 90.4915 71.6425 90.4915C70.0517 90.4915 68.7622 91.781 68.7622 93.3717C68.7622 94.9624 70.0517 96.252 71.6425 96.252Z" fill="black"/>
<path opacity="0.1" d="M73.0824 116.542C74.6731 116.542 75.9626 115.253 75.9626 113.662C75.9626 112.072 74.6731 110.782 73.0824 110.782C71.4917 110.782 70.2021 112.072 70.2021 113.662C70.2021 115.253 71.4917 116.542 73.0824 116.542Z" fill="black"/>
<path d="M60.3774 95.6063C57.4009 93.7379 54.7569 91.3862 52.5541 88.6479C50.9041 86.4092 50.3116 84.3864 50.8014 82.6367C51.2911 80.8869 52.8467 79.4649 55.4229 78.412C58.7281 77.2188 62.2091 76.5851 65.7227 76.537L65.6769 75.5117C56.5712 75.9197 50.9372 78.3527 49.8137 82.3629C48.6902 86.3732 52.2384 91.3801 59.8052 96.4628C65.9762 100.607 74.2412 104.433 83.4902 107.464V106.382C74.4594 103.395 66.4022 99.6518 60.3774 95.6063Z" fill="#CCCCCC"/>
<path opacity="0.1" d="M60.3765 96.4276C59.959 96.1466 59.5538 95.8661 59.1608 95.5861C59.1203 95.9786 59.087 96.3733 59.061 96.7703C59.3045 96.9403 59.5525 97.1101 59.805 97.2796C65.976 101.423 74.241 105.25 83.4901 108.281V107.201C74.46 104.216 66.402 100.472 60.3765 96.4276Z" fill="black"/>
<path d="M98.5943 79.9007C94.5585 78.7697 90.558 77.8479 86.6768 77.1392V78.1817C90.468 78.8807 94.3748 79.7837 98.3175 80.8884C110.87 84.4067 122.228 89.5337 129.479 94.9547L130.094 94.1297C122.744 88.639 111.263 83.4527 98.5943 79.9007Z" fill="#CCCCCC"/>
<path d="M128.726 99.1314C128.723 93.9707 127.555 88.8773 125.309 84.2308C123.064 79.5843 119.798 75.5045 115.757 72.2955C111.715 69.0865 107.001 66.831 101.967 65.6971C96.9323 64.5632 91.7068 64.5801 86.6797 65.7466V132.514C94.2385 134.273 102.171 133.417 109.179 130.083C116.188 126.75 121.859 121.138 125.264 114.164C125.441 113.804 125.611 113.44 125.774 113.072C127.729 108.685 128.736 103.934 128.729 99.1306L128.726 99.1314Z" fill="#6C63FF"/>
<path d="M95.3618 58.6794C95.5789 58.6794 95.7548 58.5034 95.7548 58.2863C95.7548 58.0693 95.5789 57.8933 95.3618 57.8933C95.1447 57.8933 94.9688 58.0693 94.9688 58.2863C94.9688 58.5034 95.1447 58.6794 95.3618 58.6794Z" fill="#F2F2F2"/>
<path d="M121.935 61.5326C122.426 61.5326 122.825 61.1343 122.825 60.643C122.825 60.1517 122.426 59.7534 121.935 59.7534C121.444 59.7534 121.045 60.1517 121.045 60.643C121.045 61.1343 121.444 61.5326 121.935 61.5326Z" fill="#CCCCCC"/>
<path d="M153.484 99.0049C154.282 99.0049 154.929 98.3581 154.929 97.5602C154.929 96.7624 154.282 96.1156 153.484 96.1156C152.686 96.1156 152.04 96.7624 152.04 97.5602C152.04 98.3581 152.686 99.0049 153.484 99.0049Z" fill="#CCCCCC"/>
<path d="M142.19 75.1135C142.533 75.1135 142.81 74.8361 142.81 74.4939C142.81 74.1518 142.533 73.8744 142.19 73.8744C141.848 73.8744 141.571 74.1518 141.571 74.4939C141.571 74.8361 141.848 75.1135 142.19 75.1135Z" fill="#CCCCCC"/>
<path d="M140.021 95.2509C140.364 95.2509 140.641 94.9736 140.641 94.6314C140.641 94.2892 140.364 94.0118 140.021 94.0118C139.679 94.0118 139.402 94.2892 139.402 94.6314C139.402 94.9736 139.679 95.2509 140.021 95.2509Z" fill="#CCCCCC"/>
<path d="M123.051 136.159H122.015V135.124H121.46V136.159H120.425V136.714H121.46V137.749H122.015V136.714H123.051V136.159Z" fill="#CCCCCC"/>
<path d="M146.938 130.862H146.164V130.088H145.749V130.862H144.976V131.277H145.749V132.051H146.164V131.277H146.938V130.862Z" fill="#CCCCCC"/>
<path opacity="0.1" d="M94.9691 75.1761C96.5598 75.1761 97.8494 73.8866 97.8494 72.2959C97.8494 70.7052 96.5598 69.4156 94.9691 69.4156C93.3784 69.4156 92.0889 70.7052 92.0889 72.2959C92.0889 73.8866 93.3784 75.1761 94.9691 75.1761Z" fill="black"/>
<path opacity="0.1" d="M94.9691 100.702C96.5598 100.702 97.8494 99.4129 97.8494 97.8221C97.8494 96.2314 96.5598 94.9419 94.9691 94.9419C93.3784 94.9419 92.0889 96.2314 92.0889 97.8221C92.0889 99.4129 93.3784 100.702 94.9691 100.702Z" fill="black"/>
<path opacity="0.1" d="M110.416 85.2561C112.007 85.2561 113.296 83.9666 113.296 82.3759C113.296 80.7851 112.007 79.4956 110.416 79.4956C108.825 79.4956 107.536 80.7851 107.536 82.3759C107.536 83.9666 108.825 85.2561 110.416 85.2561Z" fill="black"/>
<path opacity="0.1" d="M119.972 104.761C121.562 104.761 122.852 103.471 122.852 101.88C122.852 100.29 121.562 99.0001 119.972 99.0001C118.381 99.0001 117.091 100.29 117.091 101.88C117.091 103.471 118.381 104.761 119.972 104.761Z" fill="black"/>
<path d="M136.562 100.574C134.79 98.0729 132.602 95.8946 130.093 94.1333L129.479 94.9583C135.193 99.2333 137.854 103.313 136.974 106.456C136.483 108.206 134.929 109.628 132.352 110.681C129.047 111.874 125.566 112.508 122.052 112.556C121.148 112.596 120.221 112.616 119.271 112.616C110.95 112.616 100.918 111.076 90.6613 108.201C89.3163 107.824 87.9878 107.43 86.6758 107.018V108.092C87.8978 108.472 89.1338 108.837 90.3838 109.189C100.734 112.089 110.859 113.642 119.275 113.642C120.239 113.642 121.181 113.622 122.098 113.581C131.203 113.173 136.837 110.74 137.961 106.73C138.483 104.87 138.012 102.798 136.562 100.574Z" fill="#CCCCCC"/>
<path opacity="0.1" d="M122.053 113.377C121.149 113.417 120.222 113.438 119.271 113.438C110.951 113.438 100.918 111.898 90.6613 109.022C89.3163 108.645 87.9878 108.251 86.6758 107.84V108.914C87.8978 109.294 89.1338 109.659 90.3838 110.011C100.734 112.91 110.859 114.464 119.275 114.464C120.239 114.464 121.182 114.444 122.098 114.403C123.205 114.353 124.259 114.274 125.26 114.166C125.437 113.805 125.607 113.441 125.77 113.074C124.607 113.216 123.368 113.317 122.053 113.377Z" fill="black"/>
<path d="M110.405 74.1166C112.479 74.1166 114.161 72.4352 114.161 70.361C114.161 68.2869 112.479 66.6055 110.405 66.6055C108.331 66.6055 106.649 68.2869 106.649 70.361C106.649 72.4352 108.331 74.1166 110.405 74.1166Z" fill="white"/>
<path d="M110.416 64.834C108.992 64.834 107.627 65.3994 106.621 66.4059C105.614 67.4124 105.049 68.7775 105.049 70.201C105.049 73.1649 110.416 82.8984 110.416 82.8984C110.416 82.8984 115.783 73.1649 115.783 70.201C115.783 68.7775 115.217 67.4124 114.211 66.4059C113.204 65.3994 111.839 64.834 110.416 64.834ZM110.416 72.8192C109.924 72.8192 109.443 72.6733 109.034 72.4001C108.625 72.1268 108.306 71.7384 108.118 71.2839C107.93 70.8295 107.881 70.3295 107.977 69.847C108.073 69.3646 108.309 68.9215 108.657 68.5737C109.005 68.2258 109.448 67.989 109.931 67.893C110.413 67.797 110.913 67.8463 111.368 68.0345C111.822 68.2228 112.21 68.5415 112.484 68.9505C112.757 69.3595 112.903 69.8403 112.903 70.3322C112.903 70.9918 112.641 71.6244 112.174 72.0908C111.708 72.5572 111.075 72.8192 110.416 72.8192Z" fill="#3F3D56"/>
<path d="M94.9148 87.7283C96.9889 87.7283 98.6703 86.0469 98.6703 83.9727C98.6703 81.8986 96.9889 80.2172 94.9148 80.2172C92.8406 80.2172 91.1592 81.8986 91.1592 83.9727C91.1592 86.0469 92.8406 87.7283 94.9148 87.7283Z" fill="white"/>
<path d="M94.9266 78.4456C93.5032 78.4456 92.138 79.011 91.1315 80.0175C90.125 81.024 89.5596 82.3891 89.5596 83.8125C89.5596 86.7765 94.9266 96.51 94.9266 96.51C94.9266 96.51 100.294 86.7765 100.294 83.8125C100.294 82.3891 99.7281 81.024 98.7216 80.0175C97.7151 79.011 96.35 78.4456 94.9266 78.4456ZM94.9266 86.4308C94.4347 86.4308 93.9538 86.2849 93.5449 86.0116C93.1359 85.7384 92.8171 85.35 92.6289 84.8955C92.4406 84.4411 92.3914 83.941 92.4874 83.4586C92.5833 82.9762 92.8202 82.533 93.168 82.1852C93.5158 81.8374 93.959 81.6005 94.4414 81.5046C94.9238 81.4086 95.4239 81.4579 95.8783 81.6461C96.3328 81.8343 96.7212 82.1531 96.9944 82.5621C97.2677 82.9711 97.4136 83.4519 97.4136 83.9438C97.4136 84.2704 97.3493 84.5938 97.2243 84.8955C97.0993 85.1973 96.9161 85.4714 96.6852 85.7024C96.4542 85.9333 96.18 86.1165 95.8783 86.2415C95.5766 86.3664 95.2532 86.4308 94.9266 86.4308Z" fill="#3F3D56"/>
<path d="M94.9148 63.5557C96.9889 63.5557 98.6703 61.8743 98.6703 59.8001C98.6703 57.726 96.9889 56.0446 94.9148 56.0446C92.8406 56.0446 91.1592 57.726 91.1592 59.8001C91.1592 61.8743 92.8406 63.5557 94.9148 63.5557Z" fill="white"/>
<path d="M94.9266 54.2732C93.5032 54.2732 92.138 54.8386 91.1315 55.8451C90.125 56.8516 89.5596 58.2167 89.5596 59.6401C89.5596 62.6041 94.9266 72.3375 94.9266 72.3375C94.9266 72.3375 100.294 62.6041 100.294 59.6401C100.294 58.2167 99.7281 56.8516 98.7216 55.8451C97.7151 54.8386 96.35 54.2732 94.9266 54.2732ZM94.9266 62.2583C94.4347 62.2583 93.9538 62.1125 93.5449 61.8392C93.1359 61.566 92.8171 61.1776 92.6289 60.7231C92.4406 60.2687 92.3914 59.7686 92.4874 59.2862C92.5833 58.8038 92.8202 58.3606 93.168 58.0128C93.5158 57.665 93.959 57.4282 94.4414 57.3322C94.9238 57.2362 95.4239 57.2855 95.8783 57.4737C96.3328 57.6619 96.7212 57.9807 96.9944 58.3897C97.2677 58.7987 97.4136 59.2795 97.4136 59.7714C97.4136 60.098 97.3493 60.4214 97.2243 60.7231C97.0993 61.0248 96.9161 61.299 96.6852 61.5299C96.4542 61.7609 96.18 61.9441 95.8783 62.069C95.5766 62.194 95.2532 62.2583 94.9266 62.2583Z" fill="#CCCCCC"/>
<path d="M120.026 92.6573C122.1 92.6573 123.782 90.9758 123.782 88.9017C123.782 86.8275 122.1 85.1461 120.026 85.1461C117.952 85.1461 116.271 86.8275 116.271 88.9017C116.271 90.9758 117.952 92.6573 120.026 92.6573Z" fill="white"/>
<path d="M120.037 83.3739C118.614 83.3739 117.249 83.9393 116.242 84.9458C115.236 85.9523 114.67 87.3175 114.67 88.7409C114.67 91.7049 120.037 101.438 120.037 101.438C120.037 101.438 125.404 91.7049 125.404 88.7409C125.404 87.3175 124.839 85.9523 123.832 84.9458C122.826 83.9393 121.461 83.3739 120.037 83.3739V83.3739ZM120.037 91.3591C119.546 91.3591 119.065 91.2133 118.656 90.94C118.247 90.6667 117.928 90.2783 117.74 89.8239C117.551 89.3694 117.502 88.8694 117.598 88.387C117.694 87.9045 117.931 87.4614 118.279 87.1136C118.627 86.7658 119.07 86.5289 119.552 86.4329C120.035 86.337 120.535 86.3862 120.989 86.5744C121.444 86.7627 121.832 87.0814 122.105 87.4904C122.379 87.8994 122.524 88.3803 122.524 88.8721C122.524 89.5317 122.262 90.1643 121.796 90.6307C121.33 91.0971 120.697 91.3591 120.037 91.3591Z" fill="#CCCCCC"/>
<path d="M71.6814 84.2087C73.7555 84.2087 75.4369 82.5272 75.4369 80.4531C75.4369 78.3789 73.7555 76.6975 71.6814 76.6975C69.6072 76.6975 67.9258 78.3789 67.9258 80.4531C67.9258 82.5272 69.6072 84.2087 71.6814 84.2087Z" fill="white"/>
<path d="M71.6922 74.9252C70.2688 74.9252 68.9037 75.4906 67.8972 76.4971C66.8907 77.5036 66.3252 78.8687 66.3252 80.2921C66.3252 83.2561 71.6922 92.9896 71.6922 92.9896C71.6922 92.9896 77.0593 83.2561 77.0593 80.2921C77.0593 78.8687 76.4938 77.5036 75.4873 76.4971C74.4808 75.4906 73.1157 74.9252 71.6922 74.9252V74.9252ZM71.6922 82.9104C71.2003 82.9104 70.7195 82.7645 70.3105 82.4913C69.9015 82.218 69.5828 81.8296 69.3945 81.3751C69.2063 80.9207 69.157 80.4206 69.253 79.9382C69.349 79.4558 69.5858 79.0127 69.9337 78.6648C70.2815 78.317 70.7246 78.0802 71.207 77.9842C71.6895 77.8882 72.1895 77.9375 72.644 78.1257C73.0984 78.3139 73.4868 78.6327 73.7601 79.0417C74.0334 79.4507 74.1793 79.9315 74.1793 80.4234C74.1793 81.083 73.9172 81.7156 73.4508 82.182C72.9844 82.6484 72.3518 82.9104 71.6922 82.9104Z" fill="#CCCCCC"/>
<path d="M73.0891 104.626C75.1632 104.626 76.8446 102.944 76.8446 100.87C76.8446 98.7961 75.1632 97.1146 73.0891 97.1146C71.0149 97.1146 69.3335 98.7961 69.3335 100.87C69.3335 102.944 71.0149 104.626 73.0891 104.626Z" fill="white"/>
<path d="M73.1004 95.3431C71.677 95.3431 70.3119 95.9086 69.3054 96.9151C68.2989 97.9216 67.7334 99.2867 67.7334 100.71C67.7334 103.674 73.1004 113.408 73.1004 113.408C73.1004 113.408 78.4675 103.674 78.4675 100.71C78.4675 99.2867 77.902 97.9216 76.8955 96.9151C75.889 95.9086 74.5239 95.3431 73.1004 95.3431ZM73.1004 103.328C72.6085 103.328 72.1277 103.182 71.7187 102.909C71.3097 102.636 70.991 102.248 70.8027 101.793C70.6145 101.339 70.5652 100.839 70.6612 100.356C70.7572 99.8738 70.994 99.4306 71.3419 99.0828C71.6897 98.735 72.1328 98.4981 72.6152 98.4022C73.0977 98.3062 73.5977 98.3554 74.0522 98.5437C74.5066 98.7319 74.895 99.0507 75.1683 99.4597C75.4416 99.8686 75.5875 100.349 75.5875 100.841C75.5875 101.501 75.3254 102.134 74.859 102.6C74.3926 103.066 73.76 103.328 73.1004 103.328V103.328Z" fill="#3F3D56"/>
</svg>
