<svg width="179" height="180" viewBox="0 0 179 180" fill="none" xmlns="http://www.w3.org/2000/svg">
<path d="M16.2173 83.2884C16.2173 86.0446 14.6911 88.1026 12.4448 88.1026C12.1097 88.1113 11.7777 88.0357 11.4794 87.8828C11.181 87.7298 10.9258 87.5045 10.7371 87.2274C10.7371 87.2274 10.3306 88.8451 10.2444 89.1593C10.0855 89.6839 9.85321 90.1834 9.55435 90.6428C9.4201 90.5746 9.0646 90.4253 8.72036 90.2843C8.69602 89.7692 8.7376 89.253 8.84411 88.7483C8.97686 88.1776 9.7441 84.9181 9.7441 84.9181C9.59108 84.5683 9.51438 84.1899 9.51911 83.8081C9.51911 82.7679 10.1191 81.9901 10.8691 81.9901C11.0027 81.9884 11.1352 82.0153 11.2576 82.069C11.3799 82.1226 11.4894 82.2018 11.5787 82.3012C11.668 82.4007 11.735 82.518 11.7752 82.6455C11.8154 82.7729 11.8279 82.9075 11.8119 83.0401C11.6759 83.887 11.4689 84.721 11.1931 85.5331C11.1515 85.6977 11.149 85.8697 11.186 86.0354C11.2229 86.2011 11.2982 86.3558 11.4058 86.4871C11.5134 86.6184 11.6503 86.7226 11.8055 86.7914C11.9607 86.8601 12.1298 86.8916 12.2993 86.8831C13.6216 86.8831 14.5133 85.1754 14.5133 83.1496C14.5133 81.6084 13.4821 80.4579 11.6056 80.4579C11.1557 80.4414 10.7071 80.5165 10.2871 80.6788C9.86714 80.841 9.48453 81.0869 9.16255 81.4016C8.84057 81.7163 8.58593 82.0932 8.41412 82.5093C8.24231 82.9255 8.1569 83.3722 8.1631 83.8224C8.14222 84.3224 8.30675 84.8125 8.62511 85.1986C8.68069 85.2453 8.72026 85.3083 8.73828 85.3786C8.7563 85.449 8.75187 85.5232 8.7256 85.5909C8.69185 85.7199 8.61685 86.0296 8.58085 86.1549C8.57513 86.1926 8.5605 86.2284 8.53815 86.2594C8.5158 86.2904 8.48639 86.3155 8.45236 86.3329C8.41833 86.3502 8.38067 86.3591 8.34249 86.3589C8.30431 86.3587 8.26673 86.3495 8.23285 86.3319C7.75278 86.0791 7.35961 85.6881 7.10423 85.2094C6.84884 84.7307 6.74298 84.1864 6.80036 83.6469C6.80036 81.6519 8.47585 79.2594 11.7961 79.2594C12.3523 79.2278 12.9092 79.3075 13.4342 79.4939C13.9591 79.6803 14.4417 79.9696 14.8534 80.3448C15.2652 80.72 15.5979 81.1736 15.8321 81.6791C16.0663 82.1846 16.1973 82.7317 16.2173 83.2884V83.2884Z" fill="#6C63FF"/>
<path d="M167.518 46.4551H162.917C162.071 46.4509 161.258 46.7814 160.654 47.3745C160.051 47.9676 159.707 48.7752 159.697 49.6211V54.1433C159.707 54.9891 160.051 55.7965 160.654 56.3894C161.258 56.9823 162.071 57.3124 162.917 57.3078H167.518C168.364 57.3124 169.178 56.9823 169.781 56.3894C170.384 55.7965 170.728 54.9891 170.739 54.1433V49.6211C170.729 48.7752 170.384 47.9674 169.781 47.3743C169.178 46.7811 168.364 46.4507 167.518 46.4551V46.4551ZM165.217 53.691C164.861 53.6848 164.514 53.5735 164.221 53.371C163.928 53.1685 163.701 52.8838 163.569 52.5528C163.436 52.2218 163.405 51.8591 163.478 51.5103C163.551 51.1614 163.726 50.842 163.98 50.5921C164.235 50.3422 164.557 50.173 164.907 50.1056C165.257 50.0382 165.619 50.0757 165.948 50.2134C166.276 50.3511 166.557 50.5828 166.755 50.8795C166.952 51.1762 167.058 51.5247 167.058 51.8811C167.053 52.365 166.857 52.8272 166.512 53.1665C166.167 53.5058 165.701 53.6944 165.217 53.691V53.691ZM168.209 49.6211C168.051 49.6194 167.898 49.563 167.777 49.4616C167.657 49.3601 167.574 49.2199 167.545 49.0648C167.516 48.9097 167.542 48.7492 167.617 48.6108C167.693 48.4724 167.815 48.3645 167.961 48.3055C168.107 48.2465 168.27 48.2401 168.42 48.2874C168.571 48.3346 168.701 48.4326 168.787 48.5646C168.874 48.6967 168.912 48.8546 168.895 49.0115C168.878 49.1685 168.807 49.3147 168.695 49.4254C168.631 49.4888 168.555 49.5387 168.471 49.5723C168.388 49.606 168.299 49.6226 168.209 49.6211Z" fill="#6C63FF"/>
<path d="M103.753 155.867H51.9981C50.8326 155.87 49.6901 155.541 48.7049 154.919C47.9151 154.427 47.2622 153.744 46.8066 152.932C46.351 152.121 46.1075 151.208 46.0986 150.278V29.5953C46.1418 28.0722 46.7869 26.6284 47.8925 25.5799C48.9981 24.5315 50.4742 23.964 51.9974 24.0018H64.1609V25.1118C64.1962 26.2837 64.6945 27.3939 65.5466 28.1992C66.3988 29.0046 67.5353 29.4394 68.7074 29.4085H85.8539C86.8191 29.414 87.7624 29.1203 88.5539 28.5678C89.115 28.1807 89.5755 27.6651 89.8968 27.0639C90.2182 26.4627 90.3911 25.7934 90.4012 25.1118V24.0018H103.751C105.274 23.964 106.75 24.5315 107.856 25.5799C108.962 26.6284 109.607 28.0722 109.65 29.5953V150.277C109.645 151.097 109.456 151.905 109.096 152.642C108.737 153.379 108.216 154.025 107.572 154.533C106.489 155.401 105.141 155.871 103.753 155.867V155.867ZM51.9981 24.3423C50.5657 24.3045 49.1766 24.8357 48.1347 25.8196C47.0929 26.8035 46.4833 28.16 46.4391 29.5923V150.277C46.4479 151.15 46.677 152.007 47.105 152.769C47.533 153.53 48.1463 154.171 48.8879 154.632C49.8184 155.22 50.8974 155.531 51.9981 155.527H103.753C105.065 155.532 106.338 155.088 107.362 154.269C107.965 153.793 108.454 153.187 108.792 152.496C109.129 151.805 109.307 151.047 109.312 150.278V29.5953C109.268 28.163 108.658 26.8065 107.616 25.8226C106.574 24.8387 105.185 24.3075 103.753 24.3453H90.7402V25.1155C90.7297 25.8519 90.5434 26.5752 90.1966 27.2249C89.8498 27.8746 89.3527 28.432 88.7467 28.8505C87.8985 29.442 86.8879 29.7564 85.8539 29.7505H68.7074C67.4452 29.7814 66.2223 29.3107 65.3064 28.4417C64.3906 27.5727 63.8565 26.3761 63.8211 25.114V24.3423H51.9981Z" fill="#3F3D56"/>
<path d="M105.452 34.2615V144.408C105.452 145.721 104.93 146.98 104.002 147.909C103.074 148.837 101.815 149.358 100.502 149.358H55.7855C55.1351 149.359 54.4909 149.232 53.8899 148.984C53.2888 148.735 52.7427 148.371 52.2829 147.911C51.823 147.451 51.4584 146.905 51.21 146.304C50.9617 145.703 50.8344 145.059 50.8355 144.408V34.2615C50.8355 32.9487 51.357 31.6897 52.2853 30.7614C53.2136 29.833 54.4726 29.3115 55.7855 29.3115H62.477V30.1695C62.477 31.2505 62.9063 32.2872 63.6706 33.0516C64.4349 33.816 65.4715 34.2456 66.5524 34.2458H89.2954C90.1655 34.2477 91.013 33.9689 91.7119 33.4508C91.8533 33.3479 91.9874 33.2354 92.1132 33.114C92.5113 32.734 92.828 32.277 93.0442 31.7709C93.2604 31.2647 93.3716 30.7199 93.3709 30.1695V29.3115H100.503C101.815 29.3115 103.075 29.833 104.003 30.7614C104.931 31.6897 105.453 32.9487 105.453 34.2615H105.452Z" fill="#F2F2F2"/>
<path d="M93.1641 117.767H63.2773V85.5916H93.1641V117.767ZM63.6606 117.383H92.7793V85.9718H63.6606V117.383Z" fill="#3F3D56"/>
<path d="M86.818 52.6182H67.1973V53.0012H86.818V52.6182Z" fill="#3F3D56"/>
<path d="M86.818 57.8335H67.1973V58.2166H86.818V57.8335Z" fill="#3F3D56"/>
<path d="M86.818 63.0498H67.1973V63.4329H86.818V63.0498Z" fill="#3F3D56"/>
<path d="M61.2864 155.91L61.1041 155.842C61.0644 155.827 57.0751 154.298 55.2069 150.833C53.3387 147.368 54.2536 143.196 54.2626 143.154L54.3054 142.964L54.4876 143.033C54.5274 143.048 58.5166 144.576 60.3849 148.041C62.2531 151.506 61.3381 155.678 61.3291 155.72L61.2864 155.91ZM55.5061 150.672C57.0856 153.601 60.2379 155.104 61.0366 155.446C61.1866 154.591 61.6644 151.129 60.0864 148.202C58.5084 145.275 55.3554 143.771 54.5559 143.428C54.4059 144.284 53.9281 147.746 55.5061 150.672Z" fill="#3F3D56"/>
<path d="M56.6369 149.619C59.9947 151.64 61.287 155.652 61.287 155.652C61.287 155.652 57.1357 156.389 53.7779 154.369C50.4202 152.348 49.1279 148.336 49.1279 148.336C49.1279 148.336 53.2769 147.599 56.6369 149.619Z" fill="#6C63FF"/>
<path d="M82.9446 98.1878C82.9513 98.3183 82.9543 98.4526 82.9543 98.5861C82.9623 99.7413 82.7406 100.887 82.3022 101.955C81.8639 103.024 81.2175 103.995 80.4006 104.812C79.5838 105.629 78.6128 106.275 77.544 106.714C76.4752 107.152 75.33 107.374 74.1748 107.366C72.4999 107.369 70.8602 106.885 69.4565 105.971C69.7004 106.001 69.9459 106.016 70.1916 106.016C71.5801 106.019 72.929 105.554 74.021 104.696C73.3773 104.684 72.7536 104.47 72.237 104.086C71.7204 103.702 71.3367 103.166 71.1395 102.553C71.3311 102.59 71.5257 102.608 71.7208 102.608C71.9944 102.609 72.2669 102.573 72.5308 102.5C71.8324 102.359 71.2042 101.981 70.7531 101.43C70.3019 100.878 70.0556 100.187 70.0558 99.4749V99.4389C70.4848 99.6793 70.9659 99.8117 71.4575 99.8244C70.8041 99.3881 70.3412 98.7195 70.1627 97.9544C69.9843 97.1892 70.1037 96.3848 70.4968 95.7045C71.27 96.6584 72.2356 97.4386 73.3305 97.9943C74.4254 98.5499 75.6252 98.8686 76.8516 98.9296C76.7999 98.6979 76.7748 98.4612 76.7766 98.2238C76.7757 97.6051 76.9611 97.0005 77.3086 96.4887C77.6562 95.9769 78.1498 95.5815 78.7251 95.3541C79.3005 95.1267 79.931 95.0778 80.5345 95.2137C81.1381 95.3497 81.6867 95.6642 82.109 96.1163C82.8006 95.9803 83.4638 95.7266 84.0696 95.3663C83.8383 96.0806 83.3567 96.6874 82.7135 97.0748C83.3235 97.0001 83.9191 96.8361 84.4813 96.588C84.0683 97.2085 83.5479 97.7503 82.9446 98.1878V98.1878Z" fill="#6C63FF"/>
<path d="M78.2407 114.622C75.8163 114.622 73.4463 113.903 71.4304 112.556C69.4145 111.209 67.8433 109.295 66.9154 107.055C65.9874 104.815 65.7445 102.351 66.2173 99.9727C66.69 97.5949 67.8573 95.4106 69.5714 93.696C71.2855 91.9815 73.4695 90.8138 75.8473 90.3404C78.2251 89.8671 80.6898 90.1094 82.9298 91.0368C85.1699 91.9641 87.0846 93.5349 88.432 95.5504C89.7794 97.566 90.4989 99.9358 90.4995 102.36C90.4998 103.97 90.1831 105.565 89.5672 107.052C88.9513 108.54 88.0484 109.892 86.91 111.03C85.7716 112.169 84.4201 113.072 82.9326 113.688C81.4451 114.305 79.8508 114.622 78.2407 114.622V114.622ZM78.2407 90.4443C75.8832 90.4443 73.5787 91.1434 71.6185 92.4532C69.6584 93.763 68.1307 95.6246 67.2287 97.8027C66.3266 99.9808 66.0908 102.377 66.5509 104.69C67.0111 107.002 68.1465 109.125 69.8137 110.792C71.4809 112.459 73.605 113.594 75.9172 114.053C78.2295 114.513 80.6261 114.277 82.804 113.374C84.9818 112.471 86.8431 110.943 88.1525 108.983C89.4618 107.022 90.1603 104.718 90.1597 102.36C90.1589 99.1996 88.9028 96.1687 86.6676 93.9341C84.4325 91.6996 81.4013 90.4443 78.2407 90.4443V90.4443ZM75.4484 108.646C73.7403 108.648 72.0685 108.153 70.6372 107.221L70.0274 106.824L70.7497 106.91C70.9871 106.938 71.226 106.953 71.4652 106.953C72.6642 106.958 73.8369 106.601 74.8304 105.93C74.2375 105.834 73.6826 105.576 73.2273 105.184C72.7721 104.792 72.4342 104.282 72.2512 103.71L72.1634 103.434L72.4469 103.492C72.6501 103.532 72.8571 103.55 73.0642 103.545C72.4971 103.285 72.0165 102.867 71.6792 102.342C71.3418 101.817 71.1619 101.207 71.1607 100.583V100.26L71.4134 100.402C71.6485 100.534 71.901 100.631 72.1634 100.692C71.6461 100.185 71.3124 99.5208 71.215 98.8033C71.1176 98.0857 71.2621 97.3562 71.6257 96.7299L71.7494 96.5169L71.9047 96.7082C72.6407 97.614 73.5534 98.3605 74.5873 98.902C75.6212 99.4436 76.7545 99.7689 77.9182 99.8582C77.8913 99.686 77.878 99.512 77.8784 99.3377C77.8776 98.6931 78.0685 98.0628 78.4267 97.5268C78.7849 96.9909 79.2944 96.5736 79.8903 96.3278C80.4863 96.0821 81.1418 96.0191 81.7737 96.1468C82.4055 96.2745 82.9852 96.5871 83.4389 97.045C84.0783 96.9096 84.691 96.6699 85.2524 96.3354L85.6364 96.1105L85.5007 96.5364C85.3349 97.0554 85.0409 97.5242 84.6457 97.8992C85.0018 97.814 85.3495 97.6968 85.6844 97.5489L86.2184 97.3127L85.8944 97.7987C85.4872 98.4099 84.9781 98.9467 84.3892 99.3857C84.3929 99.4899 84.3952 99.5949 84.3952 99.7007C84.4062 100.879 84.1823 102.047 83.7366 103.137C83.2909 104.228 82.6322 105.218 81.7992 106.051C80.9662 106.884 79.9755 107.542 78.8851 107.988C77.7947 108.433 76.6263 108.657 75.4484 108.646V108.646ZM71.4239 107.296C72.7344 107.995 74.2037 108.342 75.6884 108.304C77.1731 108.265 78.6225 107.843 79.8951 107.077C81.1677 106.311 82.2201 105.229 82.9495 103.935C83.679 102.641 84.0605 101.181 84.057 99.6954C84.057 99.5642 84.057 99.4337 84.0472 99.3054L84.0427 99.2132L84.1177 99.1592C84.5484 98.8474 84.9365 98.4805 85.2719 98.0679C84.8604 98.2058 84.436 98.3018 84.0052 98.3544L83.2109 98.4519L83.8972 98.0402C84.37 97.7577 84.7535 97.3475 85.0034 96.8567C84.5007 97.1063 83.9667 97.2872 83.4157 97.3945L83.3235 97.4124L83.259 97.3442C82.8599 96.9169 82.3414 96.6197 81.7711 96.4912C81.2008 96.3627 80.6049 96.4089 80.0612 96.6238C79.5175 96.8386 79.0511 97.2122 78.7226 97.6958C78.3942 98.1795 78.2189 98.7508 78.2197 99.3354C78.2187 99.5588 78.2439 99.7816 78.2947 99.9992L78.3472 100.22L78.1222 100.208C76.9153 100.147 75.7334 99.8414 74.6481 99.3101C73.5628 98.7787 72.5966 98.0326 71.8079 97.117C71.5089 97.7501 71.4474 98.4696 71.6348 99.1443C71.8222 99.8189 72.246 100.404 72.8287 100.792L73.3154 101.117L72.7297 101.102C72.3101 101.091 71.8967 100.998 71.5132 100.827C71.5669 101.456 71.8223 102.05 72.2413 102.521C72.6603 102.993 73.2204 103.316 73.8382 103.443L74.5439 103.585L73.8487 103.774C73.4659 103.878 73.0674 103.911 72.6727 103.872C72.8945 104.387 73.2601 104.827 73.7257 105.14C74.1912 105.452 74.737 105.624 75.2977 105.634L75.7747 105.643L75.3997 105.937C74.2792 106.821 72.892 107.3 71.4644 107.294H71.4224L71.4239 107.296Z" fill="#3F3D56"/>
<path d="M167.087 54.8795C166.697 54.8732 166.318 54.7519 165.996 54.5308C165.675 54.3096 165.426 53.9985 165.281 53.6364C165.136 53.2744 165.102 52.8775 165.182 52.4958C165.261 52.1141 165.452 51.7645 165.73 51.4909C166.008 51.2173 166.361 51.032 166.744 50.9581C167.127 50.8843 167.523 50.9253 167.883 51.0759C168.242 51.2266 168.55 51.4802 168.766 51.8048C168.982 52.1295 169.097 52.5108 169.097 52.9008C169.097 53.1633 169.045 53.4232 168.943 53.6653C168.842 53.9075 168.693 54.127 168.506 54.3112C168.319 54.4953 168.097 54.6404 167.854 54.738C167.61 54.8355 167.349 54.8836 167.087 54.8795V54.8795ZM167.087 51.2619C166.764 51.2681 166.45 51.3695 166.185 51.5533C165.92 51.7371 165.715 51.9952 165.595 52.2951C165.476 52.5951 165.448 52.9236 165.515 53.2394C165.582 53.5552 165.74 53.8443 165.971 54.0703C166.201 54.2964 166.493 54.4494 166.81 54.5101C167.127 54.5708 167.455 54.5366 167.753 54.4117C168.05 54.2868 168.304 54.0767 168.483 53.8079C168.662 53.5392 168.757 53.2236 168.757 52.9008C168.752 52.4621 168.574 52.0433 168.261 51.736C167.948 51.4288 167.526 51.2583 167.087 51.2619V51.2619Z" fill="#3F3D56"/>
<path d="M169.387 57.5918H164.787C164.135 57.5923 163.509 57.3364 163.044 56.8793C162.813 56.6565 162.63 56.3894 162.505 56.0942C162.38 55.799 162.316 55.4816 162.317 55.1611V50.6402C162.317 50.32 162.382 50.003 162.506 49.7081C162.631 49.4131 162.813 49.1461 163.043 48.9227C163.507 48.4631 164.134 48.2066 164.787 48.2095H169.388C170.04 48.2089 170.666 48.4648 171.131 48.922C171.361 49.1448 171.544 49.4118 171.669 49.7071C171.794 50.0023 171.858 50.3197 171.858 50.6402V55.1596C171.857 55.4798 171.793 55.7967 171.668 56.0917C171.544 56.3867 171.361 56.6537 171.132 56.877C170.902 57.1049 170.63 57.2853 170.33 57.4079C170.031 57.5306 169.711 57.593 169.387 57.5918V57.5918ZM164.787 48.5492C164.223 48.5465 163.682 48.7678 163.281 49.1642C163.084 49.3561 162.927 49.5856 162.82 49.839C162.712 50.0925 162.656 50.3649 162.656 50.6402V55.1596C162.655 55.4348 162.71 55.7073 162.818 55.9608C162.925 56.2142 163.082 56.4435 163.28 56.6348C163.682 57.0298 164.223 57.2509 164.786 57.2505H169.386C169.95 57.2531 170.491 57.0319 170.892 56.6355C171.089 56.4436 171.246 56.2142 171.353 55.9607C171.461 55.7073 171.517 55.4349 171.517 55.1596V50.6387C171.518 50.3634 171.463 50.0909 171.355 49.8374C171.248 49.5839 171.09 49.3547 170.892 49.1635C170.491 48.7684 169.95 48.5473 169.386 48.5477L164.787 48.5492ZM167.087 55.7836C166.519 55.7743 165.966 55.5973 165.498 55.2749C165.03 54.9525 164.668 54.4991 164.457 53.9715C164.246 53.444 164.196 52.8659 164.312 52.3098C164.429 51.7537 164.707 51.2445 165.112 50.846C165.517 50.4475 166.031 50.1776 166.589 50.0701C167.147 49.9627 167.724 50.0225 168.248 50.242C168.772 50.4615 169.22 50.831 169.534 51.304C169.849 51.777 170.017 52.3325 170.017 52.9006C170.017 53.2832 169.941 53.662 169.793 54.0149C169.645 54.3678 169.429 54.6877 169.156 54.9561C168.883 55.2244 168.56 55.4358 168.205 55.5778C167.849 55.7199 167.469 55.7898 167.087 55.7836ZM167.087 50.3582C166.586 50.3675 166.099 50.5245 165.687 50.8096C165.275 51.0946 164.956 51.495 164.771 51.9604C164.586 52.4259 164.542 52.9357 164.646 53.4259C164.749 53.9161 164.995 54.3648 165.352 54.7157C165.71 55.0667 166.163 55.3043 166.655 55.3986C167.147 55.493 167.656 55.4399 168.118 55.2461C168.58 55.0523 168.974 54.7264 169.252 54.3093C169.529 53.8921 169.677 53.4024 169.677 52.9014C169.67 52.2209 169.393 51.5711 168.907 51.0945C168.422 50.6179 167.767 50.3534 167.086 50.359L167.087 50.3582ZM170.077 50.8082C169.91 50.8058 169.747 50.7541 169.609 50.6594C169.471 50.5648 169.364 50.4315 169.302 50.2763C169.24 50.1211 169.225 49.951 169.259 49.7872C169.293 49.6235 169.374 49.4735 169.494 49.3561C169.613 49.2386 169.764 49.159 169.928 49.1273C170.092 49.0955 170.262 49.113 170.416 49.1775C170.571 49.242 170.703 49.3508 170.795 49.49C170.888 49.6292 170.937 49.7927 170.937 49.96C170.937 50.0724 170.915 50.1837 170.872 50.2874C170.828 50.3911 170.765 50.4851 170.685 50.564C170.605 50.643 170.51 50.7052 170.405 50.7471C170.301 50.789 170.19 50.8098 170.077 50.8082V50.8082ZM170.077 49.4515C169.977 49.4537 169.88 49.4854 169.798 49.5426C169.716 49.5998 169.652 49.68 169.615 49.773C169.579 49.8661 169.57 49.968 169.591 50.0659C169.612 50.1638 169.661 50.2533 169.733 50.3233C169.804 50.3933 169.895 50.4406 169.993 50.4593C170.092 50.4781 170.193 50.4674 170.285 50.4286C170.378 50.3898 170.457 50.3246 170.512 50.2413C170.567 50.1579 170.597 50.0601 170.597 49.96C170.595 49.8237 170.539 49.6938 170.441 49.5986C170.344 49.5035 170.213 49.4508 170.076 49.4522L170.077 49.4515Z" fill="#3F3D56"/>
<path d="M166.967 63.8947C164.819 63.8579 162.73 63.1874 160.962 61.9673C159.194 60.7472 157.826 59.032 157.029 57.0369C156.233 55.0419 156.044 52.8561 156.485 50.7539C156.927 48.6516 157.98 46.7267 159.512 45.2209C161.044 43.7151 162.987 42.6954 165.096 42.2899C167.206 41.8845 169.388 42.1113 171.369 42.9419C173.35 43.7726 175.042 45.17 176.231 46.9587C177.421 48.7474 178.055 50.8477 178.055 52.9958C178.026 55.9104 176.843 58.6946 174.764 60.7378C172.686 62.781 169.882 63.9163 166.967 63.8947V63.8947ZM166.967 42.4359C164.886 42.4727 162.863 43.1233 161.151 44.306C159.439 45.4888 158.114 47.151 157.343 49.0839C156.573 51.0168 156.39 53.1343 156.819 55.1707C157.247 57.207 158.268 59.0713 159.752 60.5296C161.237 61.988 163.119 62.9753 165.162 63.3676C167.206 63.76 169.32 63.5399 171.239 62.735C173.158 61.9301 174.796 60.5762 175.949 58.8434C177.101 57.1106 177.715 55.076 177.715 52.9951C177.687 50.1706 176.539 47.4728 174.524 45.4933C172.509 43.5138 169.791 42.4143 166.967 42.4359V42.4359ZM169.386 58.4955H164.785C163.894 58.5019 163.036 58.1544 162.4 57.5293C161.765 56.9042 161.403 56.0525 161.394 55.161V50.6401C161.403 49.7486 161.765 48.8969 162.4 48.2718C163.036 47.6467 163.894 47.2992 164.785 47.3056H169.386C170.277 47.2992 171.135 47.6467 171.771 48.2718C172.406 48.8969 172.768 49.7486 172.776 50.6401V55.161C172.768 56.0523 172.406 56.9037 171.771 57.5288C171.136 58.1539 170.278 58.5015 169.387 58.4955H169.386ZM164.785 47.6446C163.984 47.6382 163.213 47.9499 162.641 48.5113C162.069 49.0727 161.743 49.838 161.734 50.6393V55.1603C161.743 55.9617 162.069 56.727 162.641 57.2884C163.213 57.8497 163.984 58.1614 164.785 58.155H169.386C170.187 58.1614 170.958 57.8497 171.53 57.2884C172.102 56.727 172.428 55.9617 172.437 55.1603V50.6401C172.428 49.8387 172.102 49.0734 171.53 48.512C170.958 47.9506 170.187 47.639 169.386 47.6454L164.785 47.6446Z" fill="#3F3D56"/>
<path d="M12.132 96.5853C9.74141 96.5966 7.40125 95.898 5.40804 94.5781C3.41483 93.2582 1.85828 91.3763 0.935603 89.1709C0.0129283 86.9655 -0.234344 84.5359 0.225115 82.1898C0.684575 79.8438 1.83009 77.6869 3.51652 75.9924C5.20295 74.298 7.35439 73.1423 9.69825 72.6718C12.0421 72.2012 14.4729 72.437 16.6827 73.3492C18.8924 74.2615 20.7816 75.8091 22.111 77.796C23.4403 79.7829 24.15 82.1198 24.15 84.5104C24.1536 87.7041 22.8904 90.7689 20.6374 93.0325C18.3845 95.2961 15.3257 96.5738 12.132 96.5853V96.5853ZM12.132 72.7714C9.80803 72.7597 7.53288 73.4381 5.59486 74.7207C3.65684 76.0033 2.1432 77.8324 1.24575 79.9761C0.348291 82.1198 0.107424 84.4817 0.553665 86.7625C0.999907 89.0432 2.11317 91.1402 3.75238 92.7876C5.39159 94.435 7.48296 95.5587 9.76147 96.0164C12.04 96.474 14.403 96.2449 16.5512 95.3582C18.6994 94.4715 20.536 92.967 21.8283 91.0354C23.1206 89.1039 23.8104 86.8321 23.8103 84.5081C23.8145 81.4042 22.5873 78.4253 20.398 76.2251C18.2086 74.0248 15.2359 72.7827 12.132 72.7714V72.7714ZM12.2033 91.6316C11.5161 91.6309 10.8326 91.5313 10.1738 91.3361L9.95851 91.2723L10.0778 91.0826C10.3743 90.6316 10.6039 90.14 10.7595 89.6231C10.8458 89.3141 11.2478 87.7106 11.2515 87.6941L11.3603 87.2621L11.5673 87.6566C11.742 87.9049 11.9753 88.1061 12.2466 88.2424C12.5178 88.3788 12.8185 88.446 13.122 88.4381C15.243 88.4381 16.722 86.5286 16.722 83.7941C16.7009 83.26 16.5735 82.7354 16.3472 82.2511C16.1208 81.7669 15.8002 81.3326 15.404 80.9738C15.0078 80.6149 14.544 80.3387 14.0397 80.1613C13.5355 79.9839 13.0009 79.9089 12.4673 79.9406C9.13876 79.9406 7.64101 82.4066 7.64101 84.1579C7.64101 85.4171 8.12476 86.3381 8.96776 86.6854C8.99085 86.6974 9.01761 86.7003 9.04276 86.6936C9.06528 86.677 9.08036 86.6522 9.08476 86.6246C9.10351 86.5564 9.13276 86.4371 9.15976 86.3246C9.18526 86.2219 9.21001 86.1221 9.22651 86.0621C9.25726 85.9481 9.25876 85.9414 9.16051 85.8229C8.81723 85.406 8.63895 84.8775 8.65951 84.3379C8.6543 83.8657 8.74475 83.3973 8.92541 82.961C9.10608 82.5247 9.37321 82.1295 9.71072 81.7992C10.0482 81.4689 10.4491 81.2104 10.8892 81.0392C11.3293 80.868 11.7995 80.7877 12.2715 80.8031C14.1413 80.8031 15.3465 81.9281 15.3465 83.6636C15.3465 85.8896 14.3213 87.5681 12.9608 87.5681C12.7611 87.5719 12.5631 87.5302 12.3819 87.4463C12.2006 87.3624 12.0408 87.2384 11.9145 87.0836C11.7969 86.9337 11.7154 86.7587 11.6764 86.5721C11.6373 86.3856 11.6418 86.1926 11.6895 86.0081C11.7645 85.6781 11.871 85.3406 11.9715 85.0144C12.1448 84.5438 12.2563 84.0527 12.303 83.5534C12.3165 83.4435 12.3067 83.3319 12.2742 83.226C12.2416 83.1202 12.1871 83.0224 12.1142 82.939C12.0413 82.8556 11.9517 82.7885 11.8511 82.7422C11.7505 82.6958 11.6413 82.6712 11.5305 82.6699C10.8698 82.6699 10.3523 83.3944 10.3523 84.3199C10.3487 84.6753 10.4192 85.0275 10.5593 85.3541L10.5863 85.4089L10.5728 85.4689C10.5728 85.4689 9.80851 88.7269 9.67276 89.2976C9.56505 89.8124 9.52571 90.3392 9.55576 90.8643L9.56626 91.1366L9.31726 91.0263C7.69959 90.3131 6.40367 89.0256 5.67986 87.4126C4.95605 85.7997 4.85572 83.9757 5.39824 82.2931C5.94076 80.6104 7.08764 79.1886 8.61731 78.3022C10.147 77.4158 11.9509 77.1278 13.6805 77.4937C15.4102 77.8597 16.9428 78.8537 17.9823 80.2838C19.0218 81.7138 19.4945 83.4784 19.3089 85.2365C19.1234 86.9947 18.2928 88.6217 16.9777 89.8032C15.6626 90.9848 13.9562 91.637 12.1883 91.6338L12.2033 91.6316ZM10.4835 91.0699C12.1844 91.5208 13.9935 91.3004 15.5363 90.4543C17.0791 89.6081 18.2374 88.201 18.7713 86.5244C19.3052 84.8477 19.1739 83.0299 18.4045 81.4475C17.6351 79.865 16.2865 78.639 14.6381 78.0235C12.9897 77.4079 11.1676 77.4498 9.54931 78.1406C7.93097 78.8315 6.64028 80.1182 5.94453 81.7344C5.24877 83.3506 5.20124 85.1725 5.81178 86.8228C6.42231 88.4731 7.64414 89.8254 9.22426 90.5996C9.21415 90.1355 9.25871 89.6718 9.35701 89.2181C9.48076 88.6931 10.1408 85.8791 10.2428 85.4449C10.0982 85.0875 10.0248 84.7054 10.0268 84.3199C10.0268 83.2046 10.6935 82.3309 11.5448 82.3309C11.7013 82.3278 11.8567 82.3583 12.0005 82.4202C12.1443 82.4822 12.2732 82.5741 12.3786 82.69C12.4839 82.8059 12.5633 82.9429 12.6113 83.0919C12.6593 83.241 12.6749 83.3986 12.657 83.5541C12.6121 84.0876 12.4956 84.6126 12.3105 85.1149C12.2115 85.4359 12.1095 85.7674 12.0345 86.0899C11.999 86.2245 11.9949 86.3654 12.0226 86.5019C12.0503 86.6383 12.109 86.7665 12.1943 86.8766C12.2888 86.9912 12.4082 87.0828 12.5433 87.1445C12.6784 87.2062 12.8258 87.2364 12.9743 87.2329C14.1405 87.2329 15.0195 85.7006 15.0195 83.6681C15.0195 82.1134 13.9695 81.1474 12.2813 81.1474C11.8542 81.1329 11.4285 81.205 11.0301 81.3595C10.6316 81.5139 10.2685 81.7474 9.96275 82.046C9.65698 82.3446 9.41483 82.7019 9.25092 83.0966C9.087 83.4913 9.00471 83.9151 9.00901 84.3424C8.98976 84.802 9.13972 85.2527 9.43051 85.6091C9.50428 85.6766 9.55641 85.7643 9.58031 85.8614C9.6042 85.9584 9.59879 86.0604 9.56476 86.1544C9.54901 86.2136 9.52426 86.3111 9.49951 86.4116C9.47026 86.5301 9.43951 86.6524 9.42451 86.7199C9.41241 86.7811 9.38643 86.8387 9.34858 86.8883C9.31072 86.9379 9.262 86.9781 9.20615 87.0059C9.1503 87.0338 9.08882 87.0484 9.02643 87.0487C8.96404 87.0491 8.9024 87.0351 8.84626 87.0079C7.88401 86.6126 7.30876 85.5499 7.30876 84.1669C7.30876 81.9266 9.24076 79.6099 12.4748 79.6099C13.0531 79.5777 13.6321 79.6612 14.1778 79.8555C14.7234 80.0498 15.2249 80.351 15.6527 80.7415C16.0806 81.132 16.4262 81.6039 16.6695 82.1296C16.9127 82.6553 17.0486 83.2242 17.0693 83.8031C17.0693 86.6906 15.411 88.7869 13.1265 88.7869C12.5191 88.7858 11.9354 88.5507 11.4968 88.1306C11.3723 88.6256 11.1525 89.4948 11.0903 89.7191C10.9501 90.1959 10.747 90.6519 10.4865 91.0751L10.4835 91.0699Z" fill="#3F3D56"/>
<path d="M155.053 84.1182C153.483 84.1173 151.941 83.7112 150.575 82.9392C146.612 80.7184 143.989 75.9356 141.452 71.3141C140.147 68.8006 138.676 66.3777 137.047 64.0615C134.454 60.5777 131.446 58.3277 128.347 57.5529C126.641 57.1256 124.851 57.1808 123.175 57.7123C121.499 58.2437 120.004 59.2306 118.856 60.5627C118.539 60.918 118.246 61.2938 117.979 61.6877C118.338 61.7462 118.696 61.8087 119.054 61.8752C122.811 62.5757 127.523 64.5175 128.636 69.793C129.049 71.9244 128.756 74.1323 127.802 76.0826C126.778 78.1954 125.147 79.6481 123.44 79.9684C123.163 80.0194 122.882 80.0445 122.6 80.0434C119.525 80.0434 116.498 76.9684 115.601 72.7473C114.885 69.0391 115.552 65.1973 117.476 61.9472C115.224 61.6016 112.95 61.4117 110.672 61.3787V61.039C113.016 61.0739 115.354 61.2744 117.67 61.639C117.977 61.1672 118.318 60.7192 118.692 60.2987C119.864 58.9366 121.392 57.9271 123.104 57.3827C124.817 56.8384 126.647 56.7808 128.39 57.2162C131.54 58.0029 134.593 60.286 137.222 63.8162C138.86 66.1447 140.34 68.5807 141.651 71.1078C144.284 75.9078 146.771 80.4394 150.668 82.6241C154.586 84.8202 159.396 83.8242 162.638 80.1386C165.881 76.4531 167.418 70.246 166.463 64.6885L166.709 64.6135C167.684 70.2955 166.114 76.6406 162.801 80.4034C161.849 81.539 160.665 82.458 159.329 83.0987C157.992 83.7394 156.535 84.087 155.053 84.1182ZM117.778 61.9975C115.827 65.1858 115.138 68.9879 115.846 72.6581C116.791 77.1094 120.183 80.2384 123.407 79.6331C125.042 79.3256 126.607 77.9299 127.592 75.8981C128.506 74.0346 128.787 71.9244 128.394 69.8868C127.319 64.7867 122.704 62.899 119.019 62.2127C118.607 62.1357 118.193 62.064 117.777 61.9975H117.778Z" fill="#3F3D56"/>
<path d="M38.6478 81.9481C37.1223 81.9534 35.601 81.7891 34.1118 81.4584C30.4089 80.6621 27.082 78.6423 24.667 75.7245C23.8698 74.7698 23.1438 73.6995 22.4418 72.6615C21.4475 71.0555 20.264 69.5747 18.9168 68.2507C18.3003 67.6721 17.5713 67.2265 16.7752 66.9418C15.9791 66.657 15.1329 66.5391 14.2893 66.5954C13.7414 66.6581 13.2139 66.8403 12.7441 67.1292C12.2744 67.418 11.8737 67.8065 11.5705 68.2672L11.29 68.0759C11.6201 67.5749 12.0562 67.1524 12.5674 66.8384C13.0787 66.5244 13.6527 66.3265 14.2488 66.2587C15.1409 66.1914 16.0372 66.3113 16.8803 66.6108C17.7233 66.9104 18.4944 67.3828 19.144 67.9979C20.5117 69.3401 21.7126 70.8422 22.7208 72.4717C23.4183 73.5015 24.139 74.5658 24.9258 75.507C29.5105 80.9971 36.793 82.9156 44.9058 80.7706L44.9928 81.0991C42.9231 81.6539 40.7905 81.9392 38.6478 81.9481V81.9481Z" fill="#3F3D56"/>
</svg>
