<svg width="286" height="807" viewBox="0 0 286 807" fill="none" xmlns="http://www.w3.org/2000/svg">
<g clip-path="url(#clip0)">
<path opacity="0.2" d="M38.2296 39.4635C19.1095 15.8312 -2.29733 -2.19991 -25.3963 -14.1289C-48.1355 -25.8723 -72.2181 -31.5545 -96.9752 -31.018C-104.398 -30.857 -111.958 -30.1246 -119.444 -28.841C-126.964 -27.5518 -134.592 -25.6749 -142.119 -23.2627C-149.693 -20.8349 -157.35 -17.8054 -164.876 -14.2581C-172.463 -10.6817 -180.105 -6.49092 -187.589 -1.80202C-195.146 2.93259 -202.73 8.29273 -210.13 14.1295C-217.612 20.0315 -225.094 26.5684 -232.366 33.5588C-239.73 40.6364 -247.065 48.3573 -254.167 56.5071C-261.367 64.7676 -268.511 73.679 -275.402 82.9938C-283.181 93.5106 -290.785 104.74 -298.002 116.371C-305.116 127.837 -312.026 139.971 -318.542 152.436C-331.362 176.963 -343.04 203.489 -353.252 231.277C-363.281 258.567 -371.998 287.348 -379.16 316.822C-386.255 346.018 -391.887 376.147 -395.9 406.372C-399.912 436.596 -402.338 467.165 -403.11 497.228C-403.89 527.576 -402.99 557.676 -400.436 586.691C-397.835 616.236 -393.491 644.958 -387.525 672.06C-384.492 685.834 -380.993 699.394 -377.123 712.366C-373.197 725.524 -368.793 738.4 -364.034 750.636C-349.702 787.48 -332.04 819.011 -311.536 844.353C-292.416 867.986 -271.009 886.017 -247.91 897.946C-225.171 909.689 -201.088 915.371 -176.331 914.835C-168.908 914.674 -161.348 913.941 -153.862 912.658C-146.343 911.369 -138.714 909.492 -131.188 907.08C-123.613 904.652 -115.957 901.622 -108.431 898.075C-100.843 894.499 -93.201 890.308 -85.7171 885.619C-78.16 880.884 -70.5763 875.524 -63.1767 869.688C-55.6942 863.786 -48.2127 857.249 -40.9401 850.258C-33.5768 843.181 -26.2419 835.46 -19.139 827.31C-11.9396 819.049 -4.79542 810.138 2.09504 800.823C9.87471 790.306 17.4784 779.077 24.6951 767.446C31.8091 755.98 38.7197 743.846 45.2351 731.381C58.0553 706.854 69.7337 680.328 79.9457 652.54C89.9746 625.25 98.6913 596.469 105.854 566.995C112.949 537.799 118.581 507.67 122.593 477.445C126.606 447.221 129.032 416.652 129.804 386.589C130.583 356.241 129.683 326.141 127.129 297.126C124.528 267.581 120.184 238.859 114.218 211.757C111.186 197.983 107.686 184.422 103.816 171.451C99.8904 158.293 95.4866 145.417 90.7273 133.181C76.3959 96.337 58.7331 64.8058 38.2296 39.4635ZM39.3958 38.52C59.5675 63.4522 77.4298 94.8567 92.1254 132.637C169.42 331.353 129.652 630.91 3.30112 801.715C-99.0274 940.047 -226.777 951.501 -312.702 845.297C-332.874 820.365 -350.736 788.96 -365.432 751.18C-442.727 552.464 -402.959 252.907 -276.608 82.1017C-174.279 -56.2296 -46.5301 -67.6838 39.3958 38.52Z" fill="#333333"/>
<path opacity="0.2" d="M-313.864 -50.3331C-344.143 -52.9822 -371.98 -50.0971 -396.6 -41.758C-420.837 -33.5489 -441.645 -20.165 -458.447 -1.97845C-463.485 3.47478 -468.206 9.42282 -472.48 15.7006C-476.773 22.0063 -480.719 28.7987 -484.208 35.8889C-487.72 43.0248 -490.856 50.6375 -493.528 58.5156C-496.223 66.4583 -498.513 74.8667 -500.335 83.507C-502.175 92.2319 -503.583 101.41 -504.52 110.787C-505.468 120.268 -505.959 130.19 -505.978 140.276C-505.997 150.488 -505.534 161.127 -504.601 171.896C-503.655 182.811 -502.203 194.139 -500.284 205.564C-498.118 218.463 -495.316 231.731 -491.958 244.998C-488.646 258.077 -484.713 271.474 -480.268 284.816C-471.52 311.069 -460.54 337.888 -447.635 364.529C-434.961 390.692 -420.303 416.946 -404.068 442.562C-387.985 467.937 -370.216 492.907 -351.253 516.778C-332.291 540.649 -311.979 563.618 -290.883 585.045C-269.587 606.675 -247.304 626.925 -224.653 645.231C-201.588 663.871 -177.905 680.687 -154.261 695.21C-142.245 702.59 -130.058 709.487 -118.037 715.708C-105.843 722.018 -93.5211 727.789 -81.4127 732.859C-44.9514 748.126 -10.0003 757.308 22.4696 760.149C52.7489 762.798 80.5853 759.913 105.206 751.574C129.443 743.364 150.251 729.981 167.053 711.794C172.091 706.341 176.812 700.393 181.086 694.115C185.379 687.809 189.325 681.017 192.814 673.927C196.326 666.791 199.462 659.178 202.134 651.3C204.829 643.357 207.119 634.949 208.941 626.309C210.78 617.584 212.189 608.405 213.126 599.029C214.074 589.547 214.564 579.625 214.584 569.539C214.603 559.327 214.14 548.689 213.207 537.92C212.261 527.005 210.809 515.677 208.89 504.252C206.724 491.353 203.922 478.085 200.563 464.817C197.252 451.738 193.319 438.342 188.873 425C180.125 398.746 169.146 371.927 156.241 345.287C143.567 319.124 128.909 292.87 112.674 267.254C96.591 241.878 78.8215 216.908 59.859 193.037C40.8964 169.166 20.585 146.198 -0.511223 124.771C-21.8075 103.14 -44.0906 82.8906 -66.7417 64.5847C-89.8064 45.9442 -113.49 29.1291 -137.133 14.606C-149.149 7.22523 -161.337 0.328683 -173.357 -5.8921C-185.551 -12.2026 -197.873 -17.9731 -209.982 -23.0433C-246.443 -38.3107 -281.394 -47.4923 -313.864 -50.3331ZM-313.733 -51.8273C-281.789 -49.0325 -246.79 -40.0823 -209.402 -24.4269C-12.7521 57.9165 175.186 294.503 210.369 504.004C238.863 673.673 158.414 773.548 22.3389 761.643C-9.60572 758.848 -44.604 749.898 -81.9921 734.243C-278.642 651.899 -466.58 415.313 -501.763 205.812C-530.258 36.1425 -449.808 -63.7323 -313.733 -51.8273Z" fill="#333333"/>
</g>
<defs>
<clipPath id="clip0">
<rect width="286" height="807" fill="white"/>
</clipPath>
</defs>
</svg>
