<svg width="273" height="1032" viewBox="0 0 273 1032" fill="none" xmlns="http://www.w3.org/2000/svg">
<g clip-path="url(#clip0)">
<g opacity="0.2">
<path d="M179.229 159.422C160.109 135.79 138.702 117.759 115.603 105.83C92.8635 94.0862 68.7809 88.404 44.0239 88.9405C36.6006 89.1015 29.041 89.8339 21.5549 91.1175C14.0355 92.4067 6.40671 94.2835 -1.11957 96.6957C-8.69412 99.1235 -16.3508 102.153 -23.8768 105.7C-31.4644 109.277 -39.1064 113.468 -46.5902 118.156C-54.1474 122.891 -61.7311 128.251 -69.1307 134.088C-76.6132 139.99 -84.0947 146.527 -91.3672 153.517C-98.7305 160.595 -106.066 168.316 -113.168 176.466C-120.368 184.726 -127.512 193.638 -134.402 202.952C-142.182 213.469 -149.786 224.699 -157.003 236.33C-164.116 247.795 -171.027 259.929 -177.542 272.394C-190.363 296.921 -202.041 323.447 -212.253 351.235C-222.282 378.525 -230.999 407.307 -238.161 436.78C-245.256 465.977 -250.888 496.106 -254.901 526.33C-258.913 556.555 -261.339 587.123 -262.111 617.186C-262.89 647.535 -261.991 677.635 -259.436 706.649C-256.836 736.194 -252.492 764.916 -246.525 792.019C-243.493 805.792 -239.994 819.353 -236.124 832.324C-232.198 845.483 -227.794 858.358 -223.035 870.594C-208.703 907.438 -191.041 938.97 -170.537 964.312C-151.417 987.944 -130.01 1005.98 -106.911 1017.9C-84.1719 1029.65 -60.0893 1035.33 -35.3322 1034.79C-27.9089 1034.63 -20.3493 1033.9 -12.8632 1032.62C-5.34384 1031.33 2.2849 1029.45 9.81133 1027.04C17.3858 1024.61 25.0425 1021.58 32.5684 1018.03C40.1561 1014.46 47.7981 1010.27 55.282 1005.58C62.8391 1000.84 70.4228 995.483 77.8224 989.646C85.3049 983.744 92.7864 977.207 100.059 970.217C107.422 963.139 114.757 955.418 121.86 947.268C129.06 939.008 136.204 930.096 143.094 920.782C150.874 910.265 158.477 899.035 165.694 887.404C172.808 875.939 179.719 863.805 186.234 851.34C199.054 826.813 210.733 800.287 220.945 772.499C230.974 745.209 239.69 716.427 246.853 686.954C253.948 657.757 259.58 627.628 263.592 597.404C267.605 567.179 270.031 536.611 270.803 506.548C271.582 476.199 270.682 446.099 268.128 417.085C265.527 387.54 261.183 358.818 255.217 331.715C252.185 317.942 248.685 304.381 244.815 291.41C240.889 278.251 236.486 265.375 231.726 253.14C217.395 216.296 199.732 184.764 179.229 159.422ZM180.395 158.479C200.567 183.411 218.429 214.815 233.124 252.596C310.419 451.312 270.651 750.868 144.3 921.674C41.9717 1060.01 -85.7774 1071.46 -171.703 965.255C-191.875 940.323 -209.737 908.919 -224.433 871.138C-301.727 672.422 -261.96 372.866 -135.609 202.06C-33.28 63.7289 94.4689 52.2746 180.395 158.479Z" fill="#333333"/>
</g>
<path opacity="0.2" d="M169.834 72.4635C150.714 48.8312 129.307 30.8001 106.208 18.8711C83.469 7.12768 59.3864 1.44546 34.6293 1.98204C27.2061 2.14304 19.6464 2.8754 12.1604 4.15901C4.641 5.44823 -2.98782 7.32505 -10.5141 9.73725C-18.0886 12.1651 -25.7453 15.1946 -33.2713 18.7419C-40.859 22.3182 -48.5009 26.5091 -55.9847 31.198C-63.5419 35.9326 -71.1256 41.2927 -78.5253 47.1295C-86.0077 53.0315 -93.4892 59.5684 -100.762 66.5588C-108.125 73.6364 -115.46 81.3572 -122.563 89.5071C-129.762 97.7676 -136.907 106.679 -143.797 115.994C-151.577 126.511 -159.18 137.74 -166.397 149.371C-173.511 160.837 -180.422 172.971 -186.937 185.436C-199.757 209.963 -211.436 236.489 -221.648 264.277C-231.677 291.567 -240.393 320.348 -247.556 349.822C-254.651 379.018 -260.283 409.147 -264.295 439.372C-268.308 469.596 -270.734 500.165 -271.506 530.228C-272.285 560.576 -271.385 590.676 -268.831 619.691C-266.23 649.236 -261.886 677.958 -255.92 705.06C-252.888 718.834 -249.388 732.394 -245.518 745.366C-241.592 758.524 -237.189 771.4 -232.429 783.636C-218.098 820.48 -200.435 852.011 -179.932 877.353C-160.811 900.986 -139.405 919.017 -116.306 930.946C-93.5664 942.689 -69.4838 948.371 -44.7268 947.835C-37.3035 947.674 -29.7438 946.941 -22.2577 945.658C-14.7384 944.369 -7.10963 942.492 0.416797 940.08C7.99127 937.652 15.648 934.622 23.1739 931.075C30.7616 927.499 38.4035 923.308 45.8875 918.619C53.4445 913.884 61.0282 908.524 68.4279 902.688C75.9104 896.786 83.3918 890.249 90.6645 883.258C98.0278 876.181 105.363 868.46 112.466 860.31C119.665 852.049 126.809 843.138 133.7 833.823C141.479 823.306 149.083 812.077 156.3 800.446C163.414 788.98 170.324 776.846 176.84 764.381C189.66 739.854 201.338 713.328 211.55 685.54C221.579 658.25 230.296 629.469 237.458 599.995C244.553 570.799 250.185 540.67 254.198 510.445C258.21 480.221 260.636 449.652 261.408 419.589C262.188 389.241 261.288 359.141 258.733 330.126C256.133 300.581 251.789 271.859 245.823 244.757C242.79 230.983 239.291 217.422 235.421 204.451C231.495 191.293 227.091 178.417 222.332 166.181C208 129.337 190.338 97.8058 169.834 72.4635ZM171 71.52C191.172 96.4522 209.034 127.857 223.73 165.637C301.025 364.353 261.257 663.91 134.906 834.715C32.5772 973.047 -95.172 984.501 -181.098 878.297C-201.27 853.365 -219.132 821.96 -233.827 784.18C-311.122 585.464 -271.354 285.907 -145.003 115.102C-42.6746 -23.2296 85.0744 -34.6838 171 71.52Z" fill="#333333"/>
</g>
<defs>
<clipPath id="clip0">
<rect width="273" height="1032" fill="white"/>
</clipPath>
</defs>
</svg>
