<svg width="163" height="922" viewBox="0 0 163 922" fill="none" xmlns="http://www.w3.org/2000/svg">
<g clip-path="url(#clip0)">
<path opacity="0.2" d="M558.695 113.382C545.37 86.0636 528.561 63.689 508.732 46.8802C489.213 30.333 467.023 19.39 442.781 14.3548C435.512 12.8451 427.982 11.8615 420.399 11.4316C412.783 10.9997 404.929 11.1157 397.054 11.7763C389.129 12.4414 380.988 13.6743 372.859 15.441C364.663 17.2222 356.276 19.5899 347.932 22.4784C339.506 25.395 330.913 28.9151 322.393 32.9409C313.777 37.0117 305.02 41.7014 296.365 46.8798C287.601 52.1228 278.721 57.9989 269.971 64.3451C261.102 70.7775 252.14 77.8565 243.335 85.3854C233.394 93.8859 223.464 103.121 213.821 112.833C204.316 122.408 194.858 132.679 185.712 143.361C167.714 164.381 150.38 187.605 134.191 212.388C118.293 236.726 103.338 262.813 89.7429 289.922C76.2751 316.777 64.0236 344.869 53.3286 373.417C42.6335 401.966 33.407 431.206 25.9056 460.325C18.333 489.72 12.4525 519.249 8.42719 548.093C4.32853 577.464 2.11283 606.425 1.84154 634.172C1.70378 648.273 2.06925 662.271 2.92782 675.779C3.79901 689.481 5.19921 703.015 7.08945 716.006C12.7817 755.122 22.9126 789.81 37.2009 819.105C50.5252 846.424 67.3349 868.799 87.1634 885.607C106.683 902.155 128.872 913.098 153.115 918.133C160.384 919.643 167.914 920.626 175.496 921.056C183.112 921.488 190.967 921.372 198.842 920.711C206.767 920.046 214.907 918.813 223.037 917.047C231.233 915.266 239.619 912.898 247.964 910.009C256.39 907.093 264.983 903.573 273.503 899.547C282.119 895.476 290.876 890.786 299.531 885.608C308.295 880.365 317.175 874.489 325.925 868.143C334.794 861.71 343.756 854.631 352.561 847.102C362.502 838.602 372.432 829.367 382.074 819.655C391.58 810.08 401.037 799.809 410.184 789.127C428.182 768.107 445.516 744.883 461.704 720.1C477.603 695.762 492.557 669.675 506.153 642.566C519.62 615.711 531.872 587.619 542.567 559.07C553.262 530.522 562.489 501.282 569.99 472.163C577.563 442.768 583.443 413.238 587.468 384.394C591.567 355.024 593.783 326.063 594.054 298.316C594.192 284.215 593.826 270.216 592.968 256.709C592.097 243.007 590.696 229.472 588.806 216.482C583.114 177.365 572.983 142.678 558.695 113.382ZM560.043 112.725C574.1 141.546 584.454 176.155 590.291 216.266C620.991 427.238 514.992 710.183 353.536 848.242C222.776 960.053 95.7319 942.533 35.8528 819.763C21.7957 790.942 11.442 756.332 5.60507 716.222C-25.0951 505.25 80.9037 222.304 242.36 84.2454C373.12 -27.565 500.164 -10.0457 560.043 112.725Z" fill="#333333"/>
<path opacity="0.2" d="M463.083 -23.117C443.963 -46.7494 422.556 -64.7805 399.457 -76.7095C376.718 -88.4529 352.635 -94.1351 327.878 -93.5985C320.455 -93.4375 312.895 -92.7052 305.409 -91.4216C297.89 -90.1324 290.261 -88.2555 282.735 -85.8433C275.16 -83.4155 267.504 -80.386 259.978 -76.8387C252.39 -73.2623 244.748 -69.0715 237.264 -64.3826C229.707 -59.648 222.123 -54.2879 214.724 -48.4511C207.241 -42.5491 199.76 -36.0122 192.487 -29.0218C185.124 -21.9442 177.789 -14.2233 170.686 -6.0735C163.487 2.187 156.342 11.0984 149.452 20.4132C141.672 30.9299 134.069 42.1598 126.852 53.7908C119.738 65.2563 112.827 77.39 106.312 89.8549C93.4917 114.382 81.8134 140.908 71.6013 168.696C61.5723 195.986 52.8557 224.768 45.6933 254.241C38.5982 283.438 32.9662 313.566 28.9538 343.791C24.9412 374.016 22.5152 404.584 21.7432 434.647C20.9639 464.996 21.8639 495.095 24.418 524.11C27.0188 553.655 31.3627 582.377 37.3289 609.479C40.3612 623.253 43.8608 636.814 47.7307 649.785C51.6567 662.944 56.0604 675.819 60.8197 688.055C75.1511 724.899 92.8139 756.431 113.317 781.773C132.438 805.405 153.844 823.436 176.943 835.365C199.683 847.109 223.765 852.791 248.522 852.254C255.946 852.093 263.505 851.361 270.991 850.077C278.511 848.788 286.139 846.911 293.666 844.499C301.24 842.071 308.897 839.042 316.423 835.494C324.011 831.918 331.653 827.727 339.137 823.038C346.694 818.304 354.277 812.944 361.677 807.107C369.159 801.205 376.641 794.668 383.914 787.677C391.277 780.6 398.612 772.879 405.715 764.729C412.914 756.469 420.058 747.557 426.949 738.243C434.728 727.726 442.332 716.496 449.549 704.865C456.663 693.399 463.573 681.266 470.089 668.801C482.909 644.274 494.587 617.748 504.799 589.96C514.828 562.67 523.545 533.888 530.707 504.415C537.802 475.218 543.434 445.089 547.447 414.865C551.459 384.64 553.885 354.072 554.657 324.008C555.437 293.66 554.537 263.56 551.983 234.546C549.382 205.001 545.038 176.279 539.072 149.176C536.039 135.403 532.54 121.842 528.67 108.871C524.744 95.7122 520.34 82.8363 515.581 70.6007C501.249 33.7564 483.587 2.2252 463.083 -23.117ZM464.249 -24.0605C484.421 0.871625 502.283 32.2762 516.979 70.0569C594.274 268.773 554.506 568.329 428.155 739.135C325.826 877.466 198.077 888.92 112.151 782.716C91.9794 757.784 74.1172 726.38 59.4215 688.599C-17.873 489.883 21.8949 190.327 148.246 19.521C250.574 -118.81 378.323 -130.264 464.249 -24.0605Z" fill="#333333"/>
</g>
<defs>
<clipPath id="clip0">
<rect width="163" height="922" fill="white"/>
</clipPath>
</defs>
</svg>
