<svg width="165" height="509" viewBox="0 0 165 509" fill="none" xmlns="http://www.w3.org/2000/svg">
<g clip-path="url(#clip0)">
<path opacity="0.2" d="M58.7402 239.405C42.1292 262.247 31.095 285.794 25.9444 309.39C20.8747 332.616 21.566 355.59 27.9993 377.674C29.9283 384.295 32.403 390.902 35.3544 397.311C38.3192 403.748 41.8375 410.142 45.8117 416.315C49.8114 422.529 54.3712 428.671 59.3642 434.572C64.3982 440.521 69.9969 446.372 76.0047 451.961C82.0716 457.605 88.7061 463.122 95.7243 468.36C102.821 473.657 110.488 478.8 118.512 483.646C126.636 488.553 135.331 493.28 144.355 497.696C153.501 502.172 163.219 506.442 173.239 510.387C184.551 514.841 196.461 518.965 208.638 522.646C220.643 526.275 233.198 529.56 245.955 532.411C271.059 538.02 297.682 542.123 325.086 544.607C351.999 547.046 379.936 547.948 408.12 547.288C436.039 546.634 464.444 544.443 492.545 540.774C520.646 537.105 548.674 531.93 575.85 525.391C603.284 518.79 630.091 510.741 655.526 501.468C681.425 492.026 706.166 481.217 729.062 469.341C740.698 463.306 752.03 456.902 762.743 450.307C773.612 443.618 784.111 436.567 793.951 429.352C823.577 407.625 847.632 384.187 865.448 359.688C882.059 336.846 893.093 313.299 898.244 289.702C903.313 266.476 902.622 243.503 896.189 221.419C894.26 214.797 891.785 208.19 888.833 201.782C885.869 195.345 882.35 188.951 878.376 182.777C874.376 176.564 869.817 170.421 864.824 164.521C859.79 158.571 854.191 152.721 848.183 147.132C842.116 141.488 835.482 135.97 828.464 130.733C821.367 125.436 813.7 120.293 805.676 115.447C797.552 110.539 788.857 105.812 779.833 101.397C770.686 96.9208 760.968 92.6511 750.949 88.7061C739.637 84.2521 727.727 80.1272 715.55 76.4465C703.545 72.8181 690.99 69.5328 678.233 66.6822C653.129 61.0727 626.506 56.9693 599.102 54.4859C572.189 52.0469 544.252 51.1449 516.068 51.8048C488.149 52.4585 459.744 54.6501 431.643 58.3186C403.542 61.9872 375.514 67.1629 348.338 73.7018C320.904 80.3029 294.097 88.3516 268.662 97.6245C242.763 107.067 218.023 117.876 195.126 129.752C183.49 135.787 172.158 142.191 161.445 148.785C150.576 155.475 140.077 162.525 130.237 169.741C100.611 191.467 76.5561 214.906 58.7402 239.405ZM57.5269 238.522C75.0608 214.411 98.9619 190.817 129.35 168.531C289.184 51.3164 567.73 14.9526 751.499 87.3103C900.329 145.911 941.35 257.863 866.661 360.57C849.127 384.681 825.226 408.276 794.838 430.562C635.004 547.776 356.458 584.14 172.689 511.782C23.8589 453.182 -17.1621 341.229 57.5269 238.522Z" fill="#333333"/>
<path opacity="0.2" d="M137.7 5.38612C109.889 10.29 85.602 19.5724 65.5136 32.9757C45.7407 46.1683 30.2883 63.1792 19.5855 83.536C16.3763 89.64 13.5701 96.1121 11.2447 102.772C8.90903 109.462 7.00135 116.506 5.575 123.707C4.13933 130.955 3.15581 138.541 2.6519 146.253C2.14375 154.029 2.1106 162.126 2.55325 170.318C3.00029 178.591 3.94367 187.168 5.35729 195.809C6.78669 204.547 8.73281 213.571 11.1415 222.629C13.5802 231.8 16.5547 241.238 19.9824 250.68C23.4567 260.251 27.4851 270.07 31.9556 279.865C37.0031 290.923 42.7095 302.16 48.9163 313.263C55.0349 324.208 61.7883 335.289 68.9889 346.197C83.1577 367.662 99.466 389.098 117.461 409.91C135.133 430.35 154.609 450.395 175.347 469.487C195.89 488.4 217.85 506.543 240.617 523.413C263.385 540.283 287.146 556.017 311.24 570.18C335.564 584.477 360.44 597.296 385.18 608.282C410.371 619.468 435.678 628.867 460.398 636.218C472.961 639.954 485.561 643.213 497.848 645.906C510.313 648.638 522.763 650.855 534.852 652.494C571.254 657.429 604.835 657.264 634.663 652.004C662.475 647.101 686.762 637.818 706.85 624.415C726.623 611.222 742.076 594.211 752.778 573.854C755.987 567.75 758.794 561.278 761.119 554.618C763.455 547.928 765.362 540.884 766.789 533.683C768.224 526.435 769.208 518.85 769.712 511.138C770.22 503.362 770.253 495.265 769.811 487.072C769.363 478.799 768.42 470.223 767.007 461.582C765.577 452.843 763.631 443.82 761.222 434.762C758.783 425.59 755.809 416.153 752.381 406.71C748.907 397.139 744.879 387.32 740.408 377.526C735.361 366.467 729.654 355.23 723.447 344.127C717.329 333.182 710.575 322.102 703.375 311.194C689.206 289.729 672.898 268.293 654.903 247.48C637.231 227.04 617.755 206.996 597.017 187.904C576.474 168.99 554.513 150.847 531.746 133.977C508.979 117.108 485.218 101.373 461.123 87.2105C436.8 72.9139 411.923 60.0945 387.184 49.1085C361.993 37.9221 336.686 28.5231 311.966 21.1724C299.403 17.4369 286.803 14.1772 274.516 11.4841C262.051 8.75217 249.601 6.53593 237.512 4.89692C201.11 -0.0380041 167.529 0.126577 137.7 5.38612ZM137.44 3.90886C166.796 -1.26742 200.375 -1.65137 237.713 3.41052C434.101 30.0348 659.776 197.253 741.773 376.903C808.18 522.397 759.972 631.432 634.924 653.482C605.568 658.658 571.989 659.042 534.651 653.98C338.263 627.356 112.588 460.137 30.591 280.488C-35.8162 134.994 12.3914 25.9583 137.44 3.90886Z" fill="#333333"/>
</g>
<defs>
<clipPath id="clip0">
<rect width="165" height="509" fill="white"/>
</clipPath>
</defs>
</svg>
