<svg width="316" height="318" viewBox="0 0 316 318" fill="none" xmlns="http://www.w3.org/2000/svg">
<rect x="2" y="2" width="312" height="314" rx="156" fill="#F5F5F5"/>
<path d="M159.969 314.534C190.586 314.584 220.54 305.621 246.098 288.762C240.311 257.202 218.348 255.393 218.348 255.393H97.2085C97.2085 255.393 76.4912 257.091 70 286.123C96.3371 304.655 127.765 314.579 159.969 314.533V314.534Z" fill="#6C63FF"/>
<path d="M158.325 229.551C200.095 229.551 233.957 195.69 233.957 153.92C233.957 112.15 200.095 78.2884 158.325 78.2884C116.554 78.2884 82.6924 112.15 82.6924 153.92C82.6924 195.69 116.554 229.551 158.325 229.551Z" fill="#72351C"/>
<path opacity="0.1" d="M133.906 216.914H182.371V255.683C182.377 258.868 181.754 262.022 180.539 264.966C179.324 267.91 177.541 270.586 175.291 272.84C173.041 275.094 170.368 276.882 167.426 278.102C164.485 279.322 161.331 279.95 158.146 279.95V279.95C151.721 279.95 145.56 277.398 141.017 272.854C136.474 268.311 133.921 262.15 133.921 255.725V216.914H133.906Z" fill="black"/>
<path d="M138.491 215.118H177.702C178.929 215.118 180.106 215.606 180.974 216.473C181.841 217.341 182.329 218.518 182.329 219.745V253.887C182.329 260.312 179.777 266.474 175.234 271.017C170.69 275.56 164.529 278.112 158.104 278.112V278.112C151.679 278.112 145.517 275.56 140.974 271.017C136.431 266.474 133.879 260.312 133.879 253.887V219.745C133.879 218.518 134.366 217.341 135.234 216.473C136.102 215.606 137.279 215.118 138.506 215.118H138.491Z" fill="#FDA57D"/>
<path opacity="0.1" d="M133.963 235.215C149.582 241.052 166.776 241.101 182.428 235.353V229.4H133.963V235.215Z" fill="black"/>
<path d="M158.325 238.46C196.686 238.46 227.784 207.362 227.784 169.001C227.784 130.641 196.686 99.5432 158.325 99.5432C119.965 99.5432 88.8672 130.641 88.8672 169.001C88.8672 207.362 119.965 238.46 158.325 238.46Z" fill="#FDA57D"/>
<path opacity="0.1" d="M108.852 105.828C108.852 105.828 138.118 165.218 220.725 130.689L201.5 100.539L167.427 88.3016L108.852 105.828Z" fill="black"/>
<path d="M108.852 104.958C108.852 104.958 138.118 164.348 220.725 129.819L201.5 99.6692L167.427 87.4314L108.852 104.958Z" fill="#72351C"/>
<path d="M108.59 100.939C110.563 94.8303 113.973 89.284 118.534 84.7662C132.194 71.2587 154.596 68.4163 166.084 53C166.708 54.0909 167.097 55.3005 167.225 56.5509C167.353 57.8013 167.217 59.0646 166.827 60.2593C166.436 61.454 165.8 62.5536 164.958 63.4871C164.116 64.4205 163.088 65.1672 161.94 65.6787C172.989 65.6097 185.71 64.643 191.925 55.5823C193.464 59.1626 193.954 63.1059 193.341 66.9541C192.727 70.8023 191.034 74.3974 188.459 77.3218C198.209 77.7635 208.624 84.3792 209.259 94.13C209.673 100.621 205.613 106.768 200.267 110.497C194.922 114.226 188.486 115.896 182.133 117.278C163.601 121.422 96.4906 138.562 108.59 100.939Z" fill="#72351C"/>
<path d="M227.783 169.61H225.948L190.121 201.528C155.592 185.369 130.262 201.528 130.262 201.528L92.6947 170.949L88.9102 171.419C89.0272 180.539 90.9394 189.547 94.5377 197.928C98.136 206.31 103.35 213.9 109.882 220.267C116.413 226.633 124.135 231.65 132.606 235.032C141.077 238.414 150.131 240.095 159.251 239.978C168.371 239.861 177.379 237.949 185.761 234.35C194.142 230.752 201.732 225.538 208.099 219.006C214.465 212.475 219.482 204.753 222.865 196.282C226.247 187.811 227.927 178.757 227.81 169.637L227.783 169.61ZM158.228 213.738C144.721 213.738 133.768 210.975 133.768 207.619C133.768 204.263 144.718 201.501 158.228 201.501C171.739 201.501 182.689 204.263 182.689 207.619C182.689 210.975 171.739 213.738 158.215 213.738H158.228Z" fill="#72351C"/>
<path d="M88.8385 181.045C92.4082 181.045 95.302 175.622 95.302 168.933C95.302 162.243 92.4082 156.82 88.8385 156.82C85.2688 156.82 82.375 162.243 82.375 168.933C82.375 175.622 85.2688 181.045 88.8385 181.045Z" fill="#FDA57D"/>
<path d="M227.769 181.045C231.339 181.045 234.233 175.622 234.233 168.933C234.233 162.243 231.339 156.82 227.769 156.82C224.199 156.82 221.306 162.243 221.306 168.933C221.306 175.622 224.199 181.045 227.769 181.045Z" fill="#FDA57D"/>
<rect x="2" y="2" width="312" height="314" rx="156" stroke="#F9F9F9" stroke-width="4"/>
</svg>
