<svg width="316" height="318" viewBox="0 0 316 318" fill="none" xmlns="http://www.w3.org/2000/svg">
<rect x="2" y="2" width="312" height="314" rx="156" fill="#F5F5F5"/>
<path d="M159.75 317.202C190.969 317.253 221.512 308.114 247.572 290.923C241.685 258.758 219.279 256.913 219.279 256.913H95.7433C95.7433 256.913 74.6187 258.645 68 288.246C94.8602 307.14 126.911 317.254 159.75 317.201V317.202Z" fill="#6C63FF"/>
<path opacity="0.1" d="M133.175 217.676H182.592V257.207C182.592 263.758 179.989 270.04 175.356 274.672C170.724 279.304 164.441 281.906 157.89 281.906V281.906C154.645 281.908 151.432 281.27 148.434 280.03C145.435 278.79 142.711 276.971 140.415 274.677C138.12 272.383 136.299 269.66 135.057 266.662C133.815 263.665 133.175 260.452 133.175 257.207V217.676Z" fill="black"/>
<path d="M137.892 215.846H177.875C179.126 215.846 180.326 216.343 181.211 217.228C182.095 218.112 182.592 219.312 182.592 220.563V255.376C182.592 261.927 179.989 268.21 175.357 272.842C170.724 277.474 164.441 280.076 157.89 280.076C154.645 280.078 151.432 279.44 148.434 278.2C145.435 276.96 142.711 275.141 140.415 272.847C138.12 270.553 136.299 267.83 135.057 264.832C133.815 261.835 133.175 258.622 133.175 255.377V220.563C133.175 219.312 133.672 218.112 134.557 217.228C135.442 216.343 136.642 215.846 137.893 215.846H137.892Z" fill="#FDB797"/>
<path opacity="0.1" d="M133.275 236.337C149.201 242.289 166.733 242.339 182.693 236.478V230.408H133.275V236.337Z" fill="black"/>
<path d="M158.06 239.646C197.174 239.646 228.883 207.938 228.883 168.823C228.883 129.709 197.174 98 158.06 98C118.945 98 87.2363 129.709 87.2363 168.823C87.2363 207.938 118.945 239.646 158.06 239.646Z" fill="#FDB797"/>
<path d="M88.7023 178.146C92.3424 178.146 95.2933 172.617 95.2933 165.795C95.2933 158.974 92.3424 153.444 88.7023 153.444C85.0622 153.444 82.1113 158.974 82.1113 165.795C82.1113 172.617 85.0622 178.146 88.7023 178.146Z" fill="#FDB797"/>
<path d="M227.053 178.146C230.693 178.146 233.644 172.617 233.644 165.795C233.644 158.974 230.693 153.444 227.053 153.444C223.413 153.444 220.462 158.974 220.462 165.795C220.462 172.617 223.413 178.146 227.053 178.146Z" fill="#FDB797"/>
<path d="M141.94 169.161H118.173C116.371 169.161 114.91 170.621 114.91 172.423V181.051C114.91 182.853 116.371 184.314 118.173 184.314H141.94C143.742 184.314 145.203 182.853 145.203 181.051V172.423C145.203 170.621 143.742 169.161 141.94 169.161Z" stroke="#333333" stroke-width="1.5" stroke-miterlimit="10"/>
<path d="M174.194 184.299H197.961C199.763 184.299 201.224 182.839 201.224 181.037V172.409C201.224 170.607 199.763 169.146 197.961 169.146H174.194C172.392 169.146 170.931 170.607 170.931 172.409V181.037C170.931 182.839 172.392 184.299 174.194 184.299Z" stroke="#333333" stroke-width="1.5" stroke-miterlimit="10"/>
<path d="M144.047 170.626C144.047 170.626 153.651 165.415 171.509 170.626" stroke="#333333" stroke-width="1.5" stroke-miterlimit="10"/>
<path d="M207.026 117.49L224.405 157.866C224.405 157.866 245.656 131.08 207.026 117.49Z" fill="#858585"/>
<path d="M201.224 176.737L227.165 153.57" stroke="#333333" stroke-width="1.5" stroke-linecap="round" stroke-linejoin="round"/>
<path d="M109.122 117.49L91.7472 157.866C91.7472 157.866 70.4923 131.08 109.122 117.49Z" fill="#858585"/>
<path d="M114.909 176.737L88.6162 153.57" stroke="#333333" stroke-width="1.5" stroke-linecap="round" stroke-linejoin="round"/>
<rect x="2" y="2" width="312" height="314" rx="156" stroke="#F9F9F9" stroke-width="4"/>
</svg>
