<svg width="316" height="318" viewBox="0 0 316 318" fill="none" xmlns="http://www.w3.org/2000/svg">
<g clip-path="url(#clip0)">
<rect x="2" y="2" width="312" height="314" rx="156" fill="#F5F5F5"/>
<path d="M159.933 330.143C193.569 330.196 226.477 320.347 254.555 301.825C248.211 267.163 224.066 265.175 224.066 265.175H90.8965C90.8965 265.175 68.1325 267.041 61 298.941C89.9621 319.313 124.524 330.212 159.933 330.141V330.143Z" fill="#6C63FF"/>
<path d="M158.11 236.781C204.007 236.781 241.213 199.574 241.213 153.676C241.213 107.779 204.007 70.5718 158.11 70.5718C112.213 70.5718 75.0059 107.779 75.0059 153.676C75.0059 199.574 112.213 236.781 158.11 236.781Z" fill="#333333"/>
<path opacity="0.1" d="M131.294 222.894H184.544V265.494C184.544 272.553 181.739 279.323 176.748 284.315C171.757 289.306 164.987 292.111 157.928 292.112V292.112C150.868 292.112 144.098 289.307 139.106 284.315C134.114 279.324 131.309 272.553 131.309 265.494V222.894L131.294 222.894Z" fill="black"/>
<path d="M136.378 220.922H179.463C180.811 220.922 182.104 221.457 183.058 222.411C184.011 223.364 184.547 224.658 184.547 226.006V263.552C184.547 270.612 181.742 277.382 176.75 282.374C171.758 287.366 164.988 290.171 157.928 290.171V290.171C154.431 290.173 150.968 289.486 147.737 288.149C144.505 286.812 141.569 284.852 139.096 282.38C136.622 279.908 134.66 276.972 133.322 273.742C131.983 270.511 131.294 267.049 131.294 263.552V225.991C131.294 224.643 131.83 223.349 132.783 222.396C133.737 221.442 135.03 220.907 136.378 220.907V220.922Z" fill="#FDB797"/>
<path opacity="0.1" d="M131.401 243.003C148.563 249.416 167.454 249.47 184.651 243.153V236.568H131.401V243.003Z" fill="black"/>
<path d="M158.108 246.569C200.258 246.569 234.428 212.4 234.428 170.249C234.428 128.098 200.258 93.928 158.108 93.928C115.958 93.928 81.7881 128.098 81.7881 170.249C81.7881 212.4 115.958 246.569 158.108 246.569Z" fill="#FDB797"/>
<path opacity="0.1" d="M103.765 100.818C103.765 100.818 135.922 166.075 226.69 128.136L205.564 95.0066L168.13 81.5599L103.765 100.818Z" fill="black"/>
<path d="M103.765 99.8622C103.765 99.8622 135.922 165.12 226.69 127.179L205.564 94.0504L168.13 80.6037L103.765 99.8622Z" fill="#333333"/>
<path d="M103.477 95.431C105.645 88.7184 109.392 82.624 114.404 77.6597C129.413 62.8172 154.029 59.6912 166.655 42.7547C167.341 43.9534 167.768 45.2825 167.909 46.6563C168.049 48.0302 167.9 49.4182 167.471 50.7309C167.042 52.0436 166.343 53.2519 165.418 54.2776C164.493 55.3033 163.364 56.1237 162.102 56.686C174.243 56.611 188.22 55.5475 195.05 45.592C196.74 49.526 197.279 53.8588 196.605 58.0871C195.931 62.3153 194.071 66.2655 191.241 69.4787C201.955 69.9647 213.398 77.2337 214.096 87.9482C214.551 95.0807 210.09 101.834 204.217 105.932C198.343 110.029 191.256 111.896 184.275 113.444C163.908 117.968 90.1828 136.801 103.477 95.431Z" fill="#333333"/>
<path d="M81.7597 183.482C85.6823 183.482 88.8622 177.524 88.8622 170.173C88.8622 162.822 85.6823 156.863 81.7597 156.863C77.8371 156.863 74.6572 162.822 74.6572 170.173C74.6572 177.524 77.8371 183.482 81.7597 183.482Z" fill="#FDB797"/>
<path d="M234.416 183.482C238.339 183.482 241.518 177.524 241.518 170.173C241.518 162.822 238.339 156.863 234.416 156.863C230.493 156.863 227.313 162.822 227.313 170.173C227.313 177.524 230.493 183.482 234.416 183.482Z" fill="#FDB797"/>
</g>
<rect x="2" y="2" width="312" height="314" rx="156" stroke="#F9F9F9" stroke-width="4"/>
<defs>
<clipPath id="clip0">
</clipPath>
</defs>
</svg>
