<svg width="316" height="318" viewBox="0 0 316 318" fill="none" xmlns="http://www.w3.org/2000/svg">
<rect x="2" y="2" width="312" height="314" rx="156" fill="#F5F5F5"/>
<path d="M96.2311 154.415C96.2311 154.415 77.9656 244.407 67.9951 239.42C67.9951 239.42 164.152 322.481 249.059 239.42C249.059 239.42 234.103 176.001 212.514 154.412L96.2311 154.415Z" fill="#333333"/>
<path d="M159.535 314.586C191.022 314.638 221.827 305.421 248.11 288.083C242.17 255.641 219.572 253.781 219.572 253.781H94.9803C94.9803 253.781 73.675 255.528 67 285.384C94.0899 304.439 126.415 314.64 159.535 314.586V314.586Z" fill="#6C63FF"/>
<path d="M157.83 220.858C197.279 220.858 229.258 188.879 229.258 149.429C229.258 109.98 197.279 78 157.83 78C118.381 78 86.4014 109.98 86.4014 149.429C86.4014 188.879 118.381 220.858 157.83 220.858Z" fill="#333333"/>
<path opacity="0.1" d="M132.733 214.211H182.573V254.08C182.573 260.68 179.954 267.01 175.291 271.681C170.629 276.352 164.303 278.981 157.703 278.993V278.993C151.096 278.992 144.761 276.367 140.089 271.695C135.418 267.023 132.793 260.687 132.793 254.08V214.211H132.733Z" fill="black"/>
<path d="M137.492 212.364H177.815C179.077 212.364 180.287 212.865 181.179 213.757C182.071 214.65 182.573 215.86 182.573 217.122V252.232C182.573 258.832 179.954 265.162 175.291 269.833C170.628 274.504 164.303 277.134 157.703 277.145V277.145C151.096 277.145 144.759 274.52 140.087 269.848C135.415 265.176 132.79 258.84 132.79 252.232V217.108C132.794 215.858 133.289 214.66 134.169 213.772C135.048 212.884 136.242 212.379 137.492 212.364V212.364Z" fill="#BE7C5E"/>
<path opacity="0.1" d="M132.833 233.03C148.895 239.033 166.577 239.084 182.673 233.172V227.05H132.833V233.03Z" fill="black"/>
<path d="M157.83 236.355C197.279 236.355 229.258 204.375 229.258 164.926C229.258 125.477 197.279 93.4966 157.83 93.4966C118.381 93.4966 86.4014 125.477 86.4014 164.926C86.4014 204.375 118.381 236.355 157.83 236.355Z" fill="#BE7C5E"/>
<path d="M89.5547 137.797H225.765C225.765 137.797 214.133 82.8013 162.645 86.3091C111.158 89.8168 89.5547 137.797 89.5547 137.797Z" fill="#333333"/>
<path d="M87.8806 174.342C91.5518 174.342 94.5279 168.765 94.5279 161.885C94.5279 155.006 91.5518 149.429 87.8806 149.429C84.2095 149.429 81.2334 155.006 81.2334 161.885C81.2334 168.765 84.2095 174.342 87.8806 174.342Z" fill="#BE7C5E"/>
<path d="M227.413 174.342C231.084 174.342 234.06 168.765 234.06 161.885C234.06 155.006 231.084 149.429 227.413 149.429C223.742 149.429 220.766 155.006 220.766 161.885C220.766 168.765 223.742 174.342 227.413 174.342Z" fill="#BE7C5E"/>
<path opacity="0.1" d="M89.5547 139.643H225.765C225.765 139.643 214.133 84.6481 162.645 88.1559C111.158 91.6636 89.5547 139.643 89.5547 139.643Z" fill="black"/>
<rect x="2" y="2" width="312" height="314" rx="156" stroke="#F9F9F9" stroke-width="4"/>
</svg>
