<svg width="316" height="318" viewBox="0 0 316 318" fill="none" xmlns="http://www.w3.org/2000/svg">
<rect x="2" y="2" width="312" height="314" rx="156" fill="#F5F5F5"/>
<path d="M166.366 317.508C197.399 317.559 227.761 308.473 253.666 291.385C247.816 259.409 225.541 257.576 225.541 257.576H102.751C102.751 257.576 81.7506 259.301 75.1709 288.725C101.869 307.504 133.725 317.559 166.366 317.508V317.508Z" fill="#6C63FF"/>
<path d="M164.7 225.152C203.583 225.152 235.104 193.63 235.104 154.747C235.104 115.863 203.583 84.342 164.7 84.342C125.816 84.342 94.2949 115.863 94.2949 154.747C94.2949 193.63 125.816 225.152 164.7 225.152Z" fill="#333333"/>
<path opacity="0.1" d="M139.961 218.601H189.086V257.901C189.086 261.125 188.451 264.318 187.217 267.298C185.983 270.277 184.174 272.984 181.894 275.264C179.614 277.544 176.907 279.353 173.927 280.587C170.948 281.821 167.755 282.456 164.53 282.456V282.456C161.305 282.456 158.112 281.821 155.133 280.586C152.154 279.352 149.447 277.543 147.167 275.263C144.887 272.982 143.078 270.275 141.844 267.296C140.611 264.316 139.976 261.123 139.976 257.898V218.598L139.961 218.601Z" fill="black"/>
<path d="M144.652 216.78H184.397C185.013 216.78 185.623 216.901 186.192 217.137C186.761 217.373 187.278 217.718 187.713 218.154C188.149 218.589 188.494 219.106 188.73 219.675C188.966 220.244 189.087 220.854 189.087 221.47V256.077C189.087 262.59 186.5 268.835 181.895 273.441C177.29 278.046 171.044 280.633 164.531 280.633V280.633C158.019 280.633 151.773 278.046 147.168 273.441C142.563 268.836 139.976 262.59 139.976 256.078V221.47C139.976 220.228 140.468 219.038 141.344 218.158C142.221 217.279 143.41 216.784 144.652 216.78V216.78Z" fill="#BE7C5E"/>
<path opacity="0.1" d="M140.06 237.151C155.891 243.068 173.319 243.118 189.185 237.291V231.257H140.06V237.151Z" fill="black"/>
<path d="M164.7 240.44C203.583 240.44 235.104 208.919 235.104 170.035C235.104 131.152 203.583 99.6303 164.7 99.6303C125.816 99.6303 94.2949 131.152 94.2949 170.035C94.2949 208.919 125.816 240.44 164.7 240.44Z" fill="#BE7C5E"/>
<path d="M122.042 141.003C122.867 137.964 123.904 134.619 126.634 133.037C128.79 131.777 131.464 131.973 133.956 132.099C153.416 133.163 172.708 128.724 191.635 124.091C202.457 121.445 214.035 118.225 221.035 109.503C228.036 100.782 218.907 73.3699 208.254 70.1359C201.254 67.9939 193.134 71.9839 186.498 68.8481C183.543 67.4479 181.374 64.8304 178.826 62.7859C173.604 58.5859 166.901 56.8916 160.402 55.2964C152.814 53.4214 144.61 51.5861 137.4 54.5966C131.8 56.9216 127.713 61.8341 122.406 64.7464C112.313 70.3466 100.007 67.7426 88.4425 67.7141C84.5365 67.7141 79.8745 68.4979 78.3175 72.0821C77.2675 74.5181 78.1075 77.2901 78.2193 79.9361C78.5553 88.3361 71.6253 94.8739 65.8158 100.936C60.0063 106.998 54.5178 115.65 58.186 123.182C59.5863 126.052 62.1483 128.222 63.604 131.064C66.1098 135.992 64.8498 141.939 65.7603 147.387C66.6704 151.52 68.2136 155.486 70.3353 159.147C74.647 167.547 96.3048 212.766 106.26 201.273C111.076 195.672 111.861 179.489 113.806 172.209C116.497 161.744 119.242 151.342 122.042 141.003Z" fill="#333333"/>
<path d="M114.609 179.75C118.227 179.75 121.161 174.254 121.161 167.473C121.161 160.692 118.227 155.195 114.609 155.195C110.99 155.195 108.057 160.692 108.057 167.473C108.057 174.254 110.99 179.75 114.609 179.75Z" fill="#BE7C5E"/>
<rect x="2" y="2" width="312" height="314" rx="156" stroke="#F9F9F9" stroke-width="4"/>
</svg>
