<svg width="316" height="318" viewBox="0 0 316 318" fill="none" xmlns="http://www.w3.org/2000/svg">
<rect x="2" y="2" width="312" height="314" rx="156" fill="#F5F5F5"/>
<path d="M245.108 172.475C245.108 229.824 207.69 293.665 161.528 293.665C115.366 293.665 77.9893 229.824 77.9893 172.475C77.9893 115.126 115.408 86 161.569 86C207.731 86 245.108 115.14 245.108 172.475Z" fill="#FDD835"/>
<path d="M159.415 314.666C189.843 314.716 219.613 305.808 245.012 289.053C239.275 257.703 217.436 255.903 217.436 255.903H97.0412C97.0412 255.903 76.4515 257.591 70 286.444C96.1766 304.857 127.411 314.716 159.415 314.666V314.666Z" fill="#6C63FF"/>
<path opacity="0.1" d="M133.525 217.648H181.69V256.177C181.69 262.563 179.154 268.686 174.639 273.201C170.124 277.716 164 280.252 157.615 280.252V280.252C151.23 280.252 145.107 277.716 140.592 273.201C136.077 268.686 133.54 262.563 133.54 256.177V217.648H133.525Z" fill="black"/>
<path d="M138.122 215.863H177.091C178.31 215.863 179.48 216.348 180.342 217.21C181.205 218.072 181.689 219.242 181.689 220.461V254.393C181.689 260.778 179.153 266.902 174.638 271.417C170.123 275.931 163.999 278.468 157.614 278.468V278.468C151.229 278.468 145.105 275.931 140.59 271.417C136.076 266.902 133.539 260.778 133.539 254.393V220.461C133.539 219.245 134.021 218.077 134.88 217.216C135.739 216.354 136.905 215.867 138.122 215.863V215.863Z" fill="#FDB797"/>
<path opacity="0.1" d="M133.621 235.835C149.144 241.637 166.231 241.685 181.787 235.972V230.056H133.621V235.835Z" fill="black"/>
<path d="M157.78 239.06C195.904 239.06 226.81 208.154 226.81 170.03C226.81 131.906 195.904 101 157.78 101C119.656 101 88.75 131.906 88.75 170.03C88.75 208.154 119.656 239.06 157.78 239.06Z" fill="#FDB797"/>
<path d="M90.1767 179.119C93.7244 179.119 96.6004 173.729 96.6004 167.08C96.6004 160.432 93.7244 155.042 90.1767 155.042C86.6289 155.042 83.7529 160.432 83.7529 167.08C83.7529 173.729 86.6289 179.119 90.1767 179.119Z" fill="#FDB797"/>
<path d="M225.024 179.119C228.572 179.119 231.448 173.729 231.448 167.08C231.448 160.432 228.572 155.042 225.024 155.042C221.477 155.042 218.601 160.432 218.601 167.08C218.601 173.729 221.477 179.119 225.024 179.119Z" fill="#FDB797"/>
<path opacity="0.1" d="M96.6152 132.586C96.6152 132.586 135.639 185.996 225.135 167.753C225.135 167.753 235.128 155.592 210.805 118.253C186.482 80.9145 118.756 87.0007 96.6152 132.586Z" fill="black"/>
<path d="M96.6152 131.721C96.6152 131.721 135.639 185.13 225.135 166.887C225.135 166.887 235.128 154.726 210.805 117.387C186.482 80.0487 118.756 86.135 96.6152 131.721Z" fill="#FDD835"/>
<rect x="2" y="2" width="312" height="314" rx="156" stroke="#F9F9F9" stroke-width="4"/>
</svg>
