<svg width="1043" height="920" viewBox="0 0 1043 920" fill="none" xmlns="http://www.w3.org/2000/svg">
<g clip-path="url(#clip0)">
<path d="M1927.73 675.618C1904.7 761.559 1711.43 828.778 1454.94 870.702C1386.36 881.909 1313.6 891.287 1238.37 898.755C1195.55 903.006 1151.99 906.631 1107.69 909.631C778.499 931.93 424.863 918.239 203.589 858.949C-294.187 725.571 273.997 596.184 332.765 376.858C391.533 157.531 635.063 -96.3887 1132.84 36.9897C1630.61 170.368 1986.5 456.292 1927.73 675.618Z" fill="#253163"/>
<path d="M974.001 726.082H614.027V727.61H974.001V726.082Z" fill="white"/>
<path d="M681.639 701.767H652.149V731.257H681.639V701.767Z" fill="#CFCCE0"/>
<path d="M677.759 727.377H646.717V696.333H677.759V727.377ZM648.269 725.825H676.207V697.887H648.269V725.825Z" fill="white"/>
<path d="M713.913 444.086L695.243 451.31L702.217 469.332L720.886 462.109L713.913 444.086Z" fill="#F2F2F2"/>
<path d="M717.5 460.687L697.855 468.284L690.52 449.32L710.164 441.722L717.5 460.687ZM698.47 466.957L716.151 460.119L709.551 443.05L691.87 449.888L698.47 466.957Z" fill="#3F3D56"/>
<path d="M869.817 683.764L863.312 664.841L845.044 671.121L851.55 690.044L869.817 683.764Z" fill="#F2F2F2"/>
<path d="M853.096 686.733L846.248 666.813L865.477 660.202L872.325 680.121L853.096 686.733ZM847.552 667.479L853.715 685.404L871.021 679.455L864.858 661.53L847.552 667.479Z" fill="#3F3D56"/>
<path d="M640.786 569.661C651.727 569.895 660.432 577.824 660.432 577.824C660.432 577.824 651.396 585.373 640.454 585.138C629.512 584.904 620.809 576.974 620.809 576.974C620.809 576.974 629.845 569.426 640.786 569.661Z" fill="white"/>
<path d="M585.775 532.31C595.661 537.007 606.996 533.822 606.996 533.822C606.996 533.822 602.304 523.022 592.418 518.326C582.533 513.631 571.197 516.814 571.197 516.814C571.197 516.814 575.89 527.614 585.775 532.31Z" fill="white"/>
<path d="M586.781 527.643C597.68 526.647 607.22 533.548 607.22 533.548C607.22 533.548 599.088 542.061 588.187 543.061C577.286 544.06 567.748 537.155 567.748 537.155C567.748 537.155 575.882 528.636 586.781 527.643Z" fill="#00C1D4"/>
<path d="M626.733 529.533C625.689 540.428 632.547 549.999 632.547 549.999C632.547 549.999 641.097 541.906 642.147 531.012C643.197 520.117 636.333 510.546 636.333 510.546C636.333 510.546 627.778 518.636 626.733 529.533Z" fill="#00C1D4"/>
<path d="M678.059 596.346C672.343 605.679 674.309 617.287 674.309 617.287C674.309 617.287 685.544 613.762 691.259 604.432C696.974 595.102 695.009 583.491 695.009 583.491C695.009 583.491 683.779 587.013 678.059 596.346Z" fill="#00C1D4"/>
<path d="M661.476 697.82L662.31 697.257C659.373 692.995 657.77 687.957 657.703 682.782C657.726 675.212 661.444 668.211 665.04 661.44C665.708 660.183 666.373 658.93 667.013 657.678C669.699 652.573 671.84 647.2 673.399 641.646C678.977 620.919 673.485 596.466 658.71 576.232C646.989 560.182 629.517 546.146 605.295 533.323L604.825 534.212C628.909 546.962 646.269 560.901 657.898 576.825C672.495 596.815 677.927 620.95 672.428 641.385C670.886 646.87 668.771 652.178 666.117 657.221C665.479 658.468 664.817 659.716 664.152 660.971C660.498 667.85 656.721 674.963 656.697 682.782C656.764 688.158 658.427 693.394 661.476 697.822V697.82Z" fill="white"/>
<path d="M557.551 534.641C562.826 534.641 567.102 530.365 567.102 525.09C567.102 519.815 562.826 515.539 557.551 515.539C552.276 515.539 548 519.815 548 525.09C548 530.365 552.276 534.641 557.551 534.641Z" fill="#00C1D4"/>
<path d="M890.507 601.547L767.561 557.39L789.51 496.275L866.063 477.501L912.454 540.432L890.507 601.547Z" fill="#2F2E41"/>
<path d="M875.612 589.428L783.733 554.403C807.583 522.453 818.251 499.917 818.259 464.454L910.134 499.479C888.793 529.799 879.866 552.593 875.612 589.428Z" fill="#F2F2F2"/>
<path d="M882.844 504.269L835.244 486.125L834.4 488.339L882 506.483L882.844 504.269Z" fill="#3F3D56"/>
<path d="M879.468 513.125L831.868 494.98L831.024 497.194L878.624 515.339L879.468 513.125Z" fill="#3F3D56"/>
<path d="M876.092 521.981L828.492 503.836L827.648 506.05L875.248 524.194L876.092 521.981Z" fill="#3F3D56"/>
<path d="M872.717 530.836L825.117 512.691L824.273 514.905L871.873 533.05L872.717 530.836Z" fill="#3F3D56"/>
<path d="M869.342 539.692L821.742 521.547L820.898 523.761L868.498 541.906L869.342 539.692Z" fill="#3F3D56"/>
<path d="M865.966 548.548L818.366 530.404L817.522 532.618L865.122 550.762L865.966 548.548Z" fill="#3F3D56"/>
<path d="M862.59 557.403L814.99 539.259L814.146 541.473L861.746 559.617L862.59 557.403Z" fill="#3F3D56"/>
<path d="M859.214 566.259L811.614 548.115L810.77 550.329L858.37 568.473L859.214 566.259Z" fill="#3F3D56"/>
<path d="M887.666 609.453L764.72 565.298L789.509 496.278L841.429 544.953L912.454 540.43L887.666 609.453Z" fill="#00C1D4"/>
<path d="M825.197 587.707L763.893 565.688L778.83 524.097L780.048 524.534L765.549 564.907L825.634 586.487L825.197 587.707Z" fill="white"/>
<path d="M803.405 543.475L785.431 537.02L782.848 544.209L800.823 550.665L803.405 543.475Z" fill="white"/>
<path d="M787.195 726.626L690.97 726.575L691.725 672.553L739.547 694.047L787.952 673.899L787.195 726.626Z" fill="#00C1D4"/>
<path d="M712.698 702.112L698.63 701.916L698.551 707.543L712.619 707.74L712.698 702.112Z" fill="white"/>
<path d="M788.272 673.825L739.633 698.621L691.471 673.825V672.395H788.272V673.825Z" fill="white"/>
<path d="M880.862 489.394C882.011 486.378 876.173 481.352 867.822 478.168C859.471 474.985 851.769 474.849 850.619 477.866C849.469 480.882 855.307 485.908 863.658 489.091C872.01 492.275 879.712 492.41 880.862 489.394Z" fill="white"/>
<path d="M894.079 397.401C887.849 395.464 881.106 396.082 875.331 399.117C869.557 402.152 865.224 407.357 863.287 413.586C859.253 426.561 870.246 474.047 870.246 474.047C870.246 474.047 906.23 441.165 910.264 428.193C912.2 421.963 911.583 415.22 908.548 409.445C905.513 403.671 900.308 399.338 894.079 397.401V397.401ZM883.316 432.015C881.116 431.33 879.168 430.008 877.719 428.216C876.27 426.425 875.385 424.243 875.175 421.949C874.966 419.654 875.442 417.349 876.543 415.324C877.643 413.3 879.32 411.647 881.36 410.576C883.399 409.504 885.711 409.061 888.003 409.303C890.294 409.545 892.463 410.462 894.234 411.936C896.004 413.41 897.298 415.377 897.952 417.587C898.605 419.796 898.588 422.15 897.904 424.35C897.45 425.812 896.712 427.169 895.733 428.345C894.754 429.521 893.553 430.493 892.199 431.205C890.844 431.917 889.363 432.355 887.839 432.494C886.315 432.634 884.779 432.471 883.318 432.017L883.316 432.015Z" fill="white"/>
<path opacity="0.2" d="M1110.42 192.581C1092.83 200.404 1075.5 209.096 1058.91 218.414C1042.58 227.589 1026.59 237.585 1011.38 248.125C996.38 258.523 981.795 269.69 968.032 281.316C954.424 292.811 941.31 305.016 929.056 317.591C916.908 330.056 905.333 343.165 894.649 356.553C884.031 369.861 874.059 383.74 865.009 397.805C855.989 411.826 847.686 426.342 840.331 440.95C832.978 455.555 826.41 470.574 820.81 485.591C816.382 497.465 812.466 509.587 809.172 521.62C805.865 533.7 803.103 545.987 800.963 558.138C798.811 570.36 797.235 582.746 796.279 594.953C795.316 607.25 794.958 619.671 795.215 631.87C795.474 644.178 796.366 656.568 797.866 668.696C799.381 680.95 801.556 693.245 804.328 705.239C807.134 717.374 810.623 729.509 814.699 741.307C818.828 753.257 823.665 765.168 829.076 776.707C835.297 789.976 842.396 803.01 850.176 815.448C857.844 827.706 866.36 839.683 875.486 851.046C884.495 862.262 894.316 873.15 904.676 883.407C914.922 893.55 925.938 903.317 937.42 912.437C948.796 921.474 960.897 930.088 973.387 938.04C985.789 945.937 998.864 953.366 1012.25 960.12C1025.57 966.843 1039.51 973.054 1053.68 978.581C1067.81 984.094 1082.5 989.055 1097.34 993.324C1112.18 997.594 1127.51 1001.27 1142.9 1004.25C1158.34 1007.24 1174.19 1009.61 1190.04 1011.27C1205.96 1012.95 1222.23 1013.96 1238.41 1014.29C1254.71 1014.61 1271.29 1014.25 1287.69 1013.2C1304.25 1012.14 1321.03 1010.36 1337.55 1007.91C1354.26 1005.44 1371.12 1002.21 1387.65 998.333C1404.41 994.403 1421.23 989.703 1437.67 984.364C1454.35 978.947 1471.04 972.738 1487.27 965.911C1491.19 964.262 1495.14 962.553 1499.01 960.83C1516.6 953.007 1533.94 944.315 1550.52 934.997C1566.85 925.823 1582.84 915.826 1598.05 905.286C1613.05 894.888 1627.64 883.721 1641.4 872.095C1655.01 860.6 1668.12 848.395 1680.38 835.82C1692.52 823.355 1704.1 810.246 1714.78 796.858C1725.4 783.551 1735.37 769.671 1744.42 755.606C1753.44 741.585 1761.75 727.069 1769.1 712.461C1776.45 697.856 1783.02 682.837 1788.62 667.82C1793.05 655.946 1796.97 643.824 1800.26 631.791C1803.57 619.711 1806.33 607.425 1808.47 595.273C1810.62 583.052 1812.2 570.665 1813.15 558.458C1814.12 546.161 1814.47 533.74 1814.22 521.541C1813.96 509.233 1813.07 496.843 1811.57 484.715C1810.05 472.461 1807.88 460.166 1805.1 448.172C1802.3 436.037 1798.81 423.902 1794.73 412.105C1790.6 400.154 1785.77 388.243 1780.36 376.704C1774.13 363.435 1767.04 350.401 1759.25 337.963C1751.59 325.705 1743.07 313.728 1733.95 302.366C1724.94 291.149 1715.12 280.261 1704.76 270.004C1694.51 259.861 1683.49 250.094 1672.01 240.974C1660.64 231.938 1648.53 223.323 1636.04 215.371C1623.64 207.474 1610.57 200.045 1597.18 193.291C1583.86 186.568 1569.92 180.357 1555.76 174.831C1541.62 169.317 1526.93 164.356 1512.09 160.087C1497.26 155.817 1481.93 152.14 1466.53 149.157C1451.1 146.166 1435.24 143.805 1419.39 142.137C1403.47 140.461 1387.2 139.447 1371.02 139.123C1354.72 138.797 1338.14 139.163 1321.74 140.211C1305.18 141.27 1288.4 143.048 1271.88 145.498C1255.17 147.975 1238.31 151.198 1221.78 155.078C1205.03 159.008 1188.2 163.708 1171.76 169.047C1155.08 174.464 1138.4 180.673 1122.16 187.5C1118.24 189.149 1114.29 190.858 1110.42 192.581ZM1109.81 191.21C1113.71 189.477 1117.63 187.781 1121.58 186.118C1385.02 75.3079 1680.57 160.351 1781.71 376.067C1881.34 588.544 1755.18 848.551 1499.62 962.201C1495.73 963.934 1491.81 965.63 1487.85 967.294C1224.41 1078.1 928.86 993.06 827.718 777.344C728.094 564.867 854.249 304.86 1109.81 191.21Z" fill="white"/>
<path opacity="0.2" d="M1023.99 179.149C1006.4 186.973 989.07 195.665 972.484 204.983C956.154 214.157 940.163 224.154 924.956 234.694C909.954 245.092 895.368 256.259 881.606 267.885C867.997 279.38 854.884 291.585 842.629 304.16C830.482 316.625 818.906 329.734 808.223 343.122C797.604 356.429 787.632 370.309 778.583 384.374C769.562 398.395 761.259 412.911 753.904 427.519C746.551 442.124 739.984 457.143 734.383 472.16C729.955 484.034 726.039 496.156 722.745 508.188C719.438 520.269 716.676 532.555 714.537 544.707C712.384 556.928 710.808 569.315 709.852 581.522C708.889 593.819 708.531 606.24 708.788 618.439C709.047 630.747 709.939 643.137 711.439 655.265C712.955 667.519 715.129 679.814 717.902 691.808C720.707 703.943 724.197 716.078 728.273 727.875C732.402 739.826 737.239 751.737 742.649 763.276C748.871 776.545 755.97 789.579 763.75 802.017C771.418 814.275 779.933 826.252 789.059 837.614C798.068 848.831 807.89 859.719 818.25 869.976C828.495 880.119 839.512 889.886 850.993 899.006C862.37 908.042 874.471 916.657 886.96 924.609C899.363 932.506 912.438 939.935 925.823 946.689C939.144 953.412 953.082 959.623 967.25 965.15C981.384 970.663 996.074 975.624 1010.91 979.893C1025.75 984.163 1041.08 987.84 1056.47 990.823C1071.91 993.814 1087.77 996.176 1103.61 997.843C1119.53 999.519 1135.81 1000.53 1151.98 1000.86C1168.28 1001.18 1184.86 1000.82 1201.27 999.769C1217.83 998.71 1234.6 996.932 1251.13 994.482C1267.84 992.005 1284.69 988.782 1301.23 984.902C1317.98 980.972 1334.81 976.272 1351.24 970.933C1367.92 965.516 1384.61 959.307 1400.84 952.48C1404.76 950.831 1408.71 949.122 1412.59 947.4C1430.18 939.576 1447.51 930.884 1464.09 921.566C1480.42 912.392 1496.42 902.395 1511.62 891.855C1526.62 881.457 1541.21 870.29 1554.97 858.664C1568.58 847.169 1581.69 834.964 1593.95 822.389C1606.1 809.924 1617.67 796.815 1628.36 783.427C1638.97 770.12 1648.95 756.241 1658 742.175C1667.02 728.154 1675.32 713.638 1682.67 699.03C1690.03 684.426 1696.59 669.406 1702.2 654.389C1706.62 642.515 1710.54 630.393 1713.83 618.361C1717.14 606.281 1719.9 593.994 1722.04 581.842C1724.19 569.621 1725.77 557.235 1726.73 545.027C1727.69 532.73 1728.05 520.31 1727.79 508.111C1727.53 495.802 1726.64 483.412 1725.14 471.284C1723.62 459.03 1721.45 446.735 1718.68 434.741C1715.87 422.606 1712.38 410.471 1708.31 398.674C1704.18 386.723 1699.34 374.812 1693.93 363.273C1687.71 350.004 1680.61 336.97 1672.83 324.532C1665.16 312.274 1656.65 300.297 1647.52 288.935C1638.51 277.718 1628.69 266.83 1618.33 256.573C1608.08 246.43 1597.07 236.663 1585.59 227.543C1574.21 218.507 1562.11 209.892 1549.62 201.94C1537.22 194.043 1524.14 186.614 1510.76 179.86C1497.43 173.137 1483.5 166.926 1469.33 161.4C1455.19 155.886 1440.5 150.925 1425.67 146.656C1410.83 142.386 1395.5 138.709 1380.1 135.726C1364.67 132.735 1348.81 130.374 1332.97 128.706C1317.05 127.03 1300.77 126.016 1284.59 125.692C1268.3 125.366 1251.72 125.732 1235.31 126.78C1218.75 127.839 1201.98 129.617 1185.45 132.067C1168.74 134.544 1151.88 137.767 1135.35 141.647C1118.6 145.577 1101.77 150.277 1085.33 155.616C1068.66 161.033 1051.97 167.242 1035.74 174.069C1031.82 175.718 1027.87 177.427 1023.99 179.149ZM1023.38 177.779C1027.28 176.046 1031.2 174.35 1035.15 172.686C1298.59 61.8768 1594.14 146.92 1695.29 362.636C1794.91 575.113 1668.76 835.12 1413.19 948.77C1409.3 950.503 1405.38 952.199 1401.42 953.863C1137.98 1064.67 842.433 979.629 741.291 763.913C641.667 551.436 767.822 291.429 1023.38 177.779Z" fill="white"/>
<path d="M830.994 121.125L834.188 118.248" stroke="white" stroke-width="2.95984"/>
<path d="M915.344 45.1763L918.538 42.3002" stroke="white" stroke-width="2.95984"/>
<path d="M603.251 326.185L606.445 323.308" stroke="white" stroke-width="2.95984"/>
<path d="M687.601 250.237L690.795 247.361" stroke="white" stroke-width="2.95984"/>
<path d="M614.113 21.2261L616.989 24.4203" stroke="white" stroke-width="2.95984"/>
<path d="M807.902 236.45L810.779 239.644" stroke="white" stroke-width="2.95984"/>
<path d="M711.01 128.84L713.886 132.034" stroke="white" stroke-width="2.95984"/>
<path d="M904.798 344.064L907.674 347.258" stroke="white" stroke-width="2.95984"/>
</g>
<defs>
<clipPath id="clip0">
<rect width="1043" height="920" fill="white"/>
</clipPath>
</defs>
</svg>
