<svg width="323" height="852" viewBox="0 0 323 852" fill="none" xmlns="http://www.w3.org/2000/svg">
<g clip-path="url(#clip0)">
<path opacity="0.2" d="M85.7138 117.211C65.3736 102.955 43.7526 89.3479 21.4509 76.7659C3.75635 66.7833 -14.607 57.3117 -33.1291 48.6143C-51.3836 40.0425 -70.2359 32.0142 -89.1622 24.7526C-107.844 17.5849 -127.047 10.9917 -146.237 5.15628C-165.213 -0.614079 -184.627 -5.78054 -203.942 -10.1999C-223.077 -14.5784 -242.565 -18.3268 -261.864 -21.3406C-281.025 -24.3331 -300.448 -26.6715 -319.592 -28.2913C-338.643 -29.903 -357.862 -30.8404 -376.713 -31.0775C-395.518 -31.3138 -414.394 -30.8587 -432.816 -29.7249C-451.236 -28.5911 -469.63 -26.7526 -487.487 -24.2599C-505.385 -21.7616 -523.158 -18.5483 -540.314 -14.7093C-557.55 -10.8522 -574.565 -6.27337 -590.885 -1.10014C-607.319 4.10927 -623.436 10.0442 -638.788 16.5397C-654.281 23.0946 -669.362 30.3761 -683.613 38.1822C-698.023 46.0749 -711.931 54.6935 -724.95 63.7987C-738.137 73.0212 -750.734 82.9674 -762.391 93.3612C-774.216 103.905 -785.365 115.17 -795.528 126.843C-826.768 162.722 -849.178 202.775 -862.135 245.892C-865.278 256.35 -867.891 267.111 -869.901 277.877C-871.897 288.564 -873.349 299.526 -874.218 310.46C-875.082 321.327 -875.392 332.441 -875.138 343.493C-874.886 354.494 -874.069 365.71 -872.71 376.831C-870.849 392.064 -867.921 407.553 -864.005 422.866C-860.096 438.155 -855.116 453.614 -849.203 468.813C-843.283 484.029 -836.295 499.327 -828.433 514.283C-820.541 529.296 -811.589 544.304 -801.826 558.888C-791.999 573.568 -781.128 588.154 -769.513 602.24C-757.792 616.454 -745.045 630.487 -731.625 643.949C-718.053 657.565 -703.475 670.914 -688.297 683.626C-672.914 696.51 -656.551 709.045 -639.66 720.883C-619.32 735.138 -597.699 748.746 -575.398 761.328C-557.703 771.31 -539.34 780.782 -520.818 789.479C-502.563 798.051 -483.711 806.079 -464.784 813.341C-446.103 820.509 -426.9 827.102 -407.71 832.937C-388.734 838.708 -369.319 843.874 -350.005 848.294C-330.869 852.672 -311.382 856.42 -292.083 859.434C-272.922 862.427 -253.499 864.765 -234.355 866.385C-215.304 867.997 -196.085 868.934 -177.233 869.171C-158.429 869.407 -139.553 868.952 -121.131 867.818C-102.71 866.685 -84.3162 864.846 -66.4598 862.354C-48.5616 859.855 -30.7882 856.642 -13.6327 852.803C3.60355 848.946 20.6181 844.367 36.9384 839.194C53.3727 833.984 69.4898 828.049 84.8419 821.554C100.334 814.999 115.415 807.717 129.667 799.911C144.076 792.019 157.984 783.4 171.004 774.295C184.191 765.072 196.788 755.126 208.444 744.733C220.269 734.188 231.418 722.923 241.582 711.251C272.821 675.372 295.231 635.318 308.188 592.202C311.331 581.744 313.944 570.982 315.955 560.217C317.95 549.53 319.403 538.568 320.272 527.634C321.136 516.767 321.445 505.652 321.192 494.601C320.939 483.6 320.122 472.383 318.764 461.263C316.903 446.03 313.974 430.541 310.059 415.227C306.15 399.939 301.17 384.48 295.257 369.281C289.337 354.065 282.349 338.767 274.487 323.811C266.594 308.798 257.642 293.79 247.879 279.206C238.053 264.526 227.181 249.94 215.566 235.854C203.846 221.64 191.099 207.607 177.679 194.145C164.106 180.529 149.528 167.18 134.35 154.467C118.968 141.583 102.604 129.048 85.7138 117.211ZM86.5747 115.982C323.16 281.794 394.906 537.442 242.713 712.236C77.4907 901.994 -289.12 924.558 -576.135 762.634C-598.768 749.865 -620.268 736.306 -640.521 722.111C-877.106 556.3 -948.853 300.652 -796.66 125.858C-631.437 -63.9005 -264.827 -86.4644 22.188 75.4593C44.8212 88.2282 66.3211 101.787 86.5747 115.982Z" fill="#333333"/>
<g opacity="0.2">
<path d="M52.7138 36.2109C32.3737 21.9554 10.7527 8.34792 -11.549 -4.23408C-29.2436 -14.2167 -47.6069 -23.6883 -66.129 -32.3857C-84.3836 -40.9574 -103.236 -48.9857 -122.162 -56.2473C-140.844 -63.4151 -160.047 -70.0083 -179.237 -75.8437C-198.213 -81.614 -217.627 -86.7805 -236.942 -91.1999C-256.077 -95.5783 -275.565 -99.3267 -294.864 -102.341C-314.025 -105.333 -333.448 -107.671 -352.592 -109.291C-371.643 -110.903 -390.861 -111.84 -409.713 -112.077C-428.518 -112.314 -447.394 -111.859 -465.816 -110.725C-484.236 -109.591 -502.63 -107.753 -520.487 -105.26C-538.385 -102.762 -556.158 -99.5483 -573.314 -95.7093C-590.55 -91.8522 -607.565 -87.2734 -623.885 -82.1001C-640.319 -76.8907 -656.436 -70.9558 -671.788 -64.4603C-687.281 -57.9054 -702.362 -50.6239 -716.613 -42.8178C-731.023 -34.9251 -744.931 -26.3065 -757.95 -17.2013C-771.137 -7.97879 -783.734 1.96737 -795.391 12.3612C-807.216 22.9054 -818.365 34.1701 -828.528 45.8427C-859.768 81.7215 -882.178 121.775 -895.135 164.892C-898.278 175.35 -900.891 186.111 -902.901 196.877C-904.897 207.564 -906.349 218.526 -907.218 229.46C-908.082 240.327 -908.392 251.441 -908.138 262.493C-907.886 273.494 -907.069 284.71 -905.71 295.831C-903.849 311.064 -900.921 326.553 -897.005 341.866C-893.096 357.155 -888.116 372.614 -882.203 387.813C-876.283 403.029 -869.295 418.327 -861.433 433.283C-853.541 448.296 -844.589 463.304 -834.826 477.888C-824.999 492.568 -814.128 507.154 -802.513 521.24C-790.792 535.454 -778.045 549.487 -764.625 562.949C-751.053 576.565 -736.475 589.914 -721.297 602.627C-705.914 615.51 -689.55 628.045 -672.66 639.883C-652.32 654.138 -630.699 667.746 -608.398 680.328C-590.703 690.31 -572.34 699.782 -553.818 708.479C-535.563 717.051 -516.711 725.079 -497.784 732.341C-479.103 739.509 -459.9 746.102 -440.71 751.938C-421.734 757.708 -402.319 762.874 -383.005 767.294C-363.869 771.672 -344.381 775.42 -325.083 778.434C-305.922 781.427 -286.499 783.765 -267.354 785.385C-248.303 786.997 -229.085 787.934 -210.233 788.171C-191.428 788.407 -172.553 787.953 -154.131 786.819C-135.71 785.685 -117.316 783.846 -99.4597 781.354C-81.5615 778.855 -63.7881 775.642 -46.6326 771.803C-29.3963 767.946 -12.3818 763.367 3.93852 758.194C20.3729 752.984 36.49 747.049 51.8421 740.554C67.3342 733.999 82.4156 726.718 96.667 718.912C111.077 711.019 124.984 702.4 138.004 693.295C151.191 684.073 163.788 674.126 175.444 663.733C187.27 653.188 198.419 641.924 208.582 630.251C239.822 594.372 262.231 554.318 275.189 511.202C278.331 500.744 280.944 489.983 282.955 479.217C284.95 468.53 286.403 457.568 287.272 446.634C288.136 435.767 288.445 424.653 288.192 413.601C287.939 402.6 287.122 391.384 285.764 380.263C283.903 365.03 280.974 349.541 277.059 334.227C273.15 318.939 268.17 303.48 262.257 288.281C256.337 273.065 249.349 257.767 241.487 242.811C233.594 227.798 224.642 212.79 214.88 198.206C205.053 183.526 194.181 168.94 182.566 154.854C170.846 140.64 158.099 126.607 144.679 113.145C131.106 99.5289 116.528 86.1796 101.351 73.4672C85.9677 60.5832 69.604 48.0485 52.7138 36.2109ZM53.5748 34.9824C290.16 200.794 361.906 456.442 209.713 631.236C44.4909 820.994 -322.12 843.558 -609.135 681.634C-631.768 668.865 -653.268 655.306 -673.521 641.111C-910.106 475.3 -981.853 219.652 -829.66 44.8576C-664.437 -144.9 -297.827 -167.464 -10.812 -5.5406C11.8213 7.22828 33.3212 20.7875 53.5748 34.9824Z" fill="#333333"/>
</g>
</g>
<defs>
<clipPath id="clip0">
<rect width="323" height="852" fill="white"/>
</clipPath>
</defs>
</svg>
