<svg width="14" height="15" viewBox="0 0 14 15" fill="none" xmlns="http://www.w3.org/2000/svg">
<path d="M11.2161 9.35673C10.563 9.35632 9.91407 9.2533 9.29295 9.05145C9.19819 9.01928 9.09629 9.01446 8.99891 9.03755C8.90154 9.06063 8.81264 9.11068 8.7424 9.18197L7.88657 10.2553C6.26197 9.45883 4.94327 8.15172 4.13247 6.53422L5.19532 5.62963C5.26479 5.55714 5.31333 5.46719 5.33578 5.36933C5.35824 5.27147 5.35376 5.16935 5.32283 5.07383C5.12003 4.45282 5.01872 3.80317 5.0228 3.1499C5.02142 3.0069 4.96385 2.87019 4.86253 2.76928C4.7612 2.66838 4.62425 2.61138 4.48125 2.6106H2.59632C2.30154 2.6106 1.94751 2.74111 1.94751 3.1499C1.96769 5.60191 2.95066 7.94779 4.68449 9.68176C6.41832 11.4157 8.76412 12.3989 11.2161 12.4193C11.2948 12.4155 11.3719 12.3954 11.4425 12.3604C11.5131 12.3253 11.5756 12.2761 11.6263 12.2157C11.6769 12.1554 11.7145 12.0852 11.7368 12.0096C11.759 11.934 11.7654 11.8546 11.7554 11.7765V9.89603C11.7541 9.75343 11.6968 9.61705 11.596 9.5162C11.4951 9.41536 11.3587 9.3581 11.2161 9.35673Z" fill="white"/>
</svg>
