<svg width="14" height="14" viewBox="0 0 14 14" fill="none" xmlns="http://www.w3.org/2000/svg">
<path d="M11.2118 2.65979H2.49293C2.20467 2.66078 1.92858 2.77609 1.72524 2.98042C1.5219 3.18474 1.40793 3.46138 1.40833 3.74964L1.40308 10.2888C1.40387 10.5776 1.51895 10.8543 1.72316 11.0585C1.92738 11.2627 2.20413 11.3778 2.49293 11.3786H11.2118C11.5006 11.3778 11.7773 11.2627 11.9815 11.0585C12.1857 10.8543 12.3008 10.5776 12.3016 10.2888V3.74964C12.3008 3.46084 12.1857 3.18409 11.9815 2.97988C11.7773 2.77566 11.5006 2.66058 11.2118 2.65979ZM11.2118 4.8395L6.85234 7.56375L2.49293 4.8395V3.74964L6.85234 6.4739L11.2118 3.74964V4.8395Z" fill="white"/>
</svg>
