<svg width="13" height="12" viewBox="0 0 13 12" fill="none" xmlns="http://www.w3.org/2000/svg">
<path d="M12.3947 5.78811C12.3883 4.68573 12.0665 3.60823 11.4673 2.68288C10.8681 1.75752 10.0167 1.02297 9.01346 0.565994C8.01024 0.109014 6.89719 -0.0513063 5.80579 0.103969C4.71439 0.259245 3.69022 0.72363 2.85426 1.44227C2.0183 2.16091 1.40548 3.10379 1.08817 4.15953C0.770863 5.21527 0.76233 6.33977 1.06358 7.40021C1.36483 8.46064 1.96328 9.41271 2.78823 10.144C3.61319 10.8752 4.63019 11.3551 5.71911 11.5269V7.46901H4.25122V5.78811H5.71911V4.50773C5.68667 4.20974 5.72012 3.90826 5.8171 3.62462C5.91408 3.34099 6.07221 3.08213 6.2803 2.86638C6.4884 2.65063 6.74137 2.48325 7.02132 2.37609C7.30127 2.26893 7.60135 2.22461 7.90032 2.24627C8.33355 2.25225 8.76576 2.29011 9.19344 2.35953V3.79067H8.46512C8.34034 3.77455 8.21354 3.78675 8.09412 3.82635C7.9747 3.86595 7.86573 3.93193 7.7753 4.01941C7.68487 4.10688 7.6153 4.2136 7.57176 4.33164C7.52822 4.44968 7.51182 4.57601 7.52378 4.70125V5.78811H9.12593L8.86941 7.46901H7.52378V11.5269C8.88525 11.3053 10.1233 10.606 11.0159 9.55434C11.9085 8.50269 12.3973 7.16749 12.3947 5.78811Z" fill="white"/>
</svg>
