<svg width="1388" height="1052" viewBox="0 0 1388 1052" fill="none" xmlns="http://www.w3.org/2000/svg">
<g clip-path="url(#clip0)">
<path d="M702.369 153.851C795.902 205.695 992.61 371.206 1011.87 391.871C1182.32 574.718 1251.56 780.087 1170.37 926.565C1115.92 1024.8 949.078 1034.66 807.245 1045.77C634.981 1059.27 474.207 1053.99 267.071 939.182C-111.605 729.287 -321.138 383.331 -200.934 166.468C-80.73 -50.3956 323.692 -56.0437 702.369 153.851Z" fill="#253163"/>
<path d="M1134.18 1038.86C1129.99 1041.87 1125.44 1044.35 1120.64 1046.25C1119.39 1046.75 1118.12 1047.22 1116.84 1047.65H1051.25C1050.99 1047.18 1050.73 1046.72 1050.46 1046.25C1045.14 1036.72 1040.32 1026.83 1038.95 1016.07C1037.31 1003.15 1041.91 988.527 1053.28 982.18C1054.77 981.349 1056.35 980.689 1057.99 980.211C1058.67 980.002 1059.36 979.836 1060.06 979.686C1064.32 978.739 1068.76 978.946 1072.92 980.283C1077.07 981.621 1080.8 984.042 1083.71 987.297C1086.62 990.552 1088.62 994.524 1089.48 998.804C1090.35 1003.08 1090.06 1007.52 1088.65 1011.65C1098.29 1001.76 1096.49 985.732 1093.17 972.334C1089.84 958.935 1085.8 944.021 1092.58 931.98C1096.34 925.284 1102.97 921.129 1110.4 919.454C1110.63 919.405 1110.86 919.356 1111.08 919.314C1119.94 917.521 1129.15 919.136 1136.87 923.836C1151.08 932.788 1158.38 949.775 1160.75 966.406C1164.57 993.177 1156.12 1023.05 1134.18 1038.86Z" fill="#F2F2F2"/>
<path d="M1065.2 988.219C1070.45 998.879 1072.13 1010.95 1069.98 1022.63C1068.36 1031.2 1064.78 1039.28 1059.53 1046.25C1059.18 1046.72 1058.81 1047.19 1058.44 1047.64H1055.85C1056.25 1047.19 1056.64 1046.72 1057.01 1046.25C1064.55 1036.94 1068.74 1025.37 1068.92 1013.4C1069.1 1001.42 1065.25 989.736 1057.99 980.211C1058.66 980.001 1059.36 979.836 1060.05 979.686C1062.02 982.37 1063.74 985.226 1065.2 988.218L1065.2 988.219Z" fill="white"/>
<path d="M1127.95 995.949C1127.39 1001.85 1125.97 1007.64 1123.74 1013.14C1121.68 1018 1118.91 1022.53 1115.51 1026.57C1108.58 1034.92 1099.4 1041.19 1089.44 1045.37C1088.71 1045.68 1087.98 1045.97 1087.24 1046.25C1085.95 1046.75 1084.66 1047.21 1083.35 1047.65H1076.28C1077.95 1047.23 1079.61 1046.76 1081.25 1046.25C1085.15 1045.03 1088.96 1043.53 1092.64 1041.76C1101.99 1037.32 1110.11 1030.66 1116.29 1022.35C1122.92 1013.21 1125.84 1002.21 1126.34 991.033C1126.87 979.072 1125.32 966.895 1122.59 955.254C1119.8 943.324 1115.56 931.78 1109.97 920.881C1109.84 920.634 1109.82 920.348 1109.9 920.083C1109.98 919.818 1110.16 919.593 1110.4 919.456C1110.6 919.322 1110.84 919.272 1111.08 919.316C1111.2 919.346 1111.31 919.403 1111.4 919.481C1111.49 919.558 1111.56 919.656 1111.61 919.766C1112.3 921.116 1112.98 922.461 1113.63 923.823C1119.05 935.174 1123.05 947.154 1125.52 959.488C1127.92 971.385 1129.2 983.834 1127.95 995.949Z" fill="white"/>
<path d="M836.292 849.35C830.491 849.35 824.821 847.63 819.998 844.407C815.175 841.185 811.416 836.604 809.197 831.245C806.977 825.886 806.396 819.99 807.528 814.301C808.659 808.612 811.452 803.386 815.554 799.284C819.656 795.183 824.881 792.389 830.57 791.258C836.259 790.126 842.156 790.707 847.515 792.927C852.874 795.147 857.454 798.906 860.677 803.728C863.9 808.551 865.62 814.222 865.62 820.022C865.62 823.873 864.861 827.687 863.387 831.245C861.913 834.804 859.753 838.037 857.03 840.76C854.306 843.483 851.073 845.644 847.515 847.117C843.957 848.591 840.143 849.35 836.292 849.35V849.35ZM836.292 792.095C830.768 792.095 825.369 793.733 820.776 796.802C816.183 799.871 812.603 804.233 810.489 809.336C808.375 814.439 807.822 820.054 808.899 825.472C809.977 830.89 812.637 835.866 816.542 839.772C820.448 843.678 825.424 846.338 830.841 847.416C836.259 848.494 841.874 847.942 846.978 845.828C852.081 843.715 856.443 840.135 859.512 835.543C862.582 830.951 864.22 825.551 864.221 820.027C864.221 816.36 863.499 812.728 862.095 809.339C860.692 805.95 858.635 802.871 856.041 800.277C853.448 797.684 850.369 795.626 846.98 794.222C843.592 792.819 839.96 792.096 836.292 792.096V792.095Z" fill="white"/>
<path d="M954.989 755.09C949.189 755.09 943.518 753.37 938.696 750.147C933.873 746.925 930.114 742.345 927.894 736.986C925.674 731.627 925.093 725.73 926.225 720.041C927.357 714.352 930.15 709.126 934.251 705.024C938.353 700.923 943.579 698.13 949.268 696.998C954.957 695.866 960.853 696.447 966.212 698.667C971.571 700.887 976.152 704.646 979.374 709.469C982.597 714.292 984.317 719.962 984.317 725.762C984.317 733.541 981.227 741 975.727 746.5C970.227 752 962.767 755.09 954.989 755.09ZM954.989 697.836C949.465 697.836 944.066 699.474 939.473 702.542C934.88 705.611 931.3 709.973 929.187 715.076C927.073 720.179 926.519 725.795 927.597 731.212C928.674 736.63 931.334 741.606 935.239 745.512C939.145 749.418 944.121 752.078 949.539 753.156C954.956 754.234 960.572 753.682 965.675 751.568C970.778 749.455 975.14 745.876 978.21 741.283C981.279 736.691 982.917 731.291 982.918 725.768C982.918 722.1 982.196 718.468 980.792 715.08C979.389 711.691 977.331 708.612 974.738 706.019C972.144 703.425 969.066 701.368 965.677 699.965C962.289 698.561 958.657 697.839 954.989 697.839V697.836Z" fill="white"/>
<path d="M1082.07 710.404C1076.26 710.404 1070.59 708.684 1065.77 705.461C1060.95 702.238 1057.19 697.658 1054.97 692.299C1052.75 686.94 1052.17 681.043 1053.3 675.354C1054.43 669.665 1057.23 664.44 1061.33 660.338C1065.43 656.236 1070.65 653.443 1076.34 652.312C1082.03 651.18 1087.93 651.761 1093.29 653.981C1098.65 656.2 1103.23 659.959 1106.45 664.782C1109.67 669.605 1111.39 675.275 1111.39 681.076C1111.39 688.854 1108.3 696.314 1102.8 701.814C1097.3 707.314 1089.84 710.404 1082.07 710.404ZM1082.07 653.149C1076.54 653.149 1071.14 654.787 1066.55 657.856C1061.96 660.925 1058.38 665.286 1056.26 670.389C1054.15 675.493 1053.6 681.108 1054.67 686.526C1055.75 691.943 1058.41 696.92 1062.32 700.826C1066.22 704.732 1071.2 707.392 1076.61 708.47C1082.03 709.548 1087.65 708.995 1092.75 706.882C1097.85 704.768 1102.22 701.189 1105.29 696.597C1108.36 692.004 1109.99 686.605 1109.99 681.081C1109.99 677.413 1109.27 673.781 1107.87 670.392C1106.47 667.004 1104.41 663.925 1101.81 661.331C1099.22 658.737 1096.14 656.68 1092.75 655.276C1089.37 653.872 1085.73 653.15 1082.07 653.15V653.149Z" fill="white"/>
<path d="M1240.02 756.487C1234.22 756.487 1228.55 754.767 1223.73 751.544C1218.91 748.321 1215.15 743.741 1212.93 738.382C1210.71 733.023 1210.13 727.126 1211.26 721.437C1212.39 715.748 1215.18 710.523 1219.29 706.421C1223.39 702.319 1228.61 699.526 1234.3 698.395C1239.99 697.263 1245.89 697.844 1251.25 700.064C1256.61 702.283 1261.19 706.042 1264.41 710.865C1267.63 715.688 1269.35 721.358 1269.35 727.159C1269.35 731.01 1268.59 734.824 1267.12 738.382C1265.64 741.94 1263.48 745.173 1260.76 747.897C1258.04 750.62 1254.8 752.78 1251.25 754.254C1247.69 755.728 1243.87 756.487 1240.02 756.487V756.487ZM1240.02 699.232C1234.5 699.232 1229.1 700.87 1224.51 703.939C1219.91 707.008 1216.33 711.369 1214.22 716.472C1212.11 721.576 1211.55 727.191 1212.63 732.609C1213.71 738.026 1216.37 743.003 1220.27 746.909C1224.18 750.815 1229.15 753.475 1234.57 754.553C1239.99 755.631 1245.61 755.078 1250.71 752.965C1255.81 750.851 1260.17 747.272 1263.24 742.68C1266.31 738.087 1267.95 732.688 1267.95 727.164C1267.95 723.496 1267.23 719.864 1265.83 716.475C1264.42 713.087 1262.37 710.008 1259.77 707.414C1257.18 704.82 1254.1 702.763 1250.71 701.359C1247.32 699.955 1243.69 699.233 1240.02 699.233V699.232Z" fill="#3F3D56"/>
<path d="M1341.8 827.006C1336 827.006 1330.33 825.286 1325.51 822.064C1320.69 818.841 1316.93 814.261 1314.71 808.902C1312.49 803.543 1311.91 797.646 1313.04 791.957C1314.17 786.268 1316.96 781.042 1321.07 776.941C1325.17 772.839 1330.39 770.046 1336.08 768.914C1341.77 767.783 1347.67 768.363 1353.03 770.583C1358.39 772.803 1362.97 776.562 1366.19 781.385C1369.41 786.208 1371.13 791.878 1371.13 797.678C1371.13 801.53 1370.37 805.343 1368.9 808.902C1367.43 812.46 1365.26 815.693 1362.54 818.416C1359.82 821.14 1356.59 823.3 1353.03 824.774C1349.47 826.248 1345.65 827.006 1341.8 827.006V827.006ZM1341.8 769.752C1336.28 769.752 1330.88 771.39 1326.29 774.458C1321.69 777.527 1318.11 781.889 1316 786.992C1313.89 792.095 1313.33 797.711 1314.41 803.128C1315.49 808.546 1318.15 813.522 1322.05 817.428C1325.96 821.334 1330.94 823.995 1336.35 825.072C1341.77 826.15 1347.39 825.598 1352.49 823.484C1357.59 821.371 1361.95 817.792 1365.02 813.199C1368.09 808.607 1369.73 803.207 1369.73 797.684C1369.73 794.016 1369.01 790.384 1367.61 786.995C1366.2 783.606 1364.15 780.527 1361.55 777.933C1358.96 775.34 1355.88 773.282 1352.49 771.879C1349.1 770.475 1345.47 769.752 1341.8 769.752V769.752Z" fill="#3F3D56"/>
<path d="M971.746 717.734L975.237 717.035C975.237 717.035 972.304 720.317 971.746 720.526C971.694 721.223 971.694 721.924 971.746 722.621C965.044 751.388 940.327 738.68 940.327 738.68C949.334 738.889 950.102 735.189 950.102 735.189C944.865 734.421 943.818 731 943.818 731C944.287 731.248 944.832 731.314 945.348 731.185C945.863 731.056 946.313 730.742 946.611 730.302C940.955 728.835 941.723 723.319 941.723 723.319C942.731 724.047 943.909 724.504 945.144 724.646C944.516 723.878 939.21 717.524 942.422 714.243C942.422 714.243 946.332 721.225 956.598 721.854L957.296 721.714C957.178 721.211 957.131 720.694 957.157 720.178C957.157 718.234 957.929 716.37 959.303 714.996C960.677 713.621 962.541 712.848 964.485 712.848C969.372 712.848 970.42 715.641 970.42 715.641L973.91 713.546C973.841 713.544 973.492 717.035 971.746 717.734Z" fill="white"/>
<path d="M1194.71 1028.54L1202.4 1032.31L1220.59 1004.45L1209.24 998.889L1194.71 1028.54Z" fill="#FFB8B8"/>
<path d="M1193.98 1025.07L1209.12 1032.49C1210.38 1033.11 1211.51 1033.97 1212.45 1035.03C1213.38 1036.09 1214.1 1037.32 1214.55 1038.66C1215.01 1039.99 1215.2 1041.4 1215.11 1042.81C1215.02 1044.22 1214.65 1045.59 1214.03 1046.86L1213.88 1047.17L1189.1 1035.02L1193.98 1025.07Z" fill="#2F2E41"/>
<path d="M1270.88 1041.67H1279.44L1283.51 1008.65H1270.88L1270.88 1041.67Z" fill="#FFB8B8"/>
<path d="M1268.7 1036.08H1285.56C1288.41 1036.08 1291.14 1037.21 1293.15 1039.23C1295.17 1041.24 1296.3 1043.98 1296.3 1046.83V1047.17H1268.7L1268.7 1036.08Z" fill="#2F2E41"/>
<path d="M1252.49 813.803C1261.96 813.803 1269.64 806.125 1269.64 796.654C1269.64 787.183 1261.96 779.505 1252.49 779.505C1243.02 779.505 1235.34 787.183 1235.34 796.654C1235.34 806.125 1243.02 813.803 1252.49 813.803Z" fill="#FFB8B8"/>
<path d="M1269.57 1030.78C1268.76 1030.78 1267.98 1030.47 1267.4 1029.91C1266.82 1029.35 1266.47 1028.58 1266.44 1027.78L1259.81 939.547C1259.8 939.318 1259.71 939.097 1259.56 938.92C1259.42 938.744 1259.22 938.62 1258.99 938.569C1258.77 938.518 1258.53 938.542 1258.32 938.637C1258.11 938.733 1257.94 938.894 1257.83 939.097L1215.43 1020.05C1215.04 1020.77 1214.39 1021.32 1213.61 1021.57C1212.82 1021.83 1211.98 1021.76 1211.24 1021.4L1199.42 1015.49C1198.68 1015.12 1198.11 1014.46 1197.85 1013.68C1197.58 1012.89 1197.64 1012.03 1198.01 1011.29L1223.31 960.016L1240.07 921.613C1246.54 908.87 1253.4 902.304 1261.07 901.538C1268.93 900.754 1277.32 906.158 1286.74 918.063L1286.81 918.161V918.284L1285.41 1026.06C1285.42 1026.84 1285.13 1027.6 1284.6 1028.18C1284.07 1028.76 1283.34 1029.11 1282.56 1029.18L1269.88 1030.77C1269.77 1030.78 1269.67 1030.78 1269.57 1030.78Z" fill="#2F2E41"/>
<path d="M1234.39 927.815C1235.33 927.239 1236.12 926.466 1236.72 925.549C1237.33 924.632 1237.72 923.595 1237.88 922.51C1238.04 921.425 1237.95 920.318 1237.64 919.268C1237.32 918.219 1236.78 917.251 1236.05 916.433L1238.63 848.108L1226.07 849.675L1225.01 916.144C1223.71 917.463 1222.95 919.21 1222.86 921.054C1222.77 922.898 1223.36 924.711 1224.52 926.15C1225.67 927.589 1227.32 928.553 1229.14 928.86C1230.96 929.166 1232.83 928.795 1234.39 927.815V927.815Z" fill="#FFB8B8"/>
<path d="M1242.34 860.188L1225.47 858.27C1224.99 858.216 1224.52 858.058 1224.11 857.809C1223.7 857.559 1223.34 857.223 1223.07 856.824C1222.8 856.425 1222.61 855.972 1222.53 855.495C1222.45 855.019 1222.47 854.53 1222.6 854.063L1226.95 837.699C1227.25 835.25 1228.51 833.019 1230.45 831.494C1232.39 829.969 1234.86 829.273 1237.31 829.559C1239.76 829.845 1242 831.089 1243.53 833.019C1245.07 834.949 1245.78 837.41 1245.51 839.862L1246.09 856.732C1246.1 857.215 1246.01 857.696 1245.83 858.142C1245.64 858.588 1245.36 858.989 1245.01 859.317C1244.65 859.644 1244.23 859.892 1243.77 860.042C1243.31 860.193 1242.83 860.242 1242.34 860.188L1242.34 860.188Z" fill="white"/>
<path d="M1315.05 817.177C1314.96 817.554 1314.91 817.937 1314.88 818.322L1284.89 835.625L1277.6 831.425L1269.82 841.6L1282.01 850.283C1282.99 850.985 1284.18 851.348 1285.39 851.319C1286.59 851.289 1287.76 850.869 1288.71 850.12L1319.64 825.72C1321.03 826.236 1322.55 826.316 1324 825.947C1325.44 825.579 1326.73 824.781 1327.71 823.658C1328.69 822.536 1329.3 821.142 1329.46 819.664C1329.63 818.185 1329.34 816.691 1328.64 815.38C1327.93 814.069 1326.85 813.003 1325.52 812.324C1324.2 811.645 1322.7 811.386 1321.22 811.58C1319.75 811.775 1318.37 812.413 1317.26 813.412C1316.16 814.41 1315.39 815.721 1315.05 817.169V817.177Z" fill="#FFB8B8"/>
<path d="M1283.88 836.446L1274.19 849.009C1273.91 849.367 1273.56 849.661 1273.16 849.871C1272.76 850.081 1272.32 850.202 1271.87 850.227C1271.42 850.252 1270.97 850.179 1270.55 850.014C1270.13 849.849 1269.75 849.595 1269.44 849.27L1258.46 837.874C1257.55 837.175 1256.78 836.301 1256.21 835.304C1255.63 834.307 1255.26 833.206 1255.11 832.064C1254.96 830.922 1255.04 829.763 1255.35 828.652C1255.65 827.541 1256.17 826.501 1256.87 825.591C1257.58 824.682 1258.46 823.921 1259.46 823.353C1260.46 822.785 1261.56 822.42 1262.71 822.28C1263.85 822.141 1265.01 822.228 1266.12 822.538C1267.23 822.849 1268.26 823.375 1269.17 824.088L1282.93 831.786C1283.32 832.006 1283.67 832.309 1283.93 832.673C1284.2 833.038 1284.38 833.455 1284.47 833.898C1284.56 834.34 1284.56 834.797 1284.46 835.236C1284.36 835.676 1284.16 836.089 1283.88 836.446L1283.88 836.446Z" fill="white"/>
<path d="M1291.79 923.405L1273.18 832.755C1272.3 828.446 1269.78 824.648 1266.15 822.158C1262.52 819.668 1258.07 818.681 1253.74 819.404L1247.53 820.438C1245.37 820.798 1243.31 821.578 1241.45 822.735C1239.6 823.893 1237.99 825.404 1236.72 827.182V827.182C1234.7 830.008 1233.34 833.251 1232.74 836.672C1232.14 840.092 1232.31 843.604 1233.25 846.949L1243.52 883.714L1235.9 923.102C1235.82 923.539 1235.84 923.99 1235.96 924.417C1236.09 924.844 1236.31 925.236 1236.62 925.558C1236.92 925.881 1237.3 926.125 1237.72 926.271C1238.14 926.417 1238.59 926.461 1239.03 926.398C1242.85 925.852 1249.14 925.073 1256.37 924.648L1260.28 909.548L1261.87 924.408C1270.75 924.16 1280.39 924.595 1288.33 926.658C1288.79 926.781 1289.28 926.784 1289.74 926.668C1290.2 926.552 1290.63 926.319 1290.97 925.993C1291.32 925.667 1291.58 925.257 1291.72 924.804C1291.86 924.35 1291.89 923.867 1291.8 923.401L1291.79 923.405Z" fill="#253163"/>
<path d="M1259.09 792.838C1263.5 795.855 1269.29 798.956 1273.79 795.743C1275.2 794.671 1276.22 793.171 1276.71 791.469C1277.19 789.766 1277.11 787.953 1276.48 786.3C1274.32 780.136 1268.4 777.422 1262.74 775.341C1255.37 772.637 1247.36 770.485 1239.76 772.422C1232.15 774.359 1225.44 781.718 1226.81 789.44C1227.92 795.649 1233.77 800.817 1232.94 807.066C1232.1 813.359 1225.03 816.667 1218.78 817.792C1212.53 818.917 1205.54 819.278 1201.05 823.766C1195.32 829.49 1196.76 839.722 1202.14 845.766C1207.53 851.81 1215.67 854.55 1223.55 856.413C1233.99 858.88 1245.28 860.177 1255.2 856.082C1265.12 851.986 1272.83 840.963 1269.96 830.625C1268.75 826.259 1265.89 822.569 1263.13 818.976C1260.36 815.383 1257.57 811.625 1256.51 807.218C1255.63 803.543 1256.29 799.28 1258.72 796.525C1259.16 796.043 1259.44 795.433 1259.52 794.782C1259.59 794.132 1259.46 793.474 1259.14 792.904L1259.09 792.838Z" fill="#2F2E41"/>
<path d="M1090.05 666.571C1092.01 666.577 1093.88 667.356 1095.26 668.737C1096.64 670.118 1097.42 671.99 1097.43 673.944V688.686C1097.42 690.64 1096.64 692.512 1095.26 693.893C1093.88 695.275 1092.01 696.053 1090.05 696.059H1075.31C1073.36 696.053 1071.48 695.275 1070.1 693.893C1068.72 692.512 1067.94 690.64 1067.94 688.686V673.943C1067.94 671.99 1068.72 670.118 1070.1 668.736C1071.48 667.355 1073.36 666.576 1075.31 666.571H1090.05L1090.05 666.571ZM1090.05 663.622H1075.31C1072.57 663.63 1069.95 664.72 1068.02 666.654C1066.09 668.587 1065 671.208 1064.99 673.942V688.685C1065 691.42 1066.09 694.04 1068.02 695.973C1069.95 697.907 1072.57 698.997 1075.31 699.005H1090.05C1092.79 698.997 1095.41 697.907 1097.34 695.974C1099.27 694.04 1100.36 691.42 1100.37 688.685V673.943C1100.36 671.208 1099.28 668.588 1097.34 666.655C1095.41 664.721 1092.79 663.631 1090.05 663.623L1090.05 663.622Z" fill="white"/>
<path d="M1092.26 673.944C1091.68 673.942 1091.12 673.709 1090.71 673.295C1090.29 672.881 1090.06 672.319 1090.06 671.735C1090.06 671.15 1090.29 670.589 1090.71 670.176C1091.12 669.762 1091.68 669.53 1092.27 669.53C1092.85 669.53 1093.41 669.762 1093.83 670.176C1094.24 670.589 1094.47 671.15 1094.47 671.735C1094.48 672.319 1094.24 672.881 1093.83 673.295C1093.42 673.709 1092.86 673.942 1092.27 673.944H1092.26Z" fill="white"/>
<path d="M1082.68 675.417C1083.85 675.417 1084.99 675.763 1085.96 676.411C1086.93 677.059 1087.68 677.98 1088.13 679.058C1088.58 680.136 1088.69 681.322 1088.47 682.466C1088.24 683.61 1087.68 684.661 1086.85 685.485C1086.03 686.31 1084.98 686.872 1083.83 687.1C1082.69 687.327 1081.5 687.21 1080.42 686.764C1079.35 686.318 1078.43 685.562 1077.78 684.592C1077.13 683.622 1076.78 682.482 1076.78 681.315C1076.78 679.751 1077.4 678.251 1078.51 677.145C1079.62 676.039 1081.12 675.417 1082.68 675.417ZM1082.68 672.469C1080.93 672.469 1079.22 672.987 1077.77 673.959C1076.31 674.931 1075.18 676.313 1074.51 677.929C1073.84 679.546 1073.66 681.324 1074 683.04C1074.35 684.757 1075.19 686.333 1076.43 687.57C1077.66 688.807 1079.24 689.65 1080.95 689.991C1082.67 690.333 1084.45 690.158 1086.07 689.488C1087.68 688.819 1089.06 687.685 1090.04 686.23C1091.01 684.775 1091.53 683.065 1091.53 681.315C1091.53 678.969 1090.59 676.719 1088.94 675.06C1087.28 673.401 1085.03 672.469 1082.68 672.469V672.469Z" fill="white"/>
<path d="M920.565 1038.38L912.234 1036.42L915.84 1003.34L928.137 1006.24L920.565 1038.38Z" fill="#FFB8B8"/>
<path d="M920.787 1046.96L893.922 1040.63L894.002 1040.29C894.656 1037.52 896.384 1035.12 898.807 1033.62C901.23 1032.12 904.149 1031.64 906.922 1032.3V1032.3L923.331 1036.16L920.787 1046.96Z" fill="#2F2E41"/>
<path d="M953.034 1038.66H944.474L940.402 1005.64H953.035L953.034 1038.66Z" fill="#FFB8B8"/>
<path d="M955.216 1046.96H927.614V1046.61C927.614 1043.76 928.746 1041.03 930.76 1039.01C932.775 1037 935.508 1035.87 938.357 1035.87H955.216L955.216 1046.96Z" fill="#2F2E41"/>
<path d="M999.266 908.081C999.839 907.146 1000.2 906.097 1000.33 905.007C1000.45 903.918 1000.33 902.814 999.984 901.775C999.636 900.735 999.064 899.784 998.308 898.99C997.552 898.195 996.632 897.576 995.611 897.175L970.549 833.621L956.605 842.086L985.625 901.897C985.066 903.657 985.172 905.56 985.922 907.247C986.673 908.934 988.017 910.287 989.698 911.049C991.38 911.812 993.282 911.931 995.046 911.384C996.809 910.837 998.311 909.662 999.266 908.082V908.081Z" fill="#FFB8B8"/>
<path d="M975.875 844.132L959.945 850.029C959.492 850.197 959.008 850.265 958.526 850.229C958.044 850.192 957.575 850.053 957.152 849.819C956.729 849.586 956.361 849.264 956.074 848.875C955.787 848.487 955.586 848.041 955.487 847.568L952.003 830.996C951.571 829.842 951.372 828.615 951.416 827.384C951.461 826.153 951.749 824.943 952.263 823.824C952.777 822.704 953.507 821.698 954.412 820.862C955.317 820.026 956.378 819.377 957.534 818.953C958.69 818.529 959.919 818.338 961.15 818.39C962.38 818.443 963.588 818.738 964.704 819.26C965.82 819.781 966.822 820.518 967.652 821.428C968.482 822.338 969.124 823.403 969.541 824.563L977.661 839.361C977.893 839.785 978.032 840.254 978.066 840.736C978.101 841.218 978.032 841.702 977.863 842.155C977.694 842.608 977.429 843.019 977.087 843.36C976.745 843.701 976.333 843.965 975.88 844.133L975.875 844.132Z" fill="white"/>
<path d="M952.466 1026.81H952.34L940.207 1026.32C939.387 1026.29 938.611 1025.94 938.047 1025.35C937.482 1024.75 937.175 1023.96 937.191 1023.14L938.122 956.108C938.115 955.845 938.01 955.594 937.827 955.405C937.644 955.216 937.397 955.102 937.134 955.087C936.871 955.071 936.613 955.155 936.409 955.321C936.205 955.487 936.071 955.724 936.033 955.984L928.994 1023.09C928.922 1023.77 928.628 1024.41 928.157 1024.91C927.686 1025.41 927.064 1025.75 926.386 1025.86L926.344 1025.87L914.954 1024.97C914.505 1025.04 914.046 1025.01 913.61 1024.89C913.173 1024.76 912.769 1024.54 912.426 1024.24C912.082 1023.95 911.807 1023.58 911.619 1023.17C911.431 1022.75 911.336 1022.3 911.338 1021.85L912.019 908.193L967.912 911.731L955.589 1024.01C955.502 1024.78 955.136 1025.49 954.561 1026.01C953.985 1026.52 953.239 1026.81 952.466 1026.81V1026.81Z" fill="#2F2E41"/>
<path d="M942.248 808.972C951.72 808.972 959.397 801.294 959.397 791.823C959.397 782.352 951.72 774.674 942.248 774.674C932.777 774.674 925.1 782.352 925.1 791.823C925.1 801.294 932.777 808.972 942.248 808.972Z" fill="#FFB8B8"/>
<path d="M965.133 916.731C965.055 916.731 964.976 916.728 964.896 916.722L913.239 912.943C912.436 912.884 911.686 912.52 911.144 911.924C910.602 911.329 910.309 910.548 910.326 909.743L911.689 844.875C911.598 840.895 912.32 836.939 913.811 833.248C915.302 829.557 917.531 826.209 920.36 823.409C923.19 820.608 926.561 818.415 930.268 816.963C933.974 815.511 937.938 814.83 941.917 814.963C945.896 815.095 949.806 816.038 953.407 817.734C957.009 819.43 960.227 821.842 962.864 824.825C965.501 827.807 967.502 831.296 968.744 835.078C969.986 838.86 970.443 842.856 970.088 846.821C969.187 856.819 968.466 900.493 968.267 913.641C968.255 914.464 967.919 915.25 967.333 915.828C966.747 916.406 965.957 916.73 965.133 916.731V916.731Z" fill="white"/>
<path d="M873.076 811.082C873.162 811.458 873.218 811.841 873.243 812.227L903.24 829.53L910.53 825.33L918.299 835.51L906.115 844.194C905.131 844.896 903.946 845.259 902.737 845.23C901.529 845.2 900.362 844.78 899.413 844.031L868.484 819.63C867.089 820.147 865.569 820.226 864.127 819.858C862.685 819.489 861.39 818.691 860.413 817.568C859.436 816.446 858.824 815.053 858.658 813.574C858.492 812.095 858.78 810.601 859.484 809.29C860.188 807.979 861.274 806.913 862.599 806.234C863.923 805.556 865.422 805.296 866.898 805.49C868.373 805.685 869.754 806.324 870.858 807.322C871.961 808.32 872.735 809.631 873.075 811.079L873.076 811.082Z" fill="#FFB8B8"/>
<path d="M903.65 827.8C903.74 827.358 903.925 826.94 904.191 826.575C904.457 826.211 904.799 825.908 905.193 825.688L918.957 817.991C919.862 817.289 920.897 816.771 922.002 816.468C923.107 816.166 924.261 816.083 925.398 816.227C926.535 816.37 927.633 816.736 928.628 817.303C929.624 817.87 930.498 818.628 931.201 819.533C931.903 820.439 932.421 821.473 932.724 822.578C933.026 823.684 933.109 824.838 932.965 825.974C932.822 827.111 932.456 828.209 931.889 829.205C931.322 830.2 930.564 831.074 929.659 831.777L918.684 843.173C918.371 843.499 917.991 843.753 917.571 843.918C917.151 844.083 916.7 844.156 916.249 844.131C915.798 844.106 915.358 843.985 914.958 843.775C914.559 843.564 914.209 843.271 913.933 842.913L904.239 830.349C903.963 829.992 903.767 829.579 903.665 829.139C903.563 828.699 903.557 828.242 903.648 827.799L903.65 827.8Z" fill="white"/>
<path d="M951.111 805.399C948.472 805.379 945.881 804.691 943.579 803.399C941.278 802.107 939.342 800.253 937.951 798.009C937.801 797.773 936.976 796.56 936.019 795.159C933.333 791.215 932.704 790.277 932.65 790.14C931.924 788.264 929.616 787.541 927.809 787.263C927.472 787.211 927.131 787.166 926.787 787.119C924.242 786.778 921.612 786.425 920.167 783.628C919.109 781.575 917.377 773.215 918.707 771.172C920.373 768.61 923.574 769.441 926.669 770.246C928.649 770.76 930.696 771.296 932.328 770.954C939.4 769.482 947.416 767.815 954.495 772.126C957.322 773.922 959.627 776.43 961.18 779.397C962.732 782.365 963.477 785.688 963.34 789.035C963.148 796.551 959.87 802.484 954.57 804.906L953.467 805.227L952.847 805.302C952.27 805.367 951.691 805.4 951.11 805.401L951.111 805.399Z" fill="#2F2E41"/>
<path d="M1342.83 778.69C1338.41 778.691 1334.13 780.211 1330.71 782.995C1327.28 785.779 1324.91 789.658 1324.01 793.98C1323.1 798.302 1323.71 802.803 1325.73 806.729C1327.76 810.654 1331.07 813.765 1335.11 815.537C1335.03 814.058 1335.14 812.574 1335.45 811.124C1335.82 809.562 1337.92 800.642 1337.92 800.642C1337.5 799.684 1337.29 798.648 1337.3 797.603C1337.3 794.752 1338.95 792.624 1341.01 792.624C1342.76 792.624 1343.6 793.937 1343.6 795.509C1343.6 797.268 1342.48 799.896 1341.91 802.334C1341.79 802.786 1341.78 803.258 1341.89 803.713C1341.99 804.168 1342.19 804.592 1342.49 804.952C1342.79 805.312 1343.16 805.598 1343.59 805.786C1344.01 805.974 1344.48 806.059 1344.94 806.034C1348.58 806.034 1351.04 801.355 1351.04 795.809C1351.04 791.594 1348.2 788.444 1343.04 788.444C1341.8 788.395 1340.57 788.598 1339.42 789.041C1338.26 789.483 1337.21 790.156 1336.33 791.017C1335.44 791.879 1334.74 792.912 1334.27 794.053C1333.79 795.194 1333.56 796.42 1333.57 797.655C1333.51 799.026 1333.96 800.368 1334.84 801.424C1334.99 801.551 1335.1 801.723 1335.15 801.916C1335.2 802.109 1335.19 802.313 1335.11 802.498C1335.02 802.849 1334.81 803.698 1334.72 804.043C1334.7 804.147 1334.66 804.245 1334.6 804.33C1334.54 804.415 1334.46 804.483 1334.36 804.531C1334.27 804.578 1334.16 804.601 1334.06 804.6C1333.95 804.599 1333.85 804.573 1333.76 804.524C1331.07 803.425 1329.82 800.489 1329.82 797.173C1329.82 791.713 1334.43 785.163 1343.56 785.163C1350.9 785.163 1355.74 790.477 1355.74 796.177C1355.74 803.723 1351.54 809.355 1345.36 809.355C1343.28 809.355 1341.33 808.23 1340.66 806.96C1340.66 806.96 1339.54 811.39 1339.3 812.248C1338.86 813.707 1338.21 815.094 1337.37 816.369C1340.02 817.15 1342.8 817.354 1345.53 816.965C1348.26 816.577 1350.88 815.606 1353.2 814.118C1355.52 812.63 1357.5 810.66 1358.99 808.341C1360.48 806.023 1361.46 803.41 1361.86 800.68C1362.25 797.951 1362.06 795.168 1361.28 792.521C1360.51 789.874 1359.17 787.424 1357.37 785.339C1355.56 783.253 1353.33 781.58 1350.82 780.433C1348.31 779.286 1345.59 778.691 1342.83 778.69V778.69Z" fill="#3F3D56"/>
<path d="M1257.04 715.619L1232.31 708.008C1231.99 707.895 1231.66 707.845 1231.33 707.86C1231 707.876 1230.67 707.957 1230.37 708.099C1230.07 708.241 1229.8 708.441 1229.57 708.688C1229.35 708.935 1229.18 709.223 1229.06 709.537L1221.44 734.326C1221.25 734.998 1221.33 735.717 1221.65 736.334C1221.98 736.951 1222.53 737.42 1223.19 737.644L1247.92 745.252C1248.57 745.426 1249.28 745.334 1249.87 744.996C1250.46 744.657 1250.89 744.099 1251.07 743.443L1258.7 718.654C1258.8 718.346 1258.84 718.02 1258.81 717.698C1258.78 717.375 1258.68 717.061 1258.53 716.777C1258.37 716.493 1258.16 716.243 1257.9 716.043C1257.65 715.844 1257.35 715.699 1257.04 715.617L1257.04 715.619ZM1231.36 734.76L1227.12 733.454L1231.18 720.252L1235.42 721.558L1231.36 734.76ZM1234.06 718.944L1234.03 718.935C1233.42 718.747 1232.91 718.325 1232.61 717.76C1232.31 717.196 1232.24 716.536 1232.43 715.924C1232.62 715.313 1233.04 714.799 1233.6 714.497C1234.16 714.195 1234.82 714.129 1235.43 714.312C1236.05 714.496 1236.56 714.915 1236.87 715.477C1237.17 716.04 1237.24 716.699 1237.06 717.312C1236.87 717.925 1236.46 718.441 1235.9 718.747C1235.33 719.052 1234.68 719.123 1234.06 718.944H1234.06ZM1246.88 739.534L1242.63 738.228L1244.85 731.01C1245.38 729.281 1245.13 727.909 1243.59 727.437C1243.11 727.293 1242.6 727.302 1242.12 727.464C1241.64 727.625 1241.23 727.93 1240.93 728.337C1240.72 728.637 1240.56 728.976 1240.47 729.334L1238.16 736.846L1233.91 735.54L1237.97 722.339L1242.22 723.645L1241.65 725.482C1242.25 724.932 1242.98 724.552 1243.77 724.382C1244.56 724.212 1245.38 724.257 1246.14 724.514C1248.93 725.371 1250.47 727.857 1249.25 731.817L1246.88 739.534Z" fill="#3F3D56"/>
<path fill-rule="evenodd" clip-rule="evenodd" d="M855.461 820.139C855.461 816.476 854.41 812.889 852.435 809.804C850.459 806.719 847.641 804.265 844.314 802.732C840.987 801.199 837.29 800.651 833.661 801.154C830.032 801.657 826.624 803.188 823.838 805.568C821.053 807.948 819.008 811.076 817.945 814.581C816.883 818.087 816.846 821.824 817.841 825.35C818.836 828.875 820.821 832.042 823.56 834.475C826.298 836.908 829.677 838.505 833.295 839.078V825.683H828.427V820.14H833.295V815.916C833.295 811.115 836.158 808.456 840.537 808.456C841.974 808.476 843.409 808.602 844.828 808.831V813.549H842.41C840.03 813.549 839.285 815.026 839.285 816.544V820.14H844.602L843.753 825.683H839.285V839.079C843.795 838.365 847.902 836.065 850.867 832.593C853.832 829.121 855.462 824.705 855.461 820.139V820.139Z" fill="white"/>
<path d="M1370.8 1046.95C1370.8 1047.13 1370.73 1047.31 1370.6 1047.44C1370.47 1047.57 1370.29 1047.64 1370.11 1047.64H807.339C807.154 1047.64 806.976 1047.57 806.845 1047.44C806.714 1047.31 806.641 1047.13 806.641 1046.95C806.641 1046.76 806.714 1046.58 806.845 1046.45C806.976 1046.32 807.154 1046.25 807.339 1046.25H1370.11C1370.29 1046.25 1370.47 1046.32 1370.6 1046.45C1370.73 1046.58 1370.8 1046.76 1370.8 1046.95V1046.95Z" fill="#3F3D56"/>
</g>
<defs>
<clipPath id="clip0">
<rect width="1388" height="1052" fill="white"/>
</clipPath>
</defs>
</svg>
