<svg xmlns="http://www.w3.org/2000/svg" width="2031.112" height="1304.694" viewBox="0 0 2031.112 1304.694">
  <g id="Group_27" data-name="Group 27" transform="translate(1159 -152.306)">
    <g id="Circle_Pattern" data-name="Circle Pattern">
      <g id="Path_189" data-name="Path 189" transform="translate(571.566 152.306) rotate(68)" fill="none" opacity="0.2">
        <path d="M397,0C616.257,0,794,234.379,794,523.5c0,5.87,9.016,19.015,8.252,25.144-3.836,30.782-26.342,56.886-44.2,90.446C714.623,720.718,643.093,802.774,612.676,848.42,541.126,987.611,533.816,1047,397,1047,177.743,1047,0,812.621,0,523.5S177.743,0,397,0Z" stroke="none"/>
        <path d="M 397.0000610351562 2 C 383.5465698242188 2 369.9791259765625 2.9033203125 356.6745910644531 4.68505859375 C 343.5620422363281 6.4410400390625 330.3857727050781 9.0927734375 317.5117797851562 12.5665283203125 C 304.8023071289062 15.9959716796875 292.0816345214844 20.30908203125 279.7032470703125 25.385986328125 C 267.4605712890625 30.4072265625 255.2611083984375 36.2950439453125 243.4439086914062 42.8858642578125 C 231.7327270507812 49.417724609375 220.120849609375 56.79388427734375 208.9309692382812 64.8094482421875 C 197.8173828125 72.7703857421875 186.8602905273438 81.54815673828125 176.3638916015625 90.89892578125 C 155.4385986328125 109.5404052734375 135.7590942382812 130.9517211914062 117.8721923828125 154.5381469726562 C 99.9776611328125 178.1346435546875 83.73028564453125 204.1017456054688 69.58135986328125 231.7181396484375 C 55.2926025390625 259.6077270507812 43.0194091796875 289.4248046875 33.10272216796875 320.341064453125 C 28.09112548828125 335.96533203125 23.61376953125 352.0963745117188 19.79498291015625 368.2862548828125 C 15.9327392578125 384.6605224609375 12.6513671875 401.4886474609375 10.04205322265625 418.30322265625 C 7.3983154296875 435.3390502929688 5.38031005859375 452.7757568359375 4.04376220703125 470.1287841796875 C 2.6876220703125 487.7374877929688 2.00006103515625 505.6941528320312 2.00006103515625 523.5 C 2.00006103515625 541.305908203125 2.6876220703125 559.2625732421875 4.04376220703125 576.8712158203125 C 5.38031005859375 594.2242431640625 7.3983154296875 611.660888671875 10.04205322265625 628.69677734375 C 12.6513671875 645.5113525390625 15.9327392578125 662.3394775390625 19.79498291015625 678.7137451171875 C 23.61376953125 694.903564453125 28.09112548828125 711.03466796875 33.10272216796875 726.658935546875 C 43.0194091796875 757.5751953125 55.2926025390625 787.3922729492188 69.58135986328125 815.2818603515625 C 83.73028564453125 842.8982543945312 99.9776611328125 868.8653564453125 117.8721923828125 892.4618530273438 C 135.7590942382812 916.0482788085938 155.4385986328125 937.4595947265625 176.3638916015625 956.10107421875 C 186.8602905273438 965.4518432617188 197.8173828125 974.2296142578125 208.9309692382812 982.1905517578125 C 220.120849609375 990.2061157226562 231.7327270507812 997.582275390625 243.4439086914062 1004.114135742188 C 255.2611083984375 1010.704956054688 267.4605712890625 1016.5927734375 279.7032470703125 1021.614013671875 C 292.0816345214844 1026.69091796875 304.8023071289062 1031.004028320312 317.5117797851562 1034.433471679688 C 330.3857727050781 1037.9072265625 343.5620422363281 1040.558959960938 356.6745910644531 1042.31494140625 C 369.9791259765625 1044.0966796875 383.5465698242188 1045 397.0000610351562 1045 C 411.8076477050781 1045 424.8133850097656 1044.318115234375 436.7605895996094 1042.915283203125 C 448.6577758789062 1041.518432617188 459.1509704589844 1039.448120117188 468.8399047851562 1036.586303710938 C 478.3499145507812 1033.777221679688 486.8180541992188 1030.283081054688 494.7281799316406 1025.904418945312 C 502.3851013183594 1021.665893554688 509.3383178710938 1016.696105957031 515.9849853515625 1010.711303710938 C 522.3062744140625 1005.019592285156 528.2498779296875 998.49560546875 534.155517578125 990.7666625976562 C 539.5933837890625 983.6500244140625 545.0040283203125 975.4946899414062 550.6967163085938 965.8350830078125 C 561.5159301757812 947.4761352539062 572.19873046875 925.6392211914062 584.5682983398438 900.354248046875 C 592.3060302734375 884.53759765625 601.0760498046875 866.6105346679688 610.8968505859375 847.5051879882812 L 610.9486083984375 847.4046630859375 L 611.0113525390625 847.310546875 C 620.9359130859375 832.4170532226562 635.0593872070312 813.8746337890625 651.4129638671875 792.404296875 C 685.1134033203125 748.1596069335938 727.0545654296875 693.0955810546875 756.2884521484375 638.1509399414062 C 761.6737670898438 628.029296875 767.4541625976562 618.6237182617188 773.0443115234375 609.52783203125 C 779.5466918945312 598.94775390625 785.6882934570312 588.9542236328125 790.5620727539062 578.89599609375 C 793.1553955078125 573.54345703125 795.1783447265625 568.6118774414062 796.746337890625 563.819091796875 C 798.4840698242188 558.5074462890625 799.6356201171875 553.462890625 800.2669677734375 548.397216796875 C 800.4091186523438 547.2572021484375 800.0620727539062 545.491455078125 799.2355346679688 543.1488037109375 C 798.4265747070312 540.8558349609375 797.2573852539062 538.272705078125 796.1268310546875 535.774658203125 C 794.0045776367188 531.0857543945312 792.0000610351562 526.6567993164062 792.0000610351562 523.5 C 792.0000610351562 505.6941528320312 791.3124389648438 487.7374877929688 789.956298828125 470.1287841796875 C 788.6198120117188 452.7757568359375 786.601806640625 435.3390502929688 783.9580688476562 418.30322265625 C 781.3486938476562 401.4886474609375 778.0673828125 384.6605224609375 774.2051391601562 368.2862548828125 C 770.3862915039062 352.0963745117188 765.9089965820312 335.96533203125 760.8973999023438 320.341064453125 C 750.980712890625 289.4248046875 738.70751953125 259.6077270507812 724.418701171875 231.7181396484375 C 710.269775390625 204.1017456054688 694.0224609375 178.1346435546875 676.1278076171875 154.5381469726562 C 658.2408447265625 130.9517211914062 638.5614013671875 109.5404052734375 617.6360473632812 90.89892578125 C 607.1397705078125 81.54815673828125 596.1826171875 72.7703857421875 585.069091796875 64.8094482421875 C 573.8792724609375 56.79388427734375 562.2673950195312 49.417724609375 550.55615234375 42.8858642578125 C 538.739013671875 36.2950439453125 526.53955078125 30.4072265625 514.2967529296875 25.385986328125 C 501.9183044433594 20.30908203125 489.1977844238281 15.9959716796875 476.4883117675781 12.5665283203125 C 463.6143188476562 9.0927734375 450.4380493164062 6.4410400390625 437.3255004882812 4.68505859375 C 424.02099609375 2.9033203125 410.4535217285156 2 397.0000610351562 2 M 397.0000610351562 0 C 616.2569580078125 0 794.0000610351562 234.37890625 794.0000610351562 523.5 C 794.0000610351562 529.3702392578125 803.0155029296875 542.5151977539062 802.2516479492188 548.64453125 C 798.4156494140625 579.4261474609375 775.91015625 605.5302734375 758.0540771484375 639.0903930664062 C 714.6232299804688 720.7181396484375 643.0927124023438 802.7738647460938 612.6756591796875 848.4196166992188 C 541.126220703125 987.611328125 533.81640625 1047 397.0000610351562 1047 C 177.7429809570312 1047 6.103515625e-05 812.62109375 6.103515625e-05 523.5 C 6.103515625e-05 234.37890625 177.7429809570312 0 397.0000610351562 0 Z" stroke="none" fill="#707070"/>
      </g>
      <g id="Ellipse_10" data-name="Ellipse 10" transform="translate(-1159 410)" fill="none" stroke="#707070" stroke-width="2" opacity="0.2">
        <ellipse cx="982.5" cy="523.5" rx="982.5" ry="523.5" stroke="none"/>
        <ellipse cx="982.5" cy="523.5" rx="981.5" ry="522.5" fill="none"/>
      </g>
    </g>
  </g>
</svg>
