<svg width="1440" height="1044" viewBox="0 0 1440 1044" fill="none" xmlns="http://www.w3.org/2000/svg">
<g clip-path="url(#clip0)">
<rect width="1440" height="1044" fill="white"/>
<path d="M-301.079 92.6236C-259.504 11.0306 -43.4694 -11.6759 233.615 6.04565C307.702 10.7843 385.786 18.3597 466.085 28.4456C511.783 34.1862 558.127 40.7335 605.118 48.0877C954.344 102.73 1321.85 199.535 1541.49 311.453C2035.6 563.222 1414.38 560.923 1308.28 769.152C1202.18 977.381 895.585 1177.29 401.475 925.524C-92.6358 673.755 -407.18 300.853 -301.079 92.6236Z" fill="#253163"/>
<path d="M997.19 720.197C1046.25 720.197 1086.02 680.429 1086.02 631.372C1086.02 582.316 1046.25 542.548 997.19 542.548C948.134 542.548 908.365 582.316 908.365 631.372C908.365 680.429 948.134 720.197 997.19 720.197Z" fill="white"/>
<path d="M1008.81 705.167C991.104 705.167 973.798 699.917 959.079 690.082C944.36 680.246 932.887 666.267 926.113 649.912C919.338 633.556 917.566 615.559 921.019 598.196C924.473 580.833 932.998 564.885 945.516 552.367C958.034 539.849 973.982 531.324 991.345 527.87C1008.71 524.417 1026.71 526.189 1043.06 532.964C1059.42 539.738 1073.4 551.211 1083.23 565.93C1093.07 580.65 1098.32 597.955 1098.32 615.658C1098.29 639.389 1088.85 662.14 1072.07 678.921C1055.29 695.701 1032.54 705.14 1008.81 705.167ZM1008.81 527.516C991.374 527.516 974.333 532.686 959.838 542.371C945.343 552.056 934.046 565.822 927.375 581.928C920.704 598.034 918.959 615.756 922.36 632.854C925.761 649.952 934.155 665.657 946.482 677.984C958.809 690.31 974.514 698.705 991.612 702.106C1008.71 705.507 1026.43 703.761 1042.54 697.09C1058.64 690.419 1072.41 679.121 1082.09 664.627C1091.78 650.132 1096.95 633.091 1096.95 615.658C1096.95 604.083 1094.67 592.621 1090.24 581.927C1085.81 571.234 1079.32 561.517 1071.13 553.332C1062.95 545.147 1053.23 538.655 1042.54 534.225C1031.84 529.796 1020.38 527.516 1008.81 527.516Z" fill="#F5F5F5"/>
<path d="M1280.07 746.063H725.933V444.74H1280.07V746.063ZM727.299 744.696H1278.7V446.107H727.299V744.696Z" fill="#FDFDFD"/>
<path d="M866.196 467.961H744.684V480.712H866.196V467.961Z" fill="#F2F2F2"/>
<path d="M1048.46 467.961H926.201V480.712H1048.46V467.961Z" fill="#F2F2F2"/>
<path d="M1230.73 467.961H1109.22V480.712H1230.73V467.961Z" fill="#F2F2F2"/>
<path d="M874.202 475.487H751.214V461.821H874.202V475.487ZM752.58 474.12H872.836V463.188H752.581L752.58 474.12Z" fill="#F5F5F5"/>
<path d="M1056.64 475.487H933.647V461.821H1056.64V475.487ZM935.013 474.12H1055.27V463.188H935.013V474.12Z" fill="#F5F5F5"/>
<path d="M1239.07 475.487H1116.08V461.821H1239.07V475.487ZM1117.45 474.12H1237.7V463.188H1117.45V474.12Z" fill="#F5F5F5"/>
<path d="M1370.99 911.235H805.516V912.981H1370.99V911.235Z" fill="white"/>
<path d="M994.8 775.101L1037.85 691.742L1049.46 698.574L1000.27 778.518L994.8 775.101Z" fill="#3F3D56"/>
<path d="M969.857 793.208C969.857 793.208 977.79 799.442 978.691 786.104C978.806 783.986 979.36 781.915 980.318 780.022C981.277 778.129 982.618 776.457 984.257 775.11C987.849 772.24 993.02 770.277 999.237 774.077C1004.77 777.459 1006.02 782.363 1005.71 786.735C1005.44 789.866 1004.41 792.885 1002.72 795.534C1001.03 798.182 998.716 800.38 995.988 801.94C989.82 805.601 980.086 808.357 969.857 799.358C969.857 799.358 963.711 792.525 969.857 793.208Z" fill="#D6D6D6"/>
<path d="M1045.97 595.77C1055.13 595.77 1062.55 588.347 1062.55 579.19C1062.55 570.033 1055.13 562.61 1045.97 562.61C1036.82 562.61 1029.39 570.033 1029.39 579.19C1029.39 588.347 1036.82 595.77 1045.97 595.77Z" fill="#FFB8B8"/>
<path d="M1037.25 587.045C1037.25 587.045 1041.61 609.734 1039.87 614.097C1038.12 618.46 1064.3 612.352 1064.3 612.352C1064.3 612.352 1059.06 589.663 1059.94 584.426C1060.81 579.19 1037.25 587.045 1037.25 587.045Z" fill="#FFB8B8"/>
<path d="M1008.45 665.583L1010.2 689.144L1018.86 726.148L1021.54 736.268L1025.9 720.56L1021.54 684.782L1020.06 668.674L1008.45 665.583Z" fill="#FFB8B8"/>
<path d="M1100.08 662.093V686.527C1100.08 686.527 1097.46 717.942 1092.22 725.796C1086.99 733.65 1085.24 694.381 1085.24 694.381L1089.35 665.583L1100.08 662.093Z" fill="#FFB8B8"/>
<path d="M1022.41 738.013C1022.41 738.013 1018.05 743.249 1021.54 796.48C1025.03 849.711 1019.8 888.109 1031.14 888.109C1031.14 888.109 1027.65 899.454 1037.25 900.326C1046.85 901.198 1051.21 902.072 1052.09 899.453C1052.96 896.835 1054.7 884.618 1052.09 884.618C1052.09 884.618 1052.09 888.109 1053.83 874.146C1055.58 860.184 1055.58 793.863 1059.94 785.136L1073.9 817.425C1073.9 817.425 1073.9 832.259 1076.52 839.241C1079.14 846.223 1083.5 886.364 1083.5 886.364L1082.63 892.473C1082.63 892.473 1103.57 895.964 1104.44 892.473C1105.32 888.982 1105.32 883.747 1104.44 882.001C1103.57 880.256 1103.57 880.256 1105.32 876.765C1107.06 873.274 1107.06 870.656 1106.19 868.039C1105.32 865.421 1105.32 808.698 1105.32 808.698C1105.32 808.698 1103.57 739.758 1093.1 736.268C1082.63 732.778 1022.41 738.013 1022.41 738.013Z" fill="#2F2E41"/>
<path d="M1033.76 893.345L1026.78 905.562C1026.78 905.562 1015.87 901.635 1018.05 911.67C1036.81 912.979 1049.9 911.234 1049.9 911.234C1049.9 911.234 1054.27 912.979 1055.14 910.361C1056.01 907.744 1052.96 898.581 1050.34 898.581C1047.72 898.581 1033.76 893.345 1033.76 893.345Z" fill="#2F2E41"/>
<path d="M1084.37 889.854C1084.37 889.854 1077.39 905.562 1080.01 906.435C1082.63 907.307 1106.19 910.798 1107.93 911.67C1109.68 912.543 1118.4 913.416 1119.28 908.179C1120.15 902.943 1114.91 901.198 1114.91 901.198C1114.91 901.198 1105.31 899.453 1102.7 890.727C1100.08 882 1084.37 889.854 1084.37 889.854Z" fill="#2F2E41"/>
<path d="M1066.05 609.733C1066.05 609.733 1042.48 605.37 1037.25 609.733C1032.01 614.096 1010.2 622.823 1010.2 627.186C1010.2 631.55 1021.54 674.31 1021.54 674.31C1021.54 674.31 1015.43 738.885 1021.54 740.631C1027.65 742.376 1038.12 737.14 1050.34 743.249C1062.56 749.357 1097.46 738.012 1097.46 738.012C1097.46 738.012 1084.37 682.163 1087.86 671.691C1091.35 661.219 1093.97 625.44 1093.97 625.44C1093.97 625.44 1079.13 609.733 1066.05 609.733Z" fill="#8985A8"/>
<path d="M1016.3 624.569L1010.2 626.314C1010.2 626.314 997.107 667.329 1002.34 669.074C1007.58 670.82 1022.41 674.31 1024.16 674.31C1025.9 674.31 1016.3 624.569 1016.3 624.569Z" fill="#8985A8"/>
<path d="M1080.01 620.206L1093.97 625.442C1093.97 625.442 1112.3 659.476 1107.93 663.839C1103.57 668.202 1084.37 672.565 1084.37 672.565L1080.01 620.206Z" fill="#8985A8"/>
<path d="M1045.47 558.711C1044.09 558.461 1042.67 558.524 1041.32 558.894C1040.24 559.373 1039.25 560.026 1038.38 560.828C1036.8 562.086 1035.11 563.204 1033.34 564.167C1031.92 564.934 1030.4 565.645 1029.41 566.916C1028.95 567.558 1028.58 568.264 1028.31 569.011C1026.61 573.354 1026.15 578.085 1026.99 582.674C1027.08 583.325 1027.28 583.958 1027.57 584.549C1028.48 586.22 1030.48 586.878 1032.17 587.755C1035.37 589.417 1037.8 592.218 1040.43 594.693C1041.4 595.667 1042.5 596.512 1043.69 597.208C1047.44 599.252 1052.02 598.585 1056.23 597.862C1056.53 597.861 1056.82 597.802 1057.1 597.686C1057.37 597.571 1057.62 597.403 1057.83 597.191C1058.04 596.978 1058.21 596.727 1058.32 596.45C1058.43 596.174 1058.49 595.878 1058.49 595.58L1061.81 580.64C1062.41 578.426 1062.7 576.139 1062.66 573.845C1062.43 570.219 1060.46 565.195 1057.8 562.618C1054.7 559.618 1049.52 559.141 1045.47 558.711Z" fill="#2F2E41"/>
<path d="M977.206 911.252C990.048 911.252 1000.46 910.749 1000.46 910.127C1000.46 909.506 990.048 909.002 977.206 909.002C964.364 909.002 953.954 909.506 953.954 910.127C953.954 910.749 964.364 911.252 977.206 911.252Z" fill="#253163"/>
<path d="M971.956 913.503C985.212 913.503 995.958 912.999 995.958 912.378C995.958 911.756 985.212 911.252 971.956 911.252C958.7 911.252 947.954 911.756 947.954 912.378C947.954 912.999 958.7 913.503 971.956 913.503Z" fill="white"/>
<path d="M947.996 905.323C955.166 905.323 960.978 904.991 960.978 904.581C960.978 904.172 955.166 903.839 947.996 903.839C940.826 903.839 935.013 904.172 935.013 904.581C935.013 904.991 940.826 905.323 947.996 905.323Z" fill="#253163"/>
<path d="M994.458 921.721C1001.63 921.721 1007.44 921.389 1007.44 920.979C1007.44 920.57 1001.63 920.238 994.458 920.238C987.288 920.238 981.476 920.57 981.476 920.979C981.476 921.389 987.288 921.721 994.458 921.721Z" fill="#253163"/>
<g opacity="0.28">
<path opacity="0.28" d="M604.651 779.645L608.885 780.392" stroke="white" stroke-width="3.00028"/>
<path opacity="0.28" d="M730.815 801.891L735.049 802.638" stroke="white" stroke-width="3.00028"/>
<path opacity="0.28" d="M264.01 719.581L268.244 720.328" stroke="white" stroke-width="3.00028"/>
<path opacity="0.28" d="M390.173 741.827L394.407 742.573" stroke="white" stroke-width="3.00028"/>
<path opacity="0.28" d="M520.366 642.936L519.62 647.169" stroke="white" stroke-width="3.00028"/>
<path opacity="0.28" d="M493.081 797.677L492.335 801.91" stroke="white" stroke-width="3.00028"/>
<path opacity="0.28" d="M506.723 720.308L505.977 724.541" stroke="white" stroke-width="3.00028"/>
<path opacity="0.28" d="M479.438 875.048L478.692 879.282" stroke="white" stroke-width="3.00028"/>
</g>
</g>
<defs>
<clipPath id="clip0">
<rect width="1440" height="1044" fill="white"/>
</clipPath>
</defs>
</svg>
