<svg xmlns="http://www.w3.org/2000/svg" width="3005.44" height="2467.759" viewBox="0 0 3005.44 2467.759">
  <g id="Group_28" data-name="Group 28" transform="translate(657.346 -810.496)">
    <path id="Pattern" d="M564.155,0C686.243,0,843.977,242.882,990.639,582.755c39.214,90.875,77.478,188.216,114.1,289.707Q1136,959.1,1165.56,1049.507c146.47,447.917,253.918,943.066,253.918,1271.721,0,739.34-373.284,0-684.858,0S0,2078.034,0,1338.694,252.581,0,564.155,0Z" transform="matrix(0.454, -0.891, 0.891, 0.454, -657.346, 2075.26)" fill="#253163"/>
    <g id="undraw_innovative_b409" transform="translate(968 2042.042)">
      <circle id="Ellipse_18" data-name="Ellipse 18" cx="118.422" cy="118.422" r="118.422" transform="translate(243.221 130.398)" fill="#fff"/>
      <path id="Path_102" data-name="Path 102" d="M530.294,458.771A119.333,119.333,0,1,1,649.628,339.437,119.469,119.469,0,0,1,530.294,458.771Zm0-236.845A117.511,117.511,0,1,0,647.806,339.437,117.511,117.511,0,0,0,530.294,221.926Z" transform="translate(-153.164 -111.568)" fill="#f5f5f5"/>
      <path id="Path_103" data-name="Path 103" d="M866.735,502.683H127.961V100.957H866.735Zm-736.952-1.822h735.13V102.779H129.783Z" transform="translate(-127.961 -100.957)" fill="#fdfdfd"/>
      <rect id="Rectangle_85" data-name="Rectangle 85" width="162" height="17" transform="translate(25 30.958)" fill="#f2f2f2"/>
      <rect id="Rectangle_86" data-name="Rectangle 86" width="163" height="17" transform="translate(267 30.958)" fill="#f2f2f2"/>
      <rect id="Rectangle_87" data-name="Rectangle 87" width="162" height="17" transform="translate(511 30.958)" fill="#f2f2f2"/>
      <path id="Path_104" data-name="Path 104" d="M328.93,144.176H164.961V125.957H328.93Zm-162.148-1.822H327.109V127.779H166.783Z" transform="translate(-131.256 -103.184)" fill="#f5f5f5"/>
      <path id="Path_105" data-name="Path 105" d="M595.931,144.176H431.961V125.957h163.97Zm-162.148-1.822H594.109V127.779H433.783Z" transform="translate(-155.035 -103.184)" fill="#f5f5f5"/>
      <path id="Path_106" data-name="Path 106" d="M862.931,144.176H698.961V125.957h163.97Zm-162.148-1.822H861.109V127.779H700.783Z" transform="translate(-178.813 -103.184)" fill="#f5f5f5"/>
      <rect id="Rectangle_88" data-name="Rectangle 88" width="753.899" height="2.327" transform="translate(106.101 621.935)" fill="#fff"/>
      <path id="Path_107" data-name="Path 107" d="M393.5,472.635,450.889,361.5l15.486,9.109L400.788,477.19Z" transform="translate(-35.044 -32.195)" fill="#3f3d56"/>
      <path id="Path_108" data-name="Path 108" d="M484.6,608.189s10.577,8.311,11.778-9.471a20.4,20.4,0,0,1,7.421-14.657c4.789-3.827,11.682-6.444,19.971-1.378,7.379,4.509,9.039,11.047,8.633,16.876a25.935,25.935,0,0,1-12.965,20.272c-8.223,4.881-21.2,8.555-34.838-3.443C484.6,616.388,476.406,607.278,484.6,608.189Z" transform="translate(-159.399 -143.609)" fill="#d6d6d6"/>
      <circle id="Ellipse_19" data-name="Ellipse 19" cx="22.105" cy="22.105" r="22.105" transform="translate(404.577 157.145)" fill="#ffb8b8"/>
      <path id="Path_109" data-name="Path 109" d="M583.586,308.651s5.817,30.249,3.49,36.066,32.576-2.327,32.576-2.327-6.981-30.249-5.817-37.23S583.586,308.651,583.586,308.651Z" transform="translate(-168.538 -118.929)" fill="#ffb8b8"/>
      <path id="Path_110" data-name="Path 110" d="M413.479,323.215l2.327,31.412,11.548,49.333,3.576,13.493,5.817-20.942-5.817-47.7-1.976-21.475Z" transform="translate(-36.824 -28.785)" fill="#ffb8b8"/>
      <path id="Path_111" data-name="Path 111" d="M673.608,419.063v32.576s-3.49,41.883-10.471,52.354-9.307-41.883-9.307-41.883l5.47-38.393Z" transform="translate(-174.794 -129.287)" fill="#ffb8b8"/>
      <path id="Path_112" data-name="Path 112" d="M561.584,529.793s-5.817,6.981-1.163,77.949-2.326,122.16,12.8,122.16c0,0-4.654,15.125,8.144,16.288s18.615,2.327,19.778-1.164,3.49-19.778,0-19.778c0,0,0,4.654,2.327-13.961s2.327-107.035,8.144-118.669l18.615,43.047s0,19.778,3.49,29.086,9.307,62.825,9.307,62.825l-1.163,8.144s27.922,4.654,29.086,0,1.163-11.634,0-13.961-1.163-2.327,1.163-6.981,2.327-8.144,1.163-11.634-1.163-79.113-1.163-79.113-2.327-91.911-16.288-96.564S561.584,529.793,561.584,529.793Z" transform="translate(-166.314 -138.799)" fill="#2f2e41"/>
      <path id="Path_113" data-name="Path 113" d="M576.393,757.513,567.086,773.8s-14.543-5.235-11.634,8.144c25.014,1.745,42.465-.582,42.465-.582s5.817,2.327,6.981-1.163-2.909-15.706-6.4-15.706S576.393,757.513,576.393,757.513Z" transform="translate(-165.998 -159.429)" fill="#2f2e41"/>
      <path id="Path_114" data-name="Path 114" d="M651.908,751.981s-9.307,20.942-5.817,22.105,34.9,5.817,37.23,6.98,13.961,2.327,15.125-4.654-5.817-9.307-5.817-9.307-12.8-2.327-16.288-13.961S651.908,751.981,651.908,751.981Z" transform="translate(-174.035 -158.551)" fill="#2f2e41"/>
      <path id="Path_115" data-name="Path 115" d="M618.453,342.18s-31.412-5.817-38.393,0-36.066,17.452-36.066,23.269,15.125,62.825,15.125,62.825-8.144,86.093,0,88.42,22.105-4.654,38.393,3.49,62.825-6.981,62.825-6.981-17.451-74.459-12.8-88.42,8.144-61.662,8.144-61.662S635.9,342.18,618.453,342.18Z" transform="translate(-165.012 -122.21)" fill="#8985a8"/>
      <path id="Path_116" data-name="Path 116" d="M550.953,364.145l-8.144,2.327s-17.451,54.681-10.471,57.008,26.759,6.981,29.086,6.981S550.953,364.145,550.953,364.145Z" transform="translate(-163.827 -124.396)" fill="#8985a8"/>
      <path id="Path_117" data-name="Path 117" d="M646.167,357.759l18.615,6.981s24.432,45.374,18.615,51.191-31.413,11.634-31.413,11.634Z" transform="translate(-174.112 -123.827)" fill="#8985a8"/>
      <path id="Path_118" data-name="Path 118" d="M593.159,267.74a12.493,12.493,0,0,0-5.53.244,14.415,14.415,0,0,0-3.93,2.578,45.989,45.989,0,0,1-6.719,4.452c-1.885,1.023-3.912,1.971-5.228,3.665a11.126,11.126,0,0,0-1.475,2.793,33.469,33.469,0,0,0-1.76,18.215,8.372,8.372,0,0,0,.775,2.5c1.209,2.228,3.88,3.106,6.13,4.274,4.271,2.217,7.509,5.951,11.013,9.25a21.533,21.533,0,0,0,4.351,3.353c5,2.725,11.107,1.836,16.718.872a3.013,3.013,0,0,0,3.007-3.042l4.429-19.918a32.5,32.5,0,0,0,1.135-9.059c-.309-4.835-2.927-11.533-6.475-14.968C605.464,268.949,598.563,268.313,593.159,267.74Z" transform="translate(-167.148 -115.793)" fill="#2f2e41"/>
      <ellipse id="Ellipse_20" data-name="Ellipse 20" cx="31" cy="1.5" rx="31" ry="1.5" transform="translate(304 618.958)" fill="#253163"/>
      <ellipse id="Ellipse_21" data-name="Ellipse 21" cx="32" cy="1.5" rx="32" ry="1.5" transform="translate(296 621.958)" fill="#fff"/>
      <ellipse id="Ellipse_22" data-name="Ellipse 22" cx="17.308" cy="0.989" rx="17.308" ry="0.989" transform="translate(278.748 612.075)" fill="#253163"/>
      <ellipse id="Ellipse_23" data-name="Ellipse 23" cx="17.308" cy="0.989" rx="17.308" ry="0.989" transform="translate(340.692 633.937)" fill="#253163"/>
    </g>
  </g>
</svg>
