<svg xmlns="http://www.w3.org/2000/svg" width="3793.41" height="2485.998" viewBox="0 0 3793.41 2485.998">
  <g id="Group_28" data-name="Group 28" transform="translate(557.83 -3256.914)">
    <path id="Path_119" data-name="Path 119" d="M1044.708,0c142.513,0,478.719,65.829,514.522,77.47,316.8,103,530.186,297.637,530.186,520.821,0,149.683-188.1,268.961-346.235,373.548-192.064,127.027-382.867,224.742-698.473,224.742C467.732,1196.581,0,928.717,0,598.29S467.732,0,1044.708,0Z" transform="matrix(0.875, 0.485, -0.485, 0.875, 22.284, 3683.39)" fill="#253163"/>
    <g id="undraw_Social_media_re_w12q" transform="translate(1075.416 4853.879)">
      <path id="Path_120" data-name="Path 120" d="M655.415,709.014a84.179,84.179,0,0,1-18.05,9.849c-1.675.67-3.36,1.294-5.073,1.862H544.855c-.354-.614-.7-1.238-1.052-1.862-7.093-12.7-13.526-25.888-15.35-40.232-2.188-17.221,3.947-36.723,19.111-45.185a30.328,30.328,0,0,1,6.274-2.625c.9-.279,1.824-.5,2.755-.7a32.782,32.782,0,0,1,38.12,42.615c12.855-13.181,10.454-34.554,6.022-52.417s-9.821-37.747-.782-53.8c5.018-8.927,13.851-14.466,23.756-16.7.307-.065.615-.13.912-.186A47.853,47.853,0,0,1,659,555.662c18.952,11.934,28.68,34.582,31.836,56.755C695.927,648.107,684.663,687.93,655.415,709.014Z" transform="translate(-218.733 -192.919)" fill="#f2f2f2"/>
      <path id="Path_121" data-name="Path 121" d="M565.159,647.545a73.679,73.679,0,0,1,6.367,45.883A75.685,75.685,0,0,1,557.6,724.91c-.475.633-.959,1.257-1.452,1.862h-3.454c.531-.605,1.052-1.229,1.545-1.862a71.262,71.262,0,0,0,1.3-88.042c.9-.279,1.825-.5,2.755-.7a74.432,74.432,0,0,1,6.861,11.375Z" transform="translate(-220.438 -198.966)" fill="#fff"/>
      <path id="Path_122" data-name="Path 122" d="M650.83,651.872a81.349,81.349,0,0,1-5.613,22.918,70.632,70.632,0,0,1-10.966,17.91c-9.243,11.124-21.475,19.492-34.759,25.059q-1.452.614-2.932,1.173c-1.713.67-3.444,1.285-5.185,1.862h-9.43c2.225-.558,4.44-1.182,6.628-1.862a110.6,110.6,0,0,0,15.183-5.986,84.3,84.3,0,0,0,31.538-25.869c8.834-12.194,12.734-26.856,13.4-41.759.708-15.946-1.368-32.18-5.008-47.7a199.968,199.968,0,0,0-16.821-45.827,1.438,1.438,0,0,1,.568-1.9,1.244,1.244,0,0,1,.912-.186,1.066,1.066,0,0,1,.707.6c.922,1.8,1.825,3.593,2.69,5.408A202.952,202.952,0,0,1,647.6,603.262C650.792,619.124,652.505,635.721,650.83,651.872Z" transform="translate(-222.46 -192.988)" fill="#fff"/>
      <path id="Path_123" data-name="Path 123" d="M235.332,443.693a39.1,39.1,0,1,1,39.1-39.1A39.1,39.1,0,0,1,235.332,443.693Zm0-76.332A37.235,37.235,0,1,0,272.567,404.6,37.235,37.235,0,0,0,235.332,367.362Z" transform="translate(-195.797 -180.256)" fill="#fff"/>
      <path id="Path_124" data-name="Path 124" d="M405.332,308.693a39.1,39.1,0,1,1,39.1-39.1,39.1,39.1,0,0,1-39.1,39.1Zm0-76.332A37.235,37.235,0,1,0,442.567,269.6a37.235,37.235,0,0,0-37.235-37.235Z" transform="translate(-207.549 -170.924)" fill="#fff"/>
      <path id="Path_125" data-name="Path 125" d="M587.332,244.693a39.1,39.1,0,1,1,39.1-39.1,39.1,39.1,0,0,1-39.1,39.1Zm0-76.332A37.235,37.235,0,1,0,624.567,205.6,37.235,37.235,0,0,0,587.332,168.362Z" transform="translate(-220.13 -166.5)" fill="#fff"/>
      <path id="Path_126" data-name="Path 126" d="M781.332,310.693a39.1,39.1,0,1,1,39.1-39.1,39.1,39.1,0,0,1-39.1,39.1Zm0-76.332A37.235,37.235,0,1,0,818.567,271.6,37.235,37.235,0,0,0,781.332,234.362Z" transform="translate(-203.54 -171.062)" fill="#3f3d56"/>
      <path id="Path_127" data-name="Path 127" d="M959.332,411.693a39.1,39.1,0,1,1,39.1-39.1,39.1,39.1,0,0,1-39.1,39.1Zm0-76.332A37.235,37.235,0,1,0,996.567,372.6,37.235,37.235,0,0,0,959.332,335.362Z" transform="translate(-245.845 -178.044)" fill="#3f3d56"/>
      <path id="Path_128" data-name="Path 128" d="M429.124,260.514l4.654-.931s-3.91,4.375-4.654,4.654h0a18.74,18.74,0,0,0,0,2.793c-8.936,38.352-41.889,21.41-41.889,21.41,12.008.279,13.032-4.654,13.032-4.654-6.982-1.024-8.378-5.585-8.378-5.585a2.876,2.876,0,0,0,3.724-.931c-7.54-1.955-6.516-9.309-6.516-9.309a9.681,9.681,0,0,0,4.561,1.769c-.838-1.024-7.912-9.495-3.63-13.87,0,0,5.213,9.309,18.9,10.147l.931-.186a7.306,7.306,0,0,1-.186-2.048A9.774,9.774,0,0,1,419.443,254c6.516,0,7.912,3.724,7.912,3.724l4.654-2.793C431.917,254.929,431.451,259.583,429.124,260.514Z" transform="translate(-209 -172.548)" fill="#fff"/>
      <path id="Path_129" data-name="Path 129" d="M555.8,536.7l10.248,5.023L590.3,504.585l-15.124-7.413Z" transform="translate(-38.42 -34.368)" fill="#ffb8b8"/>
      <path id="Path_130" data-name="Path 130" d="M750.035,701.163l20.181,9.892h0a14.322,14.322,0,0,1,6.556,19.165l-.2.418-33.042-16.2Z" transform="translate(-233.629 -203.459)" fill="#2f2e41"/>
      <path id="Path_131" data-name="Path 131" d="M664.893,555.174h11.413l5.429-44.018H664.891Z" transform="translate(-45.961 -35.334)" fill="#ffb8b8"/>
      <path id="Path_132" data-name="Path 132" d="M857.531,716.94h22.476a14.323,14.323,0,0,1,14.323,14.323v.465h-36.8Z" transform="translate(-241.51 -204.55)" fill="#2f2e41"/>
      <circle id="Ellipse_24" data-name="Ellipse 24" cx="22.863" cy="22.863" r="22.863" transform="translate(571.555 170.319)" fill="#ffb8b8"/>
      <path id="Path_133" data-name="Path 133" d="M851.665,696.543a4.189,4.189,0,0,1-4.18-4.006l-8.837-117.626a1.4,1.4,0,0,0-2.633-.6L779.481,682.236a4.21,4.21,0,0,1-5.584,1.8l-15.76-7.88a4.2,4.2,0,0,1-1.883-5.6L789.988,602.2,812.331,551c8.624-16.988,17.782-25.742,28-26.763,10.48-1.046,21.672,6.159,34.22,22.031l.1.13,0,.165-1.862,143.687a4.169,4.169,0,0,1-3.8,4.165l-16.915,2.109Q851.869,696.543,851.665,696.543Z" transform="translate(-234.48 -191.222)" fill="#2f2e41"/>
      <path id="Path_134" data-name="Path 134" d="M807.258,553.987a10,10,0,0,0,2.205-15.174l3.448-91.091-16.756,2.088-1.413,88.618a10.054,10.054,0,0,0,12.516,15.559Z" transform="translate(-236.971 -185.94)" fill="#ffb8b8"/>
      <path id="Path_135" data-name="Path 135" d="M817.822,461.978l-22.5-2.557a4.484,4.484,0,0,1-3.827-5.609l5.809-21.817a12.453,12.453,0,0,1,24.738,2.884l.769,22.491a4.484,4.484,0,0,1-4.988,4.607Z" transform="translate(-236.935 -184.091)" fill="#fff"/>
      <path id="Path_136" data-name="Path 136" d="M919.437,402.862a9.806,9.806,0,0,0-.223,1.527l-39.988,23.069-9.719-5.6-10.362,13.565L875.389,447a7.447,7.447,0,0,0,8.935-.218l41.234-32.53a9.771,9.771,0,1,0-6.121-11.4Z" transform="translate(-241.622 -182.318)" fill="#ffb8b8"/>
      <path id="Path_137" data-name="Path 137" d="M876.43,429.613l-12.924,16.75a4.189,4.189,0,0,1-6.333.347l-14.631-15.193a11.634,11.634,0,1,1,14.267-18.38L875.16,423.4a4.189,4.189,0,0,1,1.271,6.214Z" transform="translate(-240.163 -183.38)" fill="#fff"/>
      <path id="Path_138" data-name="Path 138" d="M884.726,545.244,859.915,424.389a22.662,22.662,0,0,0-25.925-17.8l-8.275,1.379a22.191,22.191,0,0,0-14.41,8.991h0a30.989,30.989,0,0,0-4.629,26.353l13.7,49.015-10.164,52.513a3.72,3.72,0,0,0,4.177,4.394c5.089-.728,13.476-1.767,23.109-2.333l5.219-20.131,2.123,19.811c11.834-.331,24.68.249,35.277,3a3.727,3.727,0,0,0,4.614-4.343Z" transform="translate(-237.916 -183.075)" fill="#253163"/>
      <path id="Path_139" data-name="Path 139" d="M837.665,366.469c5.876,4.022,13.592,8.156,19.594,3.873a10.922,10.922,0,0,0,3.584-12.59c-2.874-8.218-10.77-11.836-18.32-14.61-9.815-3.605-20.5-6.474-30.636-3.892s-19.088,12.393-17.259,22.688c1.471,8.279,9.281,15.168,8.172,23.5-1.116,8.389-10.55,12.8-18.88,14.3s-17.65,1.981-23.635,7.964c-7.636,7.632-5.729,21.273,1.456,29.331s18.028,11.711,28.535,14.194c13.921,3.29,28.977,5.019,42.2-.441s23.51-20.157,19.68-33.939c-1.618-5.821-5.429-10.741-9.112-15.531s-7.413-9.8-8.818-15.675c-1.171-4.9-.3-10.583,2.943-14.256a4.13,4.13,0,0,0,.553-4.828Z" transform="translate(-234.449 -178.373)" fill="#2f2e41"/>
      <path id="Path_140" data-name="Path 140" d="M599.193,187.431a9.858,9.858,0,0,1,9.829,9.829v19.655a9.858,9.858,0,0,1-9.829,9.829H579.537a9.858,9.858,0,0,1-9.829-9.829V197.259a9.858,9.858,0,0,1,9.829-9.829h19.655m0-3.931H579.537a13.8,13.8,0,0,0-13.759,13.759v19.655a13.8,13.8,0,0,0,13.759,13.759h19.655a13.8,13.8,0,0,0,13.76-13.759V197.259A13.8,13.8,0,0,0,599.193,183.5Z" transform="translate(-221.342 -167.675)" fill="#fff"/>
      <path id="Path_141" data-name="Path 141" d="M604.623,197.844a2.942,2.942,0,1,1,.013,0Z" transform="translate(-223.825 -168.26)" fill="#fff"/>
      <path id="Path_142" data-name="Path 142" d="M590.241,200.1a7.863,7.863,0,1,1-7.863,7.863,7.863,7.863,0,0,1,7.863-7.863m0-3.931a11.794,11.794,0,1,0,11.793,11.794,11.794,11.794,0,0,0-11.793-11.794Z" transform="translate(-222.218 -168.551)" fill="#fff"/>
      <path id="Path_143" data-name="Path 143" d="M162.343,550.262l-11.108-2.618,4.808-44.091,16.395,3.863Z" transform="translate(-10.454 -34.809)" fill="#ffb8b8"/>
      <path id="Path_144" data-name="Path 144" d="M356.591,731.035,320.774,722.6l.107-.453a14.323,14.323,0,0,1,17.225-10.657h0l21.876,5.154Z" transform="translate(-204.406 -204.146)" fill="#2f2e41"/>
      <path id="Path_145" data-name="Path 145" d="M208.419,550.862H197.007l-5.429-44.019h16.843Z" transform="translate(-13.243 -35.036)" fill="#ffb8b8"/>
      <path id="Path_146" data-name="Path 146" d="M405.828,731.417h-36.8v-.465a14.323,14.323,0,0,1,14.323-14.323h22.476Z" transform="translate(-207.742 -204.528)" fill="#2f2e41"/>
      <path id="Path_147" data-name="Path 147" d="M467.425,526.244a10,10,0,0,0-4.873-14.539l-33.413-84.731-18.59,11.285L449.239,518a10.054,10.054,0,0,0,18.186,8.246Z" transform="translate(-210.612 -184.506)" fill="#ffb8b8"/>
      <path id="Path_148" data-name="Path 148" d="M435.727,439.483l-21.238,7.862a4.484,4.484,0,0,1-5.944-3.281L403.9,421.97a12.453,12.453,0,1,1,23.382-8.577l10.826,19.73a4.484,4.484,0,0,1-2.375,6.361Z" transform="translate(-210.099 -183.002)" fill="#fff"/>
      <path id="Path_149" data-name="Path 149" d="M400.549,691.911l-.168,0-16.176-.647a4.165,4.165,0,0,1-4.021-4.244l1.241-89.364a1.4,1.4,0,0,0-2.785-.165l-9.384,89.462a4.2,4.2,0,0,1-3.477,3.7l-.056.009-15.186-1.194a4.189,4.189,0,0,1-4.82-4.165l.908-151.527,74.517,4.716-16.43,149.694a4.2,4.2,0,0,1-4.163,3.731Z" transform="translate(-206.13 -191.888)" fill="#2f2e41"/>
      <circle id="Ellipse_25" data-name="Ellipse 25" cx="22.863" cy="22.863" r="22.863" transform="translate(157.934 163.878)" fill="#ffb8b8"/>
      <path id="Path_150" data-name="Path 150" d="M417.337,535.926q-.157,0-.316-.011l-68.87-5.039a4.188,4.188,0,0,1-3.883-4.266l1.816-86.482a39.012,39.012,0,1,1,77.858,2.594c-1.2,13.329-2.162,71.556-2.427,89.085a4.184,4.184,0,0,1-4.178,4.12Z" transform="translate(-206.03 -182.656)" fill="#fff"/>
      <path id="Path_151" data-name="Path 151" d="M289.486,394.132a9.8,9.8,0,0,1,.223,1.527L329.7,418.728l9.72-5.6L349.778,426.7l-16.244,11.578a7.447,7.447,0,0,1-8.935-.218l-41.235-32.531a9.771,9.771,0,1,1,6.121-11.4Z" transform="translate(-200.91 -181.714)" fill="#ffb8b8"/>
      <path id="Path_152" data-name="Path 152" d="M334.7,417.484a4.184,4.184,0,0,1,2.058-2.816l18.35-10.261a11.633,11.633,0,1,1,14.267,18.379L354.744,437.98a4.189,4.189,0,0,1-6.334-.347l-12.924-16.75a4.184,4.184,0,0,1-.788-3.4Z" transform="translate(-205.363 -182.777)" fill="#fff"/>
      <path id="Path_153" data-name="Path 153" d="M399.425,382.986a20.825,20.825,0,0,1-17.545-9.852c-.2-.315-1.3-1.932-2.576-3.8-3.581-5.258-4.42-6.509-4.491-6.692-.969-2.5-4.045-3.465-6.454-3.835-.45-.069-.905-.13-1.363-.192-3.393-.455-6.9-.925-8.826-4.654-1.411-2.737-3.719-13.883-1.947-16.607,2.222-3.416,6.489-2.307,10.615-1.234,2.64.685,5.37,1.4,7.545.943,9.429-1.962,20.116-4.185,29.554,1.563a25.473,25.473,0,0,1,11.791,22.543c-.256,10.021-4.626,17.93-11.691,21.159l-1.471.428-.827.1a20.465,20.465,0,0,1-2.315.132Z" transform="translate(-206.812 -178.144)" fill="#2f2e41"/>
      <path id="Path_154" data-name="Path 154" d="M961.8,348.3a25.64,25.64,0,0,0-10.289,49.124,22.708,22.708,0,0,1,.446-5.883c.492-2.083,3.3-13.975,3.3-13.975a9.788,9.788,0,0,1-.824-4.052c0-3.8,2.2-6.638,4.944-6.638,2.335,0,3.457,1.751,3.457,3.846,0,2.346-1.5,5.849-2.266,9.1a3.964,3.964,0,0,0,4.052,4.933c4.853,0,8.126-6.238,8.126-13.632,0-5.62-3.788-9.82-10.667-9.82a12.148,12.148,0,0,0-12.624,12.281,7.39,7.39,0,0,0,1.694,5.025,1.253,1.253,0,0,1,.366,1.431c-.126.469-.4,1.6-.527,2.06a.881.881,0,0,1-1.282.641c-3.582-1.465-5.253-5.379-5.253-9.8,0-7.279,6.146-16.012,18.324-16.012,9.786,0,16.23,7.085,16.23,14.684,0,10.061-5.6,17.569-13.838,17.569-2.77,0-5.368-1.5-6.261-3.193,0,0-1.488,5.906-1.808,7.05a21.309,21.309,0,0,1-2.575,5.494A25.642,25.642,0,1,0,961.8,348.3Z" transform="translate(-246.946 -179.067)" fill="#3f3d56"/>
      <path id="Path_155" data-name="Path 155" d="M805.077,257.2,772.1,247.053a3.372,3.372,0,0,0-4.323,2.038l-10.168,33.049a3.637,3.637,0,0,0,2.334,4.424l32.966,10.142a3.453,3.453,0,0,0,4.211-2.411l10.168-33.049a3.169,3.169,0,0,0-2.213-4.049ZM770.84,282.718l-5.66-1.741,5.415-17.6,5.66,1.741Zm3.6-21.086-.041-.012a3.22,3.22,0,1,1,.04.012Zm17.084,27.451-5.66-1.741,2.961-9.623c.709-2.305.37-4.134-1.678-4.764a3.238,3.238,0,0,0-3.545,1.2,3.989,3.989,0,0,0-.623,1.33L779.9,285.5l-5.66-1.741,5.415-17.6,5.66,1.741-.754,2.449a6,6,0,0,1,5.985-1.291c3.716,1.143,5.773,4.457,4.148,9.737Z" transform="translate(-204.594 -172.054)" fill="#3f3d56"/>
      <path id="Path_156" data-name="Path 156" d="M261.895,405.767a25.558,25.558,0,1,0-29.552,25.249V413.158h-6.491v-7.39h6.491v-5.632c0-6.4,3.817-9.945,9.654-9.945a39.27,39.27,0,0,1,5.722.5v6.29h-3.224c-3.173,0-4.166,1.969-4.166,3.993v4.794h7.088l-1.132,7.39h-5.956v17.86a25.565,25.565,0,0,0,21.566-25.251Z" transform="translate(-196.803 -181.273)" fill="#fff" fill-rule="evenodd"/>
      <path id="Path_157" data-name="Path 157" d="M947.916,732.431a.934.934,0,0,1-.931.931H196.7a.931.931,0,0,1,0-1.862H946.985a.934.934,0,0,1,.931.931Z" transform="translate(-195.765 -205.556)" fill="#3f3d56"/>
    </g>
    <g id="Circle_Pattern" data-name="Circle Pattern">
      <g id="Ellipse_26" data-name="Ellipse 26" transform="matrix(0.819, 0.574, -0.574, 0.819, 1849.574, 3335.742)" fill="none" stroke="#333" stroke-width="2" opacity="0.2">
        <ellipse cx="846" cy="695" rx="846" ry="695" stroke="none"/>
        <ellipse cx="846" cy="695" rx="845" ry="694" fill="none"/>
      </g>
      <g id="Ellipse_27" data-name="Ellipse 27" transform="translate(1305.27 3528.172) rotate(-9)" fill="none" stroke="#333" stroke-width="2" opacity="0.2">
        <ellipse cx="867" cy="695" rx="867" ry="695" stroke="none"/>
        <ellipse cx="867" cy="695" rx="866" ry="694" fill="none"/>
      </g>
    </g>
  </g>
</svg>
