<svg width="1441" height="328" viewBox="0 0 1441 328" fill="none" xmlns="http://www.w3.org/2000/svg">
<path d="M17.6775 317.145L20.872 314.268" stroke="#707070" stroke-width="3.00028"/>
<path d="M111.525 232.644L114.72 229.767" stroke="#707070" stroke-width="3.00028"/>
<path d="M234.803 205.925L237.68 209.12" stroke="#707070" stroke-width="3.00028"/>
<path d="M148.107 109.639L150.983 112.833" stroke="#707070" stroke-width="3.00028"/>
<path d="M321.503 302.215L324.38 305.41" stroke="#707070" stroke-width="3.00028"/>
<path d="M271.068 88.9912L274.262 86.1148" stroke="#707070" stroke-width="3.00028"/>
<path d="M364.916 4.49011L368.11 1.61375" stroke="#707070" stroke-width="3.00028"/>
<path d="M61.407 13.349L64.2833 16.5435" stroke="#707070" stroke-width="3.00028"/>
<path d="M1065.54 149.236L1065.39 144.942" stroke="#707070" stroke-width="2.99912"/>
<path d="M1071.57 321.45L1071.42 317.156" stroke="#707070" stroke-width="2.99912"/>
<path d="M1069.34 257.667L1069.19 253.373" stroke="#707070" stroke-width="2.99912"/>
<path d="M650.382 215.914L654.676 215.763" stroke="#707070" stroke-width="2.99912"/>
<path d="M1203.49 196.536L1207.78 196.385" stroke="#707070" stroke-width="2.99912"/>
<path d="M926.941 206.225L931.236 206.074" stroke="#707070" stroke-width="2.99912"/>
<path d="M1063.3 85.4532L1063.15 81.1589" stroke="#707070" stroke-width="2.99912"/>
</svg>
