<svg width="805" height="1200" viewBox="0 0 805 1200" fill="none" xmlns="http://www.w3.org/2000/svg">
<g clip-path="url(#clip0)">
<g opacity="0.2">
<path d="M673.995 1124.55C960.68 1325.48 1326.86 1297.49 1491.88 1062.03C1656.9 826.575 1558.27 472.819 1271.59 271.894C984.899 70.9693 618.72 98.9617 453.7 334.417C288.68 569.873 387.309 923.629 673.995 1124.55Z" stroke="#333333" stroke-width="1.50032"/>
</g>
<g opacity="0.2">
<path d="M1149.33 978.669C1503.66 922.55 1754.44 646.867 1709.46 362.915C1664.49 78.9634 1340.79 -105.731 986.467 -49.6113C632.141 6.50841 381.362 282.191 426.335 566.143C471.309 850.095 795.005 1034.79 1149.33 978.669Z" stroke="#333333" stroke-width="1.50014"/>
</g>
<path d="M571.419 504.648L575.528 505.904" stroke="#707070" stroke-width="2.99908"/>
<path d="M782.653 569.167L786.762 570.423" stroke="#707070" stroke-width="2.99908"/>
<path d="M1.08618 330.446L5.1957 331.701" stroke="#707070" stroke-width="2.99908"/>
<path d="M212.32 394.965L216.43 396.221" stroke="#707070" stroke-width="2.99908"/>
<path d="M451.304 262.577L450.049 266.687" stroke="#707070" stroke-width="2.99908"/>
<path d="M375.636 510.312L374.381 514.422" stroke="#707070" stroke-width="2.99908"/>
<path d="M413.469 386.447L412.214 390.557" stroke="#707070" stroke-width="2.99908"/>
<path d="M337.801 634.182L336.546 638.291" stroke="#707070" stroke-width="2.99908"/>
</g>
<defs>
<clipPath id="clip0">
<rect width="805" height="1200" fill="white"/>
</clipPath>
</defs>
</svg>
