<svg width="194" height="179" viewBox="0 0 194 179" fill="none" xmlns="http://www.w3.org/2000/svg">
<path d="M183.4 148.373H11.489C10.3159 148.371 9.19128 147.905 8.36177 147.075C7.53227 146.246 7.06555 145.121 7.06396 143.948V37.9431C7.06476 37.0832 7.40669 36.2588 8.01469 35.6508C8.6227 35.0428 9.44712 34.7009 10.307 34.7001H184.532C185.407 34.7001 186.247 35.0478 186.865 35.6666C187.484 36.2855 187.832 37.1249 187.832 38.0001V143.947C187.831 145.121 187.363 146.247 186.532 147.077C185.701 147.907 184.575 148.373 183.4 148.373V148.373Z" fill="#F2F2F2"/>
<path d="M177.129 142.105H16.9121C15.8191 142.139 14.7573 141.738 13.9591 140.99C13.1609 140.243 12.6912 139.21 12.6528 138.117V45.8076C12.6808 44.9974 13.0286 44.2313 13.6201 43.6769C14.2116 43.1226 14.9986 42.8251 15.8088 42.8496H178.18C179.004 42.8247 179.804 43.127 180.405 43.6905C181.006 44.254 181.36 45.0328 181.389 45.8563V138.117C181.35 139.21 180.881 140.243 180.082 140.99C179.284 141.738 178.222 142.139 177.129 142.105Z" fill="white"/>
<path d="M187.764 37.6902H7V35.4401C7.00159 34.2626 7.47017 33.1338 8.30298 32.3014C9.13578 31.469 10.2648 31.001 11.4422 31H183.322C184.499 31.001 185.628 31.469 186.461 32.3014C187.294 33.1338 187.763 34.2626 187.764 35.4401V37.6902Z" fill="#CCCCCC"/>
<path d="M15.0744 35.4989C15.709 35.4989 16.2235 34.9844 16.2235 34.3498C16.2235 33.7152 15.709 33.2007 15.0744 33.2007C14.4398 33.2007 13.9253 33.7152 13.9253 34.3498C13.9253 34.9844 14.4398 35.4989 15.0744 35.4989Z" fill="white"/>
<path d="M19.4362 35.4989C20.0708 35.4989 20.5853 34.9844 20.5853 34.3498C20.5853 33.7152 20.0708 33.2007 19.4362 33.2007C18.8016 33.2007 18.2871 33.7152 18.2871 34.3498C18.2871 34.9844 18.8016 35.4989 19.4362 35.4989Z" fill="white"/>
<path d="M23.7966 35.4989C24.4312 35.4989 24.9457 34.9844 24.9457 34.3498C24.9457 33.7152 24.4312 33.2007 23.7966 33.2007C23.1619 33.2007 22.6475 33.7152 22.6475 34.3498C22.6475 34.9844 23.1619 35.4989 23.7966 35.4989Z" fill="white"/>
<path d="M159.494 126.623H35.3329C34.0884 126.621 32.8953 126.126 32.0154 125.246C31.1354 124.366 30.6403 123.173 30.6387 121.929V62.0652C30.6399 61.1344 31.0101 60.2422 31.6683 59.584C32.3264 58.9259 33.2187 58.5556 34.1494 58.5544H160.622C161.568 58.5554 162.474 58.9316 163.143 59.6003C163.812 60.269 164.188 61.1757 164.189 62.1215V121.929C164.188 123.173 163.692 124.367 162.812 125.247C161.932 126.127 160.739 126.622 159.494 126.623V126.623ZM34.1487 59.0892C33.36 59.09 32.6039 59.4036 32.0463 59.9613C31.4886 60.5189 31.175 61.2751 31.1742 62.0637V121.927C31.1754 123.03 31.6138 124.087 32.3933 124.866C33.1729 125.646 34.2298 126.084 35.3322 126.085H159.494C160.596 126.084 161.653 125.646 162.433 124.866C163.212 124.087 163.651 123.03 163.652 121.927V62.1215C163.651 61.3179 163.332 60.5475 162.763 59.9793C162.195 59.4111 161.425 59.0915 160.621 59.0907L34.1487 59.0892Z" fill="#CCCCCC"/>
<path d="M39.6253 121.928H155.2C156.339 121.928 157.43 121.476 158.235 120.671C159.04 119.866 159.493 118.774 159.493 117.636V67.5897C159.493 66.4514 159.04 65.3596 158.235 64.5547C157.43 63.7497 156.339 63.2975 155.2 63.2975H39.6253C38.4869 63.2975 37.3951 63.7497 36.5902 64.5547C35.7852 65.3596 35.333 66.4514 35.333 67.5897V117.633C35.3326 118.197 35.4433 118.755 35.6589 119.276C35.8744 119.797 36.1905 120.271 36.5891 120.67C36.9877 121.069 37.461 121.385 37.982 121.601C38.503 121.817 39.0613 121.928 39.6253 121.928V121.928Z" fill="#F2F2F2"/>
<path d="M52.748 77.8605C54.0814 77.8605 55.1624 76.7795 55.1624 75.4461C55.1624 74.1126 54.0814 73.0316 52.748 73.0316C51.4145 73.0316 50.3335 74.1126 50.3335 75.4461C50.3335 76.7795 51.4145 77.8605 52.748 77.8605Z" fill="#CCCCCC"/>
<path d="M52.748 86.9813C54.0814 86.9813 55.1624 85.9003 55.1624 84.5668C55.1624 83.2333 54.0814 82.1523 52.748 82.1523C51.4145 82.1523 50.3335 83.2333 50.3335 84.5668C50.3335 85.9003 51.4145 86.9813 52.748 86.9813Z" fill="#CCCCCC"/>
<path d="M52.748 96.1021C54.0814 96.1021 55.1624 95.0211 55.1624 93.6877C55.1624 92.3542 54.0814 91.2732 52.748 91.2732C51.4145 91.2732 50.3335 92.3542 50.3335 93.6877C50.3335 95.0211 51.4145 96.1021 52.748 96.1021Z" fill="#CCCCCC"/>
<path d="M52.748 105.223C54.0814 105.223 55.1624 104.142 55.1624 102.808C55.1624 101.475 54.0814 100.394 52.748 100.394C51.4145 100.394 50.3335 101.475 50.3335 102.808C50.3335 104.142 51.4145 105.223 52.748 105.223Z" fill="#CCCCCC"/>
<path d="M144.225 75.7136H64.8198C64.7834 75.7155 64.747 75.71 64.7128 75.6974C64.6786 75.6848 64.6473 75.6654 64.6209 75.6403C64.5944 75.6152 64.5733 75.585 64.5589 75.5515C64.5446 75.518 64.5371 75.4819 64.5371 75.4455C64.5371 75.409 64.5446 75.373 64.5589 75.3395C64.5733 75.306 64.5944 75.2758 64.6209 75.2507C64.6473 75.2256 64.6786 75.2062 64.7128 75.1936C64.747 75.181 64.7834 75.1755 64.8198 75.1774H144.225C144.261 75.1755 144.297 75.181 144.332 75.1936C144.366 75.2062 144.397 75.2256 144.423 75.2507C144.45 75.2758 144.471 75.306 144.485 75.3395C144.5 75.373 144.507 75.409 144.507 75.4455C144.507 75.4819 144.5 75.518 144.485 75.5515C144.471 75.585 144.45 75.6152 144.423 75.6403C144.397 75.6654 144.366 75.6848 144.332 75.6974C144.297 75.71 144.261 75.7155 144.225 75.7136Z" fill="#CCCCCC"/>
<path d="M144.225 84.8343H64.8197C64.7511 84.8307 64.6864 84.8009 64.6391 84.751C64.5918 84.7011 64.5654 84.635 64.5654 84.5662C64.5654 84.4975 64.5918 84.4313 64.6391 84.3814C64.6864 84.3316 64.7511 84.3017 64.8197 84.2981H144.225C144.261 84.2962 144.297 84.3017 144.332 84.3143C144.366 84.3269 144.397 84.3463 144.423 84.3714C144.45 84.3965 144.471 84.4267 144.485 84.4602C144.5 84.4937 144.507 84.5298 144.507 84.5662C144.507 84.6027 144.5 84.6387 144.485 84.6722C144.471 84.7057 144.45 84.7359 144.423 84.761C144.397 84.7861 144.366 84.8056 144.332 84.8182C144.297 84.8308 144.261 84.8363 144.225 84.8343Z" fill="#CCCCCC"/>
<path d="M144.225 93.9552H64.8197C64.7511 93.9516 64.6864 93.9217 64.6391 93.8718C64.5918 93.822 64.5654 93.7558 64.5654 93.6871C64.5654 93.6183 64.5918 93.5522 64.6391 93.5023C64.6864 93.4524 64.7511 93.4226 64.8197 93.419H144.225C144.261 93.417 144.297 93.4225 144.332 93.4351C144.366 93.4477 144.397 93.4672 144.423 93.4923C144.45 93.5174 144.471 93.5476 144.485 93.581C144.5 93.6145 144.507 93.6506 144.507 93.6871C144.507 93.7235 144.5 93.7596 144.485 93.7931C144.471 93.8266 144.45 93.8568 144.423 93.8819C144.397 93.907 144.366 93.9264 144.332 93.939C144.297 93.9516 144.261 93.9571 144.225 93.9552Z" fill="#CCCCCC"/>
<path d="M144.225 103.077H64.8198C64.7834 103.079 64.747 103.073 64.7128 103.06C64.6786 103.048 64.6473 103.028 64.6209 103.003C64.5944 102.978 64.5733 102.948 64.5589 102.915C64.5446 102.881 64.5371 102.845 64.5371 102.809C64.5371 102.772 64.5446 102.736 64.5589 102.703C64.5733 102.669 64.5944 102.639 64.6209 102.614C64.6473 102.589 64.6786 102.569 64.7128 102.557C64.747 102.544 64.7834 102.538 64.8198 102.54H144.225C144.261 102.538 144.297 102.544 144.332 102.557C144.366 102.569 144.397 102.589 144.423 102.614C144.45 102.639 144.471 102.669 144.485 102.703C144.5 102.736 144.507 102.772 144.507 102.809C144.507 102.845 144.5 102.881 144.485 102.915C144.471 102.948 144.45 102.978 144.423 103.003C144.397 103.028 144.366 103.048 144.332 103.06C144.297 103.073 144.261 103.079 144.225 103.077V103.077Z" fill="#CCCCCC"/>
<path d="M79.8424 112.197H72.0627C71.7071 112.197 71.3663 112.056 71.1149 111.804C70.8635 111.553 70.7221 111.212 70.7217 110.856V103.614C70.7221 103.258 70.8635 102.917 71.1149 102.666C71.3663 102.415 71.7071 102.273 72.0627 102.273H79.8424C80.1979 102.273 80.5387 102.415 80.79 102.666C81.0414 102.918 81.1828 103.258 81.1834 103.614V110.856C81.183 111.211 81.0417 111.552 80.7903 111.804C80.5389 112.055 80.198 112.197 79.8424 112.197Z" fill="#6C63FF"/>
<path d="M97.2791 112.197H89.5001C89.1446 112.197 88.8038 112.056 88.5524 111.804C88.301 111.553 88.1596 111.212 88.1592 110.856V94.4921C88.1596 94.1366 88.301 93.7957 88.5524 93.5443C88.8038 93.2929 89.1446 93.1515 89.5001 93.1511H97.2799C97.6354 93.1515 97.9763 93.2929 98.2277 93.5443C98.4791 93.7957 98.6205 94.1366 98.6209 94.4921V110.856C98.6207 111.211 98.4792 111.553 98.2277 111.804C97.9761 112.056 97.6349 112.197 97.2791 112.197V112.197Z" fill="#6C63FF"/>
<path d="M114.985 112.197H107.205C106.849 112.197 106.508 112.056 106.257 111.804C106.006 111.553 105.864 111.212 105.864 110.856V85.3715C105.864 85.016 106.006 84.6751 106.257 84.4237C106.508 84.1723 106.849 84.0309 107.205 84.0305H114.985C115.34 84.0309 115.681 84.1723 115.932 84.4237C116.184 84.6751 116.325 85.016 116.326 85.3715V110.856C116.325 111.212 116.184 111.553 115.932 111.804C115.681 112.056 115.34 112.197 114.985 112.197Z" fill="#6C63FF"/>
<path d="M133.226 112.197H125.447C125.091 112.197 124.751 112.056 124.499 111.804C124.248 111.553 124.106 111.212 124.106 110.856V76.5184C124.106 76.1628 124.248 75.822 124.499 75.5706C124.751 75.3192 125.091 75.1778 125.447 75.1774H133.227C133.582 75.1778 133.923 75.3191 134.175 75.5705C134.426 75.8219 134.568 76.1628 134.568 76.5184V110.856C134.568 111.211 134.426 111.552 134.175 111.803C133.924 112.055 133.583 112.196 133.227 112.197L133.226 112.197Z" fill="#6C63FF"/>
<path d="M144.225 112.197H64.8198C64.7834 112.199 64.747 112.194 64.7128 112.181C64.6786 112.169 64.6473 112.149 64.6209 112.124C64.5944 112.099 64.5733 112.069 64.5589 112.035C64.5446 112.002 64.5371 111.966 64.5371 111.929C64.5371 111.893 64.5446 111.857 64.5589 111.823C64.5733 111.79 64.5944 111.76 64.6209 111.734C64.6473 111.709 64.6786 111.69 64.7128 111.677C64.747 111.665 64.7834 111.659 64.8198 111.661H144.225C144.261 111.659 144.297 111.665 144.332 111.677C144.366 111.69 144.397 111.709 144.423 111.734C144.45 111.76 144.471 111.79 144.485 111.823C144.5 111.857 144.507 111.893 144.507 111.929C144.507 111.966 144.5 112.002 144.485 112.035C144.471 112.069 144.45 112.099 144.423 112.124C144.397 112.149 144.366 112.169 144.332 112.181C144.297 112.194 144.261 112.199 144.225 112.197V112.197Z" fill="#3F3D56"/>
<path d="M26.604 145.425L26.0635 145.647L26.1005 145.737L26.641 145.515L26.604 145.425Z" fill="#E6E6E6"/>
<path d="M26.193 146.128C26.5696 146.128 26.8748 145.822 26.8748 145.446C26.8748 145.069 26.5696 144.764 26.193 144.764C25.8165 144.764 25.5112 145.069 25.5112 145.446C25.5112 145.822 25.8165 146.128 26.193 146.128Z" fill="#3F3D56"/>
</svg>
