<svg width="587" height="941" viewBox="0 0 587 941" fill="none" xmlns="http://www.w3.org/2000/svg">
<g clip-path="url(#clip0)">
<path d="M51.3275 24.2677C147.417 71.0832 352.479 225.912 372.795 245.522C552.562 419.039 632.499 620.37 559.183 770.852C510.012 871.776 344.003 890.408 203.024 908.978C27.209 973.699 -128.952 934.739 -341.749 831.062C-730.775 641.526 -958.15 307.268 -849.605 84.4781C-741.06 -138.312 -337.699 -165.269 51.3275 24.2677Z" fill="#253163"/>
<path d="M539.81 917.816C537.438 917.816 535.119 917.113 533.147 915.795C531.174 914.477 529.637 912.604 528.729 910.413C527.822 908.221 527.584 905.81 528.047 903.483C528.51 901.157 529.652 899.02 531.329 897.343C533.006 895.666 535.143 894.523 537.47 894.061C539.796 893.598 542.208 893.835 544.399 894.743C546.591 895.651 548.464 897.188 549.782 899.16C551.099 901.132 551.803 903.451 551.803 905.823C551.803 907.398 551.493 908.958 550.89 910.413C550.288 911.868 549.404 913.19 548.29 914.304C547.177 915.418 545.855 916.301 544.399 916.904C542.944 917.506 541.385 917.817 539.81 917.816ZM539.81 895.83C537.833 895.83 535.901 896.416 534.257 897.514C532.613 898.612 531.332 900.173 530.576 901.999C529.819 903.826 529.622 905.835 530.007 907.774C530.393 909.713 531.345 911.493 532.742 912.891C534.14 914.289 535.921 915.241 537.86 915.626C539.799 916.012 541.808 915.814 543.634 915.058C545.461 914.301 547.022 913.02 548.12 911.377C549.218 909.733 549.804 907.801 549.804 905.824C549.804 904.511 549.546 903.212 549.044 901.999C548.541 900.787 547.805 899.685 546.877 898.757C545.949 897.829 544.847 897.092 543.634 896.59C542.422 896.088 541.122 895.829 539.81 895.83V895.83Z" fill="#F0F0F0"/>
<path d="M530.711 444.746V510.72C530.707 511.332 530.461 511.918 530.026 512.349C529.592 512.78 529.004 513.021 528.392 513.02H526.742V856.702C526.703 866.251 522.873 875.393 516.094 882.118C509.314 888.843 500.141 892.6 490.592 892.561H274.118C264.571 892.598 255.401 888.841 248.624 882.117C241.847 875.393 238.018 866.252 237.98 856.705V525.075H236.785C236.354 525.077 235.939 524.909 235.631 524.605C235.324 524.302 235.149 523.89 235.145 523.458V485.909C235.146 485.695 235.189 485.482 235.272 485.284C235.355 485.086 235.476 484.907 235.628 484.756C235.78 484.605 235.961 484.485 236.16 484.404C236.358 484.322 236.571 484.281 236.785 484.282H237.98V470.139H236.775C236.322 470.139 235.887 469.959 235.566 469.639C235.245 469.319 235.064 468.885 235.063 468.431V431.4C235.066 430.948 235.248 430.516 235.569 430.198C235.89 429.88 236.323 429.702 236.775 429.703H237.98V410.393H236.755C236.352 410.394 235.966 410.235 235.68 409.952C235.539 409.813 235.428 409.647 235.351 409.464C235.275 409.281 235.236 409.085 235.236 408.886V388.676C235.237 388.274 235.397 387.888 235.682 387.604C235.967 387.32 236.352 387.16 236.755 387.16H237.98V346.237C238.02 336.692 241.849 327.553 248.626 320.83C255.402 314.107 264.571 310.351 274.117 310.387H490.593C500.14 310.349 509.312 314.104 516.091 320.827C522.87 327.55 526.702 336.69 526.743 346.237V442.446H528.393C529.005 442.445 529.592 442.687 530.026 443.118C530.461 443.549 530.707 444.134 530.711 444.746V444.746Z" fill="white"/>
<path d="M69 891.633H609.589V893.658H69V891.633Z" fill="white"/>
<path d="M179.344 818.153H177.319V893.499H179.344V818.153Z" fill="white"/>
<path d="M175.926 828.808C181.81 828.808 186.581 824.038 186.581 818.153C186.581 812.269 181.81 807.498 175.926 807.498C170.041 807.498 165.271 812.269 165.271 818.153C165.271 824.038 170.041 828.808 175.926 828.808Z" fill="white"/>
<path d="M178.332 864.591C178.332 864.591 176.81 831.852 145.606 835.658Z" fill="white"/>
<path d="M398.871 328.925H362.36C361.307 328.925 360.454 329.778 360.454 330.831V335.206C360.454 336.259 361.307 337.113 362.36 337.113H398.871C399.924 337.113 400.777 336.259 400.777 335.206V330.831C400.777 329.778 399.924 328.925 398.871 328.925Z" fill="#E6E8EC"/>
<path d="M410.843 337.663C413.408 337.663 415.488 335.583 415.488 333.018C415.488 330.453 413.408 328.374 410.843 328.374C408.278 328.374 406.199 330.453 406.199 333.018C406.199 335.583 408.278 337.663 410.843 337.663Z" fill="#E6E8EC"/>
<path d="M513.759 353.482V859.603C513.73 865.658 511.298 871.454 506.998 875.717C502.697 879.979 496.88 882.359 490.825 882.334H283.604C277.53 882.349 271.697 879.96 267.379 875.688C265.252 873.584 263.563 871.079 262.412 868.318C261.26 865.557 260.668 862.595 260.67 859.603V353.482C260.683 350.483 261.286 347.515 262.445 344.749C263.605 341.983 265.297 339.473 267.427 337.361C269.557 335.249 272.082 333.578 274.858 332.442C277.633 331.306 280.606 330.728 283.605 330.74H314.619V334.686C314.64 339.674 316.642 344.448 320.183 347.96C323.725 351.471 328.516 353.432 333.503 353.411H438.89C443.877 353.432 448.669 351.471 452.21 347.96C455.752 344.448 457.753 339.674 457.774 334.686V330.74H490.825C493.824 330.727 496.797 331.304 499.573 332.44C502.349 333.576 504.874 335.247 507.004 337.359C509.134 339.471 510.827 341.982 511.986 344.748C513.145 347.515 513.747 350.483 513.759 353.482Z" fill="#253163"/>
<path d="M505.78 479.447H270.866V593.866H505.78V479.447Z" fill="#3F3D56"/>
<path d="M505.78 667.925H270.866V782.344H505.78V667.925Z" fill="#3F3D56"/>
<path d="M479.912 413.294C491.096 413.294 500.163 404.227 500.163 393.043C500.163 381.858 491.096 372.791 479.912 372.791C468.727 372.791 459.66 381.858 459.66 393.043C459.66 404.227 468.727 413.294 479.912 413.294Z" fill="white"/>
<path d="M489.175 392.393H480.714V383.931H479.412V392.393H470.95V393.695H479.412V402.156H480.714V393.695H489.175V392.393Z" fill="#3F3D56"/>
<path d="M366.419 557.813C372.569 580.545 393.632 594.624 393.632 594.624C393.632 594.624 404.725 571.846 398.575 549.114C392.425 526.383 371.362 512.304 371.362 512.304C371.362 512.304 360.269 535.084 366.419 557.813Z" fill="white"/>
<path d="M375.89 552.805C392.765 569.23 394.826 594.482 394.826 594.482C394.826 594.482 369.528 593.101 352.654 576.675C335.78 560.249 333.719 534.998 333.719 534.998C333.719 534.998 359.016 536.38 375.89 552.805Z" fill="white"/>
<path d="M366.419 746.41C372.569 769.142 393.632 783.221 393.632 783.221C393.632 783.221 404.725 760.443 398.575 737.712C392.425 714.98 371.362 700.901 371.362 700.901C371.362 700.901 360.269 723.681 366.419 746.41Z" fill="white"/>
<path d="M375.89 741.478C392.765 757.903 394.826 783.155 394.826 783.155C394.826 783.155 369.528 781.774 352.654 765.348C335.78 748.922 333.719 723.671 333.719 723.671C333.719 723.671 359.016 725.053 375.89 741.478Z" fill="white"/>
<path d="M421.766 746.41C415.616 769.142 394.553 783.221 394.553 783.221C394.553 783.221 383.46 760.443 389.61 737.712C395.76 714.98 416.823 700.901 416.823 700.901C416.823 700.901 427.916 723.681 421.766 746.41Z" fill="white"/>
<path d="M412.15 741.478C395.275 757.903 393.215 783.155 393.215 783.155C393.215 783.155 418.512 781.774 435.387 765.348C452.261 748.922 454.322 723.671 454.322 723.671C454.322 723.671 429.024 725.053 412.15 741.478Z" fill="white"/>
<path d="M175.091 423.172C180.728 423.172 185.297 418.603 185.297 412.967C185.297 407.331 180.728 402.762 175.091 402.762C169.455 402.762 164.886 407.331 164.886 412.967C164.886 418.603 169.455 423.172 175.091 423.172Z" fill="#F0F0F0"/>
<path d="M177.482 442.449C171.651 442.449 165.951 440.72 161.103 437.48C156.254 434.241 152.476 429.636 150.244 424.249C148.013 418.862 147.429 412.934 148.566 407.215C149.704 401.497 152.512 396.243 156.635 392.12C160.758 387.997 166.011 385.189 171.73 384.052C177.449 382.914 183.377 383.498 188.764 385.73C194.151 387.961 198.755 391.74 201.995 396.588C205.234 401.436 206.964 407.136 206.964 412.967C206.964 420.786 203.857 428.285 198.329 433.814C192.8 439.343 185.301 442.449 177.482 442.449V442.449ZM177.482 385.753C172.099 385.753 166.838 387.349 162.363 390.34C157.887 393.33 154.399 397.58 152.34 402.553C150.28 407.525 149.741 412.997 150.791 418.276C151.841 423.555 154.433 428.404 158.239 432.21C162.045 436.016 166.894 438.608 172.173 439.658C177.452 440.708 182.923 440.169 187.896 438.109C192.869 436.049 197.119 432.561 200.109 428.086C203.099 423.611 204.696 418.349 204.696 412.967C204.696 405.75 201.828 398.828 196.725 393.724C191.621 388.621 184.699 385.753 177.482 385.753V385.753Z" fill="#2F2E41"/>
</g>
<defs>
<clipPath id="clip0">
<rect width="587" height="941" fill="white"/>
</clipPath>
</defs>
</svg>
